<svg viewBox="0 0 20 20" fill="none" xmlns="http://www.w3.org/2000/svg">
<path d="M8.65542 9.23254C8.23199 9.23254 7.89771 9.60397 7.89771 10.0571C7.89771 10.5103 8.23942 10.8817 8.65542 10.8817C9.07885 10.8817 9.41313 10.5103 9.41313 10.0571C9.42056 9.60397 9.07885 9.23254 8.65542 9.23254ZM11.3668 9.23254C10.9434 9.23254 10.6091 9.60397 10.6091 10.0571C10.6091 10.5103 10.9508 10.8817 11.3668 10.8817C11.7903 10.8817 12.1246 10.5103 12.1246 10.0571C12.1246 9.60397 11.7903 9.23254 11.3668 9.23254Z" fill="currentColor"/>
<path d="M14.9771 3H5.02286C4.18343 3 3.5 3.68343 3.5 4.53029V14.5737C3.5 15.4206 4.18343 16.104 5.02286 16.104H13.4469L13.0531 14.7297L14.004 15.6137L14.9029 16.4457L16.5 17.8571V4.53029C16.5 3.68343 15.8166 3 14.9771 3ZM12.1097 12.7017C12.1097 12.7017 11.8423 12.3823 11.6194 12.1C12.5926 11.8251 12.964 11.216 12.964 11.216C12.6594 11.4166 12.3697 11.5577 12.1097 11.6543C11.7383 11.8103 11.3817 11.9143 11.0326 11.9737C10.3194 12.1074 9.66572 12.0703 9.10857 11.9663C8.68514 11.8846 8.32114 11.7657 8.01657 11.6469C7.84572 11.58 7.66 11.4983 7.47429 11.3943C7.452 11.3794 7.42971 11.372 7.40743 11.3571C7.39257 11.3497 7.38514 11.3423 7.37771 11.3349C7.244 11.2606 7.16971 11.2086 7.16971 11.2086C7.16971 11.2086 7.52629 11.8029 8.46972 12.0851C8.24686 12.3674 7.972 12.7017 7.972 12.7017C6.33029 12.6497 5.70629 11.5726 5.70629 11.5726C5.70629 9.18057 6.776 7.24171 6.776 7.24171C7.84571 6.43943 8.86343 6.46171 8.86343 6.46171L8.93771 6.55086C7.60057 6.93714 6.984 7.524 6.984 7.524C6.984 7.524 7.14743 7.43486 7.42229 7.30857C8.21714 6.95943 8.84857 6.86286 9.10857 6.84057C9.15314 6.83314 9.19029 6.82571 9.23486 6.82571C9.688 6.76629 10.2006 6.75143 10.7354 6.81086C11.4411 6.89257 12.1989 7.10057 12.9714 7.524C12.9714 7.524 12.3846 6.96686 11.1217 6.58057L11.2257 6.46171C11.2257 6.46171 12.2434 6.43943 13.3131 7.24171C13.3131 7.24171 14.3829 9.18057 14.3829 11.5726C14.3829 11.5726 13.7514 12.6497 12.1097 12.7017Z" fill="currentColor"/>
</svg>
