<svg viewBox="0 0 20 20" fill="none" xmlns="http://www.w3.org/2000/svg">
<path d="M10 2.5C5.85875 2.5 2.5 5.85812 2.5 10C2.5 13.3137 4.64875 16.125 7.62937 17.1169C8.00375 17.1862 8.125 16.9537 8.125 16.7562V15.36C6.03875 15.8137 5.60437 14.475 5.60437 14.475C5.26312 13.6081 4.77125 13.3775 4.77125 13.3775C4.09063 12.9119 4.82312 12.9219 4.82312 12.9219C5.57625 12.9744 5.9725 13.695 5.9725 13.695C6.64125 14.8412 7.72688 14.51 8.155 14.3181C8.22188 13.8337 8.41625 13.5025 8.63125 13.3156C6.96563 13.125 5.21438 12.4819 5.21438 9.60875C5.21438 8.78937 5.5075 8.12062 5.98688 7.59562C5.90937 7.40625 5.6525 6.64312 6.06 5.61062C6.06 5.61062 6.69 5.40937 8.12313 6.37937C8.72125 6.21312 9.3625 6.13 10 6.12687C10.6375 6.13 11.2794 6.21312 11.8787 6.37937C13.3106 5.40937 13.9394 5.61062 13.9394 5.61062C14.3475 6.64375 14.0906 7.40687 14.0131 7.59562C14.4944 8.12062 14.785 8.79 14.785 9.60875C14.785 12.4894 13.0306 13.1237 11.3606 13.3094C11.6294 13.5419 11.875 13.9981 11.875 14.6981V16.7562C11.875 16.9556 11.995 17.19 12.3756 17.1162C15.3537 16.1231 17.5 13.3125 17.5 10C17.5 5.85812 14.1419 2.5 10 2.5Z" fill="currentColor"/>
</svg>
