<svg viewBox="0 0 20 20" fill="none" xmlns="http://www.w3.org/2000/svg">
<path d="M11.1531 10.1198C11.1531 12.9474 8.88022 15.2397 6.07644 15.2397C3.27267 15.2397 1 12.9481 1 10.1198C1 7.29148 3.27284 5 6.07644 5C8.88005 5 11.1531 7.29217 11.1531 10.1198Z" fill="currentColor"/>
<path d="M16.7221 10.1198C16.7221 12.7817 15.5856 14.9394 14.1838 14.9394C12.782 14.9394 11.6455 12.781 11.6455 10.1198C11.6455 7.4587 12.782 5.30035 14.1838 5.30035C15.5856 5.30035 16.7221 7.4587 16.7221 10.1198Z" fill="currentColor"/>
<path d="M18.9999 10.1199C18.9999 12.5048 18.6002 14.438 18.1072 14.438C17.6141 14.438 17.2144 12.5041 17.2144 10.1199C17.2144 7.7357 17.6141 5.80182 18.1073 5.80182C18.6005 5.80182 18.9999 7.73518 18.9999 10.1199Z" fill="currentColor"/>
</svg>
