<svg viewBox="0 0 20 20" fill="none" xmlns="http://www.w3.org/2000/svg">
<path fill-rule="evenodd" clip-rule="evenodd" d="M13.9902 16.112C14.1915 16.2545 14.4509 16.2901 14.6821 16.2026C14.9134 16.1145 15.0834 15.917 15.1346 15.6776C15.6777 13.1251 16.9952 6.66447 17.4896 4.34259C17.5271 4.16759 17.4646 3.98572 17.3271 3.86884C17.1896 3.75197 16.999 3.71822 16.829 3.78134C14.2084 4.75134 6.13775 7.77947 2.839 9.00009C2.62962 9.07759 2.49337 9.27884 2.50025 9.49947C2.50775 9.72072 2.6565 9.91259 2.87087 9.97697C4.35025 10.4195 6.29212 11.0351 6.29212 11.0351C6.29212 11.0351 7.19962 13.7757 7.67275 15.1695C7.73212 15.3445 7.869 15.482 8.04962 15.5295C8.22962 15.5763 8.42212 15.527 8.5565 15.4001C9.3165 14.6826 10.4915 13.5732 10.4915 13.5732C10.4915 13.5732 12.724 15.2101 13.9902 16.112ZM7.109 10.6888L8.15837 14.1501L8.3915 11.9582C8.3915 11.9582 12.4459 8.30134 14.7571 6.21697C14.8246 6.15572 14.834 6.05322 14.7777 5.98134C14.7221 5.90947 14.6196 5.89259 14.5427 5.94134C11.864 7.65197 7.109 10.6888 7.109 10.6888Z" fill="currentColor"/>
</svg>
