<svg viewBox="0 0 20 20" fill="none" xmlns="http://www.w3.org/2000/svg">
<path d="M17.5 5.19313C16.9481 5.43813 16.355 5.60312 15.7325 5.6775C16.3681 5.29687 16.8562 4.69375 17.0856 3.975C16.4913 4.3275 15.8325 4.58375 15.1312 4.72188C14.5706 4.12375 13.77 3.75 12.885 3.75C10.8981 3.75 9.43813 5.60375 9.88688 7.52813C7.33 7.4 5.0625 6.175 3.54437 4.31313C2.73813 5.69625 3.12625 7.50562 4.49625 8.42187C3.9925 8.40562 3.5175 8.2675 3.10312 8.03688C3.06937 9.4625 4.09125 10.7962 5.57125 11.0931C5.13812 11.2106 4.66375 11.2381 4.18125 11.1456C4.5725 12.3681 5.70875 13.2575 7.05625 13.2825C5.7625 14.2969 4.1325 14.75 2.5 14.5575C3.86187 15.4306 5.48 15.94 7.2175 15.94C12.9312 15.94 16.1594 11.1144 15.9644 6.78625C16.5656 6.35187 17.0875 5.81 17.5 5.19313Z" fill="currentColor"/>
</svg>
