<svg width="267" height="112" viewBox="0 0 267 112" fill="none" xmlns="http://www.w3.org/2000/svg">
<circle cx="20" cy="16" r="8" fill="#2C3435"/>
<rect x="0.5" y="0.5" width="188" height="31" rx="7.5" stroke="currentColor"/>
<rect x="128" y="12" width="44" height="8" rx="4" fill="#2C3435"/>
<rect x="90" y="12" width="22" height="8" rx="4" fill="#2C3435"/>
<rect x="52" y="12" width="22" height="8" rx="4" fill="#2C3435"/>
<circle cx="20" cy="56" r="8" fill="#2C3435"/>
<rect x="0.5" y="40.5" width="188" height="31" rx="7.5" stroke="currentColor"/>
<rect x="128" y="52" width="44" height="8" rx="4" fill="#2C3435"/>
<rect x="90" y="52" width="22" height="8" rx="4" fill="#2C3435"/>
<rect x="52" y="52" width="22" height="8" rx="4" fill="#2C3435"/>
<circle cx="20" cy="96" r="8" fill="#2C3435"/>
<rect x="0.5" y="80.5" width="188" height="31" rx="7.5" stroke="currentColor"/>
<rect x="128" y="92" width="44" height="8" rx="4" fill="#2C3435"/>
<rect x="90" y="92" width="22" height="8" rx="4" fill="#2C3435"/>
<rect x="52" y="92" width="22" height="8" rx="4" fill="#2C3435"/>
<rect x="198" width="69" height="32" rx="8" fill="#CCFF3C"/>
<rect x="198" y="40" width="69" height="32" rx="8" fill="#CCFF3C"/>
<rect x="198" y="80" width="69" height="32" rx="8" fill="#CCFF3C"/>
</svg>
