<svg width="210" height="146" viewBox="0 0 210 146" fill="none" xmlns="http://www.w3.org/2000/svg">
<path d="M2.90625 120.066L23.0351 77.9792L47.035 103.303L69.2929 57.2926L79.7444 75.8392L108.389 23.0527" stroke="#2C3435" stroke-width="2"/>
<path d="M94.8352 26.1865L108.729 22.1831L112.763 35.9739" stroke="#2C3435" stroke-width="2"/>
<rect x="0.5" y="0.5" width="130.612" height="121.947" rx="7.5" stroke="currentColor"/>
<rect x="136.953" y="0.5" width="72.5479" height="121.947" rx="7.5" stroke="#CCFF3C"/>
<rect x="0.5" y="127.289" width="208.999" height="18.2105" rx="4.5" stroke="currentColor"/>
<rect x="141.297" y="6.72369" width="30.9675" height="9.60526" rx="4.80263" fill="#2C3435"/>
<rect x="141.297" y="24.0132" width="61.935" height="9.60526" rx="4.80263" fill="#2C3435"/>
<rect x="141.297" y="41.3027" width="61.935" height="9.60526" rx="4.80263" fill="#2C3435"/>
<rect x="141.297" y="58.592" width="61.935" height="9.60526" rx="4.80263" fill="#2C3435"/>
<rect x="141.297" y="75.8816" width="30.9675" height="9.60526" rx="4.80263" fill="#2C3435"/>
<rect x="141.297" y="93.171" width="61.935" height="9.60526" rx="4.80263" fill="#2C3435"/>
<rect x="141.297" y="110.46" width="61.935" height="9.60526" rx="4.80263" fill="#CCFF3C"/>
</svg>
