<svg width="32" height="32" viewBox="0 0 32 32" fill="none" xmlns="http://www.w3.org/2000/svg">
<path d="M16 32C24.8366 32 32 24.8366 32 16C32 7.16344 24.8366 0 16 0C7.16344 0 0 7.16344 0 16C0 24.8366 7.16344 32 16 32Z" fill="#FBFF43"/>
<path d="M23.8736 17.4538V16.7538C26.2736 14.8538 26.3236 14.4039 26.7736 14.0539C27.2236 13.7039 28.0236 12.5066 28.0236 12.0539C28.0236 11.7039 27.3736 10.8539 27.0736 10.2039C26.7736 9.55388 26.577 9.0235 26.0236 8.15388C25.3236 7.05388 25.1736 6.90388 24.6236 7.05388C24.1788 7.17518 22.9056 6.88494 22.0236 6.60458C20.9736 6.27088 20.2736 6.3544 19.5235 6.78814C18.7789 7.21878 16.4235 7.75384 13.8735 8.55384C11.3235 9.35384 10.9735 9.00458 10.0235 9.50384C8.78343 10.1555 6.62351 10.7046 5.92351 11.0046C5.23417 11.3 4.28807 11.3507 3.98809 11.5999C3.89943 11.6736 3.47421 12.7749 3.28813 13.7999C3.11323 14.7633 2.83809 15.4999 3.12355 15.7538C3.23809 15.8557 3.42387 16.1861 3.77351 16.4046C4.17351 16.6546 4.32351 17.3796 4.67351 17.5046C5.57351 17.826 5.77355 18.3538 6.27355 18.4038C6.77355 18.4538 7.27355 18.6038 7.62355 18.6538C7.97355 18.7038 9.14065 18.6788 9.22355 18.8038C9.32351 18.9546 9.37351 19.0546 9.37351 20.0045C9.37351 20.9545 9.42355 22.9039 9.42355 23.5039C9.42355 24.1039 9.62351 24.3045 11.0236 24.8539C12.0539 25.2581 13.4735 25.5539 16.0736 25.5539C18.6736 25.5539 20.6236 25.3039 21.6736 25.1039C22.7236 24.9039 23.3236 24.2039 23.5236 23.9539C23.7236 23.7039 23.7736 23.2039 23.7736 22.5539C23.7736 21.9039 23.8094 19.8611 23.7736 19.2538C23.7236 18.4046 23.8736 17.7538 23.8736 17.4538Z" fill="black"/>
</svg>
