<svg width="32" height="32" viewBox="0 0 32 32" fill="none" xmlns="http://www.w3.org/2000/svg">
<path d="M16 32C24.8366 32 32 24.8366 32 16C32 7.16344 24.8366 0 16 0C7.16344 0 0 7.16344 0 16C0 24.8366 7.16344 32 16 32Z" fill="#F3BA2F"/>
<path d="M11.7273 14.2447L16 9.972L20.2747 14.2467L22.7607 11.76L16 5L9.24133 11.7587L11.728 14.2447H11.7273ZM5 16L7.48667 13.5133L9.97133 16L7.48467 18.4853L5 16ZM11.7273 17.756L16 22.0273L20.2747 17.7527L22.7613 20.238L22.7607 20.2393L16 27L9.24133 20.2413L9.238 20.238L11.728 17.7553L11.7273 17.756ZM22.028 16.0013L24.5147 13.5147L27 16.0013L24.514 18.4873L22.028 16V16.0013Z" fill="white"/>
<path d="M18.5213 15.9987H18.522L16 13.4761L14.1353 15.3401L13.9213 15.5541L13.4793 15.9961L13.476 15.9994L13.4793 16.0034L15.9993 18.5234L18.5227 16.0014L18.524 16.0001L18.5213 15.9987" fill="white"/>
</svg>
