<svg width="32" height="32" fill="none" xmlns="http://www.w3.org/2000/svg">
  <g clip-path="url(#clip0)">
    <path d="M31.52 19.87c-2.137 8.572-10.819 13.788-19.392 11.65C3.56 29.385-1.656 20.703.481 12.13 2.617 3.559 11.299-1.658 19.868.479c8.573 2.137 13.789 10.82 11.652 19.392z" fill="#F7931A"/>
    <path d="M23.055 13.72c.318-2.129-1.303-3.273-3.52-4.037l.72-2.883-1.755-.438-.7 2.808a74.39 74.39 0 00-1.408-.331l.706-2.827-1.755-.437-.72 2.883a58.728 58.728 0 01-1.12-.264l.002-.009-2.421-.604-.467 1.875s1.302.299 1.274.317c.711.178.84.648.819 1.021l-.82 3.285c.05.013.113.031.183.059l-.185-.046-1.149 4.603c-.087.215-.307.54-.804.416.018.026-1.276-.318-1.276-.318l-.871 2.01 2.284.569c.426.107.842.218 1.252.323l-.727 2.917 1.754.438.72-2.887c.478.13.943.25 1.398.363l-.717 2.873 1.755.438.727-2.912c2.993.566 5.245.338 6.192-2.37.764-2.18-.038-3.437-1.613-4.257 1.147-.264 2.011-1.019 2.242-2.577zm-4.012 5.625c-.543 2.18-4.213 1.002-5.403.706l.964-3.864c1.19.296 5.006.884 4.439 3.158zm.543-5.656c-.495 1.983-3.55.976-4.541.729l.874-3.505c.991.246 4.183.707 3.667 2.776z" fill="#fff"/>
  </g>
  <defs>
    <clipPath id="clip0">
      <path fill="#fff" d="M0 0h32v32H0z"/>
    </clipPath>
  </defs>
</svg>
