<svg width="32" height="32" viewBox="0 0 24 24" fill="none" xmlns="http://www.w3.org/2000/svg">
<path d="M5.4541 20.5861C6.16586 21.397 7.03154 22.0584 8.00093 22.5321C8.97031 23.0058 10.0241 23.2822 11.1012 23.3455C12.388 23.2772 13.602 22.7274 14.5022 21.8054C16.2779 20.2846 18.1421 18.8703 20.0851 17.5701L21.176 17.1209C21.6252 16.9284 22.3953 16.4792 23.1012 15.645C23.8712 14.6182 23.9996 13.5273 23.9996 13.1423C23.9142 11.928 23.5163 10.7563 22.8445 9.74121C21.0913 12.8652 18.5787 15.4966 15.539 17.3922C12.4994 19.2878 9.0308 20.3863 5.4541 20.5861Z" fill="#0293D6"/>
<path d="M7.89258 2.36173C8.37162 1.85574 8.94865 1.45256 9.58852 1.17675C10.2284 0.900943 10.9177 0.758281 11.6145 0.757455C12.056 0.727896 12.4989 0.786428 12.9175 0.929646C13.3362 1.07286 13.7222 1.29791 14.053 1.59168C15.8937 2.89571 18.0862 3.61164 20.3418 3.64516C20.9193 3.70933 22.0744 3.90184 22.8444 4.86441C23.422 5.63446 23.4862 6.46869 23.4862 6.85371C23.4345 7.84529 23.2176 8.82127 22.8444 9.74141L7.89258 2.36173Z" fill="#EBE638"/>
<path d="M5.45455 20.5862C4.87701 20.522 4.10695 20.3295 3.20856 19.9445C2.31016 19.5595 1.21925 19.1103 0.513369 17.891C0.0641711 17.121 0 16.3509 0 15.8375C0.0156669 14.4761 0.345055 13.1366 0.962567 11.9231C1.57693 10.4233 1.98702 8.84766 2.18182 7.23861L2.50267 5.95519C2.69519 5.31348 2.82353 4.67177 3.27273 4.03006L3.97861 3.26C5.14449 2.52699 6.52422 2.21033 7.89305 2.36161C6.06016 4.98358 4.88224 8.00658 4.45798 11.1774C4.03371 14.3483 4.37544 17.5746 5.45455 20.5862Z" fill="#BAD147"/>
<path d="M7.89318 2.36182C7.82901 2.36182 11.3584 2.55433 13.5402 3.32438L15.337 4.09444C14.6312 4.03027 10.1392 3.83775 6.7381 7.23882C2.43864 11.6025 3.8504 17.5704 3.91457 17.8912C2.91821 16.6377 2.41594 15.0624 2.50281 13.4634C2.58729 11.3413 3.10976 9.25959 4.0374 7.34909C4.96504 5.43859 6.2778 3.7406 7.89318 2.36182Z" fill="#78B650"/>
<path d="M16.492 18.2119C17.706 16.005 18.2439 13.4897 18.0385 10.9793C17.8331 8.46889 16.8935 6.07443 15.3369 4.09424C17.1957 4.40501 18.9054 5.30486 20.2139 6.66108C20.984 7.30279 21.9465 8.26536 22.8449 9.7413C21.5761 13.1116 19.3722 16.0501 16.492 18.2119Z" fill="#2F8260"/>
<path d="M18.5452 6.91787C17.5185 5.18524 16.0425 4.41519 15.4008 4.09434C14.8874 3.96599 10.0746 3.19594 6.41685 6.72535C3.46497 9.54888 3.27246 13.2066 3.27246 13.9125C3.28605 16.3309 4.09818 18.6771 5.58262 20.5863C7.49024 20.9536 9.45041 20.9536 11.358 20.5863C12.3206 20.3938 14.5666 20.0088 16.4917 18.3403C16.7484 18.0836 19.5719 15.4526 19.7644 11.2815C19.7644 10.5756 19.7644 8.77883 18.5452 6.91787ZM16.235 16.2227C15.6391 16.8709 14.915 17.3882 14.1086 17.7417C13.3021 18.0952 12.431 18.2772 11.5505 18.2762C11.1655 18.2762 8.59866 18.212 6.80187 16.0943C6.54519 15.7735 5.26177 14.2334 5.32594 11.9232C5.45428 8.843 7.89278 7.04621 8.40615 6.66118C8.85535 6.34033 9.94626 5.63444 11.5505 5.57027C11.9356 5.5061 13.2832 5.44193 14.6308 6.21198C17.5826 7.81626 17.711 11.6665 17.711 11.9232C17.711 12.6291 17.711 14.5542 16.235 16.2227Z" fill="#085229"/>
</svg>
