<svg width="24" height="24" viewBox="0 0 24 24" fill="none" xmlns="http://www.w3.org/2000/svg">
<mask id="path-1-outside-1_710_20189" maskUnits="userSpaceOnUse" x="1.0625" y="2.7959" width="22" height="19" fill="black">
<rect fill="white" x="1.0625" y="2.7959" width="22" height="19"/>
<path fill-rule="evenodd" clip-rule="evenodd" d="M6.76359 4.7429L6.76193 4.74545L3.31778 9.76192L3.33721 9.77529C2.26435 11.596 4.42803 14.9747 8.18716 17.6282C11.9704 20.2987 15.9741 20.986 17.2159 19.3262L17.2521 19.3511L20.6982 14.2569L20.6982 14.2568C21.8214 12.5336 19.7237 8.938 15.8284 6.39105C12.0077 3.69408 7.96224 3.01984 6.76359 4.7429Z"/>
</mask>
<path fill-rule="evenodd" clip-rule="evenodd" d="M6.76359 4.7429L6.76193 4.74545L3.31778 9.76192L3.33721 9.77529C2.26435 11.596 4.42803 14.9747 8.18716 17.6282C11.9704 20.2987 15.9741 20.986 17.2159 19.3262L17.2521 19.3511L20.6982 14.2569L20.6982 14.2568C21.8214 12.5336 19.7237 8.938 15.8284 6.39105C12.0077 3.69408 7.96224 3.01984 6.76359 4.7429Z" fill="url(#paint0_linear_710_20189)"/>
<path d="M6.76193 4.74545L7.58633 5.31145L7.59331 5.30129L7.60004 5.29095L6.76193 4.74545ZM6.76359 4.7429L5.94268 4.17183L5.93389 4.18448L5.92548 4.19739L6.76359 4.7429ZM3.31778 9.76192L2.49338 9.19592L1.92799 10.0194L2.75088 10.5857L3.31778 9.76192ZM3.33721 9.77529L4.19876 10.283L4.67197 9.47992L3.90412 8.95151L3.33721 9.77529ZM8.18716 17.6282L7.61048 18.4451H7.61048L8.18716 17.6282ZM17.2159 19.3262L17.7828 18.5025L16.9911 17.9576L16.4152 18.7272L17.2159 19.3262ZM17.2521 19.3511L16.6852 20.1749L17.5156 20.7464L18.0804 19.9114L17.2521 19.3511ZM20.6982 14.2569L21.5265 14.8172L22.0812 13.9972L21.2668 13.4342L20.6982 14.2569ZM20.6982 14.2568L19.8604 13.7108L19.329 14.5261L20.1296 15.0795L20.6982 14.2568ZM15.8284 6.39105L15.2517 7.20801L15.2663 7.21828L15.2811 7.22802L15.8284 6.39105ZM7.60004 5.29095L7.60169 5.28841L5.92548 4.19739L5.92382 4.19994L7.60004 5.29095ZM4.14218 10.3279L7.58633 5.31145L5.93753 4.17944L2.49338 9.19592L4.14218 10.3279ZM3.90412 8.95151L3.88469 8.93814L2.75088 10.5857L2.77031 10.5991L3.90412 8.95151ZM8.76384 16.8112C6.96264 15.5398 5.58729 14.1231 4.7984 12.8597C3.96453 11.5244 3.96421 10.681 4.19876 10.283L2.47567 9.26761C1.63736 10.6902 2.18245 12.4465 3.10199 13.9191C4.0665 15.4636 5.65255 17.0631 7.61048 18.4451L8.76384 16.8112ZM16.4152 18.7272C16.1574 19.0718 15.3829 19.4008 13.8346 19.1174C12.3768 18.8506 10.5631 18.0812 8.76384 16.8112L7.61048 18.4451C9.59453 19.8456 11.6743 20.7552 13.4746 21.0847C15.1844 21.3977 17.0327 21.2404 18.0166 19.9253L16.4152 18.7272ZM17.819 18.5274L17.7828 18.5025L16.649 20.15L16.6852 20.1749L17.819 18.5274ZM19.87 13.6966L16.4238 18.7908L18.0804 19.9114L21.5265 14.8172L19.87 13.6966ZM20.1296 15.0795L20.1297 15.0795L21.2668 13.4342L21.2668 13.4342L20.1296 15.0795ZM15.2811 7.22802C17.1275 8.43525 18.5106 9.86903 19.2907 11.1523C19.6814 11.7949 19.8984 12.3628 19.9716 12.8177C20.0442 13.2696 19.9678 13.5461 19.8604 13.7108L21.5359 14.8029C21.9902 14.106 22.0727 13.2867 21.9462 12.5002C21.8202 11.7168 21.48 10.9035 20.9997 10.1134C20.038 8.5313 18.4246 6.8938 16.3756 5.55408L15.2811 7.22802ZM7.58449 5.31396C7.82716 4.96513 8.58064 4.6182 10.1383 4.89413C11.6028 5.15356 13.4344 5.92517 15.2517 7.20801L16.4051 5.57408C14.4017 4.15995 12.3002 3.24596 10.4872 2.92479C8.76724 2.62012 6.89867 2.7976 5.94268 4.17183L7.58449 5.31396Z" fill="white" mask="url(#path-1-outside-1_710_20189)"/>
<path d="M6.764 4.74268L20.6983 14.257L17.2522 19.3513L3.31787 9.76203L6.764 4.74268Z" fill="url(#paint1_linear_710_20189)"/>
<path d="M20.6978 14.2572C19.4991 15.9803 15.4537 15.306 11.633 12.6091C7.73736 9.98701 5.63972 6.46596 6.76345 4.7429C7.96211 3.01984 12.0076 3.69408 15.8283 6.39105C19.7239 8.93818 21.8215 12.5341 20.6978 14.2572Z" fill="url(#paint2_linear_710_20189)"/>
<path d="M17.252 19.2762C16.0533 20.9993 12.0079 20.325 8.18716 17.6281C4.36645 14.9311 2.1939 11.485 3.39255 9.68699C4.5912 7.96393 8.63665 8.63817 12.4574 11.3351C16.2781 14.0321 18.3757 17.5531 17.252 19.2762Z" fill="url(#paint3_linear_710_20189)"/>
<path d="M20.6984 14.2573L17.2523 19.3515C16.0536 21.0746 12.0082 20.3254 8.18749 17.7034C7.43833 17.179 6.76409 16.6546 6.08984 16.0552C6.61425 15.9803 7.2885 15.6807 7.96274 14.9315C9.16139 13.6579 9.76072 13.3583 10.2851 13.4332C10.8095 13.4332 11.4089 13.9576 12.3828 15.2312C13.3567 16.5047 14.7052 16.8793 15.5292 16.2051C15.6041 16.1302 15.6791 16.1302 15.754 16.0552C16.4282 15.5308 16.653 15.3061 17.9265 12.9088C18.2262 12.3094 19.275 11.3355 20.6984 11.785C21.073 12.7589 21.073 13.583 20.6984 14.2573Z" fill="#0E0F23"/>
<path fill-rule="evenodd" clip-rule="evenodd" d="M20.1735 13.9573C19.1247 15.4556 15.4538 14.7064 11.9327 12.2342C8.33678 9.762 6.23914 6.61554 7.28796 5.11722C8.33678 3.61891 12.0077 4.36806 15.5287 6.84029C19.0497 9.31251 21.1474 12.459 20.1735 13.9573ZM16.8772 11.7098C16.3528 12.459 14.5548 12.0844 12.7568 10.8857C11.0338 9.68709 9.98493 8.11386 10.5093 7.3647C11.0338 6.61554 12.8317 6.99012 14.6297 8.18877C16.3528 9.38742 17.4016 10.9607 16.8772 11.7098Z" fill="white"/>
<path d="M6.46421 6.46605C6.46421 6.39114 6.3893 6.31622 6.31438 6.39114C6.23947 6.46605 6.16455 6.46605 6.16455 6.54097C6.23947 6.76572 6.31438 6.91555 6.31438 7.06538C6.31438 7.1403 6.3893 7.21521 6.46421 7.1403C6.53913 7.1403 6.61405 7.06538 6.53913 6.99046C6.53913 6.84063 6.53913 6.6908 6.46421 6.46605Z" fill="white"/>
<path d="M6.83852 7.66454C6.83852 7.58962 6.7636 7.51471 6.68869 7.58962C6.61377 7.66454 6.61377 7.66454 6.61377 7.73946C7.43784 9.61235 9.16091 11.6351 11.4084 13.1334C11.4833 13.2083 11.5582 13.1334 11.6331 13.1334C11.708 13.0585 11.6331 12.9836 11.6331 12.9086C9.31074 11.4103 7.66259 9.46252 6.83852 7.66454Z" fill="white"/>
<path d="M15.9033 15.0061C15.8283 15.0061 15.7534 15.0061 15.7534 15.081C15.7534 15.1559 15.7534 15.2308 15.8283 15.2308C16.0531 15.3058 16.3527 15.3807 16.5775 15.4556C16.6524 15.4556 16.7273 15.4556 16.7273 15.3807C16.7273 15.3058 16.7273 15.2308 16.6524 15.2308C16.4277 15.1559 16.128 15.081 15.9033 15.0061Z" fill="white"/>
<path d="M17.2519 15.3062C17.177 15.3062 17.1021 15.3811 17.1021 15.456C17.1021 15.5309 17.177 15.6058 17.2519 15.6058C17.8512 15.6807 18.5254 15.7556 19.0499 15.6807C19.1248 15.6807 19.1997 15.6058 19.1997 15.5309C19.1997 15.456 19.1248 15.3811 19.0499 15.3811C18.4505 15.456 17.8512 15.3811 17.2519 15.3062Z" fill="white"/>
<defs>
<linearGradient id="paint0_linear_710_20189" x1="7.22524" y1="4.05048" x2="9.98866" y2="13.5395" gradientUnits="userSpaceOnUse">
<stop stop-color="#03B8FF"/>
<stop offset="1" stop-color="#FA52A0"/>
</linearGradient>
<linearGradient id="paint1_linear_710_20189" x1="9.49408" y1="3.38992" x2="12.2574" y2="12.8789" gradientUnits="userSpaceOnUse">
<stop stop-color="#03B8FF"/>
<stop offset="1" stop-color="#FA52A0"/>
</linearGradient>
<linearGradient id="paint2_linear_710_20189" x1="11.7692" y1="2.72736" x2="14.5326" y2="12.2164" gradientUnits="userSpaceOnUse">
<stop stop-color="#03B8FF"/>
<stop offset="1" stop-color="#FA52A0"/>
</linearGradient>
<linearGradient id="paint3_linear_710_20189" x1="7.22524" y1="4.0504" x2="9.98866" y2="13.5395" gradientUnits="userSpaceOnUse">
<stop stop-color="#03B8FF"/>
<stop offset="1" stop-color="#FA52A0"/>
</linearGradient>
</defs>
</svg>
