<svg width="24" height="24" viewBox="0 0 24 24" fill="none" xmlns="http://www.w3.org/2000/svg">
<path d="M9.59204 5.92067C9.35048 5.88616 9.33898 5.87466 9.45401 5.86315C9.67256 5.82865 10.1787 5.87466 10.5352 5.95518C11.3634 6.15072 12.1111 6.65683 12.9048 7.54253L13.1118 7.78408L13.4109 7.73807C14.6877 7.53103 15.999 7.69206 17.0917 8.19817C17.3908 8.33621 17.8624 8.61227 17.9199 8.68128C17.9429 8.70429 17.9774 8.85382 18.0004 9.00335C18.0809 9.54397 18.0464 9.94656 17.8739 10.2571C17.7819 10.4297 17.7819 10.4757 17.8394 10.6252C17.8854 10.7402 18.0234 10.8208 18.1499 10.8208C18.426 10.8208 18.7136 10.3837 18.8516 9.77403L18.9091 9.53247L19.0126 9.6475C19.5993 10.3031 20.0594 11.2118 20.1284 11.856L20.1514 12.0285L20.0479 11.879C19.8753 11.6144 19.7143 11.4419 19.4957 11.2924C19.1047 11.0278 18.6906 10.9473 17.5978 10.8898C16.6086 10.8323 16.045 10.7517 15.4929 10.5677C14.5496 10.2571 14.0665 9.85454 12.9508 8.37071C12.4562 7.71507 12.1456 7.35849 11.835 7.05942C11.1564 6.40378 10.4777 6.0587 9.59204 5.92067Z" fill="#FF007A"/>
<path d="M18.1614 7.38154C18.1844 6.94444 18.2419 6.65688 18.3685 6.39232C18.4145 6.2888 18.4605 6.19678 18.472 6.19678C18.4835 6.19678 18.4605 6.2773 18.426 6.36932C18.334 6.62237 18.3225 6.97895 18.38 7.38154C18.4605 7.89916 18.495 7.96817 19.0471 8.5318C19.3002 8.79636 19.5992 9.12993 19.7143 9.26796L19.9098 9.52102L19.7143 9.33698C19.4727 9.10693 18.9206 8.66983 18.7941 8.61232C18.7135 8.5663 18.702 8.5663 18.6445 8.62382C18.5985 8.66983 18.587 8.73884 18.587 9.07242C18.5755 9.59003 18.5065 9.9121 18.334 10.2457C18.2419 10.4182 18.2304 10.3837 18.311 10.1882C18.3685 10.0386 18.38 9.96962 18.38 9.47501C18.38 8.47428 18.2649 8.23273 17.5633 7.83014C17.3908 7.72662 17.0917 7.57708 16.9191 7.49657C16.7351 7.41605 16.5971 7.34703 16.6086 7.34703C16.6316 7.32403 17.3102 7.51957 17.5748 7.6346C17.9774 7.79563 18.0464 7.80714 18.0924 7.79563C18.1269 7.76113 18.1499 7.66911 18.1614 7.38154Z" fill="#FF007A"/>
<path d="M10.0638 9.09522C9.58072 8.42807 9.27015 7.39284 9.33916 6.62217L9.36217 6.38062L9.47719 6.40362C9.68424 6.43813 10.0408 6.57616 10.2134 6.67968C10.6735 6.95574 10.8805 7.33533 11.0761 8.27854C11.1336 8.5546 11.2141 8.87667 11.2486 8.98019C11.3061 9.15273 11.5247 9.55532 11.7087 9.80838C11.8352 9.99242 11.7547 10.0844 11.4671 10.0614C11.03 10.0154 10.4434 9.61283 10.0638 9.09522Z" fill="#FF007A"/>
<path d="M17.5754 14.0989C15.2979 13.1787 14.4927 12.385 14.4927 11.0392C14.4927 10.8437 14.5042 10.6826 14.5042 10.6826C14.5157 10.6826 14.5962 10.7516 14.6997 10.8322C15.1598 11.2002 15.6774 11.3613 17.1153 11.5683C17.9549 11.6948 18.4381 11.7869 18.8752 11.9364C20.267 12.3965 21.1297 13.3397 21.3367 14.6165C21.3942 14.9846 21.3597 15.6862 21.2677 16.0543C21.1872 16.3419 20.9571 16.871 20.8996 16.8825C20.8881 16.8825 20.8651 16.825 20.8651 16.733C20.8421 16.2499 20.6005 15.7898 20.1979 15.4332C19.7148 15.0191 19.0937 14.7085 17.5754 14.0989Z" fill="#FF007A"/>
<path d="M15.9648 14.4789C15.9418 14.3063 15.8843 14.0878 15.8498 13.9958L15.7923 13.8232L15.8958 13.9498C16.0454 14.1223 16.1604 14.3294 16.2639 14.6169C16.3444 14.8355 16.3444 14.9045 16.3444 15.2611C16.3444 15.6061 16.3329 15.6867 16.2639 15.8822C16.1489 16.1928 16.0109 16.4113 15.7808 16.6529C15.3667 17.0785 14.8261 17.3085 14.0554 17.412C13.9174 17.4235 13.5263 17.4581 13.1812 17.4811C12.3185 17.5271 11.7434 17.6191 11.2258 17.8031C11.1568 17.8261 11.0878 17.8491 11.0763 17.8376C11.0532 17.8146 11.4098 17.6076 11.6974 17.4696C12.1 17.274 12.5141 17.1705 13.4228 17.0095C13.8714 16.9404 14.3315 16.8484 14.4465 16.8024C15.5853 16.4458 16.1489 15.5601 15.9648 14.4789Z" fill="#FF007A"/>
<path d="M17.0118 16.3305C16.7127 15.6748 16.6437 15.0537 16.8048 14.4671C16.8278 14.4096 16.8508 14.3521 16.8738 14.3521C16.8968 14.3521 16.9658 14.3866 17.0348 14.4326C17.1728 14.5246 17.4604 14.6856 18.1966 15.0882C19.1283 15.5943 19.6574 15.9854 20.0255 16.434C20.3475 16.8251 20.5431 17.2737 20.6351 17.8258C20.6926 18.1364 20.6581 18.8841 20.5776 19.1946C20.3245 20.1723 19.7494 20.9545 18.9097 21.4031C18.7832 21.4721 18.6797 21.5181 18.6682 21.5181C18.6567 21.5181 18.7027 21.4031 18.7717 21.2651C19.0478 20.6785 19.0823 20.1148 18.8752 19.4822C18.7487 19.0911 18.4841 18.6195 17.955 17.8258C17.3224 16.9056 17.1728 16.6641 17.0118 16.3305Z" fill="#FF007A"/>
<path d="M8.44175 19.8504C9.29294 19.1373 10.3397 18.6312 11.3059 18.4701C11.72 18.4011 12.4101 18.4241 12.7897 18.5276C13.3994 18.6887 13.9515 19.0337 14.239 19.4593C14.5151 19.8734 14.6416 20.23 14.7682 21.0237C14.8142 21.3343 14.8717 21.6563 14.8832 21.7253C14.9752 22.1394 15.1592 22.4615 15.3893 22.634C15.7459 22.8986 16.367 22.9101 16.9767 22.6801C17.0802 22.6455 17.1722 22.611 17.1722 22.6225C17.1952 22.6455 16.8846 22.8526 16.6776 22.9561C16.39 23.1056 16.16 23.1517 15.8494 23.1517C15.2973 23.1517 14.8257 22.8641 14.4461 22.289C14.3656 22.1739 14.2045 21.8404 14.0665 21.5298C13.6639 20.5981 13.4569 20.322 12.9853 20.0115C12.5712 19.7469 12.0421 19.6894 11.6395 19.8849C11.1103 20.138 10.9723 20.8166 11.3404 21.2307C11.4899 21.4033 11.766 21.5413 11.996 21.5758C12.4216 21.6333 12.7897 21.2997 12.7897 20.8742C12.7897 20.5981 12.6862 20.4371 12.4101 20.3105C12.0421 20.1495 11.6395 20.3335 11.651 20.6901C11.651 20.8396 11.72 20.9317 11.8695 21.0007C11.9615 21.0467 11.9615 21.0467 11.8925 21.0352C11.5589 20.9662 11.4784 20.5521 11.743 20.2875C12.0651 19.9654 12.7437 20.1035 12.9738 20.5521C13.0658 20.7361 13.0773 21.1042 12.9968 21.3343C12.8012 21.8404 12.2491 22.1049 11.6855 21.9554C11.3059 21.8519 11.1449 21.7483 10.6847 21.2767C9.87957 20.4486 9.569 20.2875 8.41874 20.115L8.2002 20.0805L8.44175 19.8504Z" fill="#FF007A"/>
<path fill-rule="evenodd" clip-rule="evenodd" d="M2.3916 1.34275C5.0717 4.59798 9.20112 9.65911 9.40816 9.93517C9.5807 10.1652 9.51169 10.3838 9.22412 10.5448C9.06309 10.6368 8.72951 10.7288 8.56848 10.7288C8.38444 10.7288 8.16589 10.6368 8.01635 10.4873C7.91283 10.3838 7.46423 9.72813 6.452 8.15227C5.68133 6.9445 5.02569 5.94378 5.01418 5.93228C4.96817 5.90927 4.96817 5.90927 6.37149 8.41683C7.25718 9.99269 7.54475 10.5563 7.54475 10.6253C7.54475 10.7749 7.49874 10.8554 7.3147 11.0624C7.00413 11.4075 6.8661 11.7986 6.76257 12.6153C6.64755 13.524 6.33698 14.1681 5.45128 15.2609C4.93367 15.905 4.85315 16.02 4.72662 16.2846C4.56558 16.6067 4.51957 16.7907 4.49657 17.2048C4.47356 17.6419 4.51957 17.918 4.6461 18.332C4.76113 18.7001 4.88766 18.9417 5.19823 19.4133C5.46278 19.8274 5.62382 20.1379 5.62382 20.253C5.62382 20.345 5.64683 20.345 6.06092 20.253C7.05014 20.0229 7.86682 19.6318 8.31542 19.1487C8.59148 18.8497 8.6605 18.6886 8.6605 18.2745C8.6605 18.01 8.649 17.9525 8.57998 17.7914C8.46495 17.5384 8.24641 17.3313 7.7748 17.0093C7.15366 16.5837 6.8891 16.2386 6.82009 15.7785C6.76257 15.3874 6.83159 15.1228 7.17667 14.3982C7.53325 13.6505 7.62527 13.3399 7.68278 12.5808C7.71729 12.0977 7.7748 11.9021 7.91283 11.7526C8.06236 11.5915 8.18889 11.534 8.54547 11.488C9.1321 11.4075 9.51169 11.258 9.81075 10.9704C10.0753 10.7288 10.1903 10.4873 10.2018 10.1307L10.2133 9.86616L10.0638 9.70512C9.52319 9.08398 2.03502 0.848145 2.00051 0.848145C1.98901 0.848145 2.17305 1.06669 2.3916 1.34275ZM5.92289 17.6994C6.04942 17.4809 5.9804 17.2048 5.77335 17.0668C5.57781 16.9402 5.27874 16.9977 5.27874 17.1703C5.27874 17.2163 5.30175 17.2623 5.37076 17.2853C5.47429 17.3428 5.48579 17.4003 5.40527 17.5269C5.32475 17.6534 5.32475 17.7684 5.42828 17.8489C5.58931 17.9755 5.80786 17.9065 5.92289 17.6994Z" fill="#FF007A"/>
<path fill-rule="evenodd" clip-rule="evenodd" d="M10.5811 11.649C10.3051 11.7295 10.0405 12.0286 9.95997 12.3276C9.91396 12.5117 9.93697 12.8452 10.0175 12.9488C10.144 13.1098 10.259 13.1558 10.5811 13.1558C11.2138 13.1558 11.7544 12.8797 11.8119 12.5462C11.8694 12.2701 11.6278 11.8905 11.2943 11.718C11.1217 11.626 10.7652 11.5915 10.5811 11.649ZM11.3173 12.2241C11.4093 12.0861 11.3748 11.9365 11.2022 11.833C10.8917 11.6375 10.4201 11.7985 10.4201 12.0976C10.4201 12.2471 10.6616 12.4081 10.8917 12.4081C11.0412 12.4081 11.2483 12.3161 11.3173 12.2241Z" fill="#FF007A"/>
</svg>
