<svg width="32" height="32" viewBox="0 0 32 32" fill="none" xmlns="http://www.w3.org/2000/svg">
<path d="M16 32C24.8667 32 32 24.8667 32 16C32 7.13328 24.8667 0 16 0C7.13328 0 0 7.13328 0 16C0 24.8667 7.13328 32 16 32Z" fill="#2775CA"/>
<path d="M20.4001 18.5328C20.4001 16.1995 19.0001 15.3995 16.2001 15.0663C14.2001 14.7995 13.8001 14.2663 13.8001 13.3328C13.8001 12.3994 14.4668 11.7995 15.8001 11.7995C17.0001 11.7995 17.6668 12.1995 18.0001 13.1995C18.0668 13.3995 18.2668 13.5328 18.4668 13.5328H19.5333C19.8001 13.5328 20.0001 13.3328 20.0001 13.0663V12.9995C19.7333 11.5328 18.5333 10.3995 17.0001 10.2663V8.66625C17.0001 8.39953 16.8001 8.19953 16.4668 8.13281H15.4668C15.2001 8.13281 15.0001 8.33281 14.9334 8.66625V10.1995C12.9334 10.4663 11.6668 11.7995 11.6668 13.4663C11.6668 15.6663 13.0001 16.5328 15.8001 16.8663C17.6668 17.1995 18.2668 17.5995 18.2668 18.6663C18.2668 19.733 17.3334 20.4663 16.0668 20.4663C14.3334 20.4663 13.7334 19.7328 13.5334 18.7328C13.4668 18.4663 13.2668 18.3328 13.0668 18.3328H11.9334C11.6668 18.3328 11.4668 18.5328 11.4668 18.7995V18.8663C11.7334 20.5328 12.8001 21.7328 15.0001 22.0663V23.6663C15.0001 23.9328 15.2001 24.1328 15.5334 24.1995H16.5334C16.8001 24.1995 17.0001 23.9995 17.0668 23.6663V22.0663C19.0668 21.7328 20.4001 20.3328 20.4001 18.5328Z" fill="white"/>
<path d="M12.5993 25.5326C7.39935 23.666 4.73263 17.866 6.66607 12.7326C7.66607 9.93258 9.86607 7.7993 12.5993 6.7993C12.8661 6.66602 12.9993 6.46602 12.9993 6.13258V5.1993C12.9993 4.93258 12.8661 4.73258 12.5993 4.66602C12.5326 4.66602 12.3993 4.66602 12.3326 4.73258C5.99935 6.73258 2.53263 13.466 4.53263 19.7993C5.73263 23.5326 8.59935 26.3993 12.3326 27.5993C12.5993 27.7326 12.8661 27.5993 12.9326 27.3326C12.9993 27.266 12.9993 27.1993 12.9993 27.066V26.1326C12.9993 25.9326 12.7993 25.666 12.5993 25.5326ZM19.6661 4.73258C19.3993 4.5993 19.1326 4.73258 19.0661 4.9993C18.9993 5.06602 18.9993 5.13258 18.9993 5.26602V6.1993C18.9993 6.46602 19.1993 6.73258 19.3993 6.86602C24.5993 8.73258 27.2661 14.5326 25.3326 19.666C24.3326 22.466 22.1326 24.5993 19.3993 25.5993C19.1326 25.7326 18.9993 25.9326 18.9993 26.266V27.1993C18.9993 27.466 19.1326 27.666 19.3993 27.7326C19.4661 27.7326 19.5993 27.7326 19.6661 27.666C25.9993 25.666 29.4661 18.9326 27.4661 12.5993C26.2661 8.7993 23.3326 5.93258 19.6661 4.73258Z" fill="white"/>
</svg>
