<svg width="32" height="32" viewBox="0 0 32 32" fill="none" xmlns="http://www.w3.org/2000/svg">
<rect x="0.5" y="16" width="22" height="22" transform="rotate(-45 0.5 16)" fill="white"/>
<mask id="mask0" mask-type="alpha" maskUnits="userSpaceOnUse" x="0" y="0" width="32" height="32">
<path d="M32 0H0V32H32V0Z" fill="#2E3035"/>
</mask>
<g mask="url(#mask0)">
<path fill-rule="evenodd" clip-rule="evenodd" d="M32 16L16 0L0 16L16 32L32 16ZM16.5729 26.2573H15.1979V24.2636C12.4708 24.0229 10.2135 22.4073 10.1333 19.7375H12.127C12.3321 21.161 13.2048 22.245 15.1616 22.4719C15.7961 22.5858 16.3573 22.5587 16.821 22.4642C18.7684 22.2437 19.5292 21.232 19.5292 19.9667C19.5292 18.7062 18.9104 17.9042 16.6417 17.3541L16.5729 17.3427V17.3433C16.1622 17.2054 15.6439 17.0868 15.0073 16.9606L14.9344 16.9417C12.0813 16.2542 10.5458 14.9823 10.5458 12.725C10.5458 10.2615 12.4822 8.63438 15.1979 8.39375V6.4H16.5729V8.38229C19.2198 8.62291 21.2822 10.2958 21.3625 12.8282H19.3687C19.2198 11.2813 18.1198 10.376 16.5729 10.1812V10.1924C16.1268 10.1171 15.6571 10.1334 15.1979 10.2184V10.1927C13.4562 10.4219 12.5396 11.4761 12.5396 12.5875C12.5396 13.6793 13.1894 14.5328 15.0369 15.0215C15.4443 15.1609 15.9542 15.2868 16.5729 15.3689V15.3948L16.9281 15.475C19.873 16.1854 21.5229 17.4 21.5229 19.8063C21.5229 22.5677 19.2771 24.0688 16.5729 24.275V26.2573Z" fill="#05B595"/>
<mask id="mask1" mask-type="alpha" maskUnits="userSpaceOnUse" x="-1" y="0" width="34" height="19">
<path fill-rule="evenodd" clip-rule="evenodd" d="M8.07491 13.5066C5.86638 13.4748 3.23678 14.1002 -0.143277 16.1205C-0.429011 15.7641 0.732216 14.7655 0.533563 14.4002C0.534691 13.8686 2.66631 12.5553 2.66691 12.2669C8.00024 8.53357 13.8669 0.533335 16.0002 0C19.1898 2.7507 24.8228 8.70145 30.9336 12.8005C30.9423 13.0071 30.9301 13.0218 30.9336 13.3344C30.9325 13.8678 31.4684 14.2449 31.4669 14.9339C30.6689 14.057 32.7222 15.6407 32.7173 15.729C29.1277 17.5885 26.1073 18.178 23.3839 18.0096C20.3475 17.8217 17.81 16.6887 15.5143 15.6638C15.4268 15.6247 15.3396 15.5858 15.2528 15.5471C12.8315 14.4677 10.6512 13.5436 8.07491 13.5066Z" fill="#2E3035"/>
</mask>
<g mask="url(#mask1)">
<path fill-rule="evenodd" clip-rule="evenodd" d="M32 16L16 0L0 16L16 32L32 16ZM16.5732 26.2573H15.1982V24.2636C12.4711 24.0229 10.2138 22.4073 10.1336 19.7375H12.1274C12.3335 21.1698 13.2159 22.2583 15.1982 22.4761V22.459C15.8937 22.5949 16.4855 22.5588 16.9579 22.4471C18.8044 22.1955 19.5294 21.2019 19.5294 19.9667C19.5294 18.7062 18.9107 17.9042 16.6419 17.3541L16.5732 17.3427V17.3433C16.1626 17.2054 15.6443 17.0868 15.0075 16.9606L14.9346 16.9417C12.0815 16.2542 10.5461 14.9823 10.5461 12.725C10.5461 10.2615 12.4826 8.63438 15.1982 8.39375V6.4H16.5732V8.38229C19.2201 8.62291 21.2826 10.2958 21.3628 12.8282H19.369C19.2201 11.2813 18.12 10.376 16.5732 10.1812C16.1309 10.1207 15.6576 10.137 15.1982 10.2122V10.1927C13.4565 10.4219 12.5398 11.4761 12.5398 12.5875C12.5398 13.6411 13.145 14.4726 14.8474 14.9689C15.2773 15.1359 15.8461 15.2898 16.5732 15.3809V15.3948L16.9284 15.475C19.8732 16.1854 21.5232 17.4 21.5232 19.8063C21.5232 22.5677 19.2773 24.0688 16.5732 24.275V26.2573Z" fill="#00FEB5"/>
</g>
</g>
</svg>
