<svg xmlns="http://www.w3.org/2000/svg" width="233" height="233" fill="none" viewBox="0 0 233 233">
  <path fill="#2C374B" d="M116.5 233c64.341 0 116.5-52.159 116.5-116.5C233 52.159 180.841 0 116.5 0 52.159 0 0 52.159 0 116.5 0 180.841 52.159 233 116.5 233Z"/>
  <path fill="#2D374B" d="m137.391 108.529 13.614-23.101 36.696 57.155.018 10.969-.12-75.48a5.69 5.69 0 0 0-2.63-4.527l-66.067-38.002c-1.545-.76-3.505-.752-5.047.023a5.9 5.9 0 0 0-.592.341l-.23.145-64.128 37.162-.25.113c-.32.147-.643.334-.946.552a5.667 5.667 0 0 0-2.367 4.275l.101 61.508 34.18-52.979c4.304-7.025 13.68-9.287 22.384-9.164l10.216.27-60.19 96.529 7.094 4.085L120.04 77.886l26.923-.097-60.755 103.053 28.343 16.302a5.809 5.809 0 0 0 4.078.08l66.995-38.824-12.808 7.422-35.425-57.293Zm5.194 74.813-25.572-40.136 15.61-26.488 33.584 52.934-23.622 13.69Z"/>
  <path fill="#28A0F0" d="m117.013 143.206 25.572 40.136 23.622-13.69-33.584-52.934-15.61 26.488Zm70.706 10.346-.018-10.969-36.696-57.155-13.614 23.101 35.425 57.293 12.808-7.422a5.675 5.675 0 0 0 2.097-4.134l-.002-.714Z"/>
  <path fill="#fff" d="m33.944 163.896 18.088 10.422 60.191-96.53-10.216-.27c-8.703-.122-18.08 2.14-22.383 9.165l-34.18 52.979-11.5 17.669v6.565Zm113.019-86.107-26.923.097-60.913 100.517 21.29 12.259 5.79-9.82 60.756-103.053Z"/>
  <path fill="#96BEDC" d="M199.064 77.65c-.225-5.63-3.273-10.785-8.049-13.786l-66.932-38.491c-4.724-2.38-10.626-2.382-15.357-.002-.559.282-65.091 37.709-65.091 37.709-.897.43-1.754.938-2.563 1.517-4.263 3.055-6.861 7.802-7.128 13.019v79.715l11.5-17.668-.102-61.508c.014-.223.042-.445.082-.665a5.661 5.661 0 0 1 2.285-3.611c.303-.218 65.937-38.208 66.146-38.313 1.542-.775 3.502-.783 5.047-.023l66.067 38.003a5.683 5.683 0 0 1 2.63 4.528v76.193c-.08 1.616-.718 3.112-1.975 4.133l-12.808 7.422-30.231 17.52-23.956 13.882a5.809 5.809 0 0 1-4.078-.08l-28.343-16.302-5.79 9.82 25.47 14.665c.843.479 1.593.904 2.209 1.25.954.535 1.603.892 1.833 1.003 1.81.879 4.415 1.391 6.762 1.391a17.03 17.03 0 0 0 6.237-1.173l69.58-40.296c3.994-3.094 6.344-7.76 6.555-12.815V77.65Z"/>
</svg>
