<svg xmlns="http://www.w3.org/2000/svg" width="405" height="405" fill="none"><circle cx="202.5" cy="202.5" r="202.5" fill="#2C374B"/><path fill="#2D374B" d="m238.812 188.644 23.665-40.154 63.785 99.348.03 19.065-.208-131.197a9.886 9.886 0 0 0-4.571-7.871L206.676 61.78c-2.686-1.32-6.093-1.306-8.774.04-.354.178-.697.376-1.028.594l-.4.252-111.468 64.595-.433.196c-.556.256-1.118.581-1.646.959a9.851 9.851 0 0 0-3.971 6.271c-.07.384-.117.771-.142 1.16l.175 106.913 59.413-92.087c7.48-12.211 23.778-16.144 38.907-15.93l17.757.469L90.442 302.999l12.333 7.101 105.878-174.718 46.798-.17-105.605 179.127 44.008 25.312 5.258 3.024c2.224.904 4.846.949 7.089.14l116.451-67.485-22.264 12.901-61.576-99.587Zm9.029 130.04-44.449-69.763 27.133-46.042 58.375 92.009-41.059 23.796Z"/><path fill="#28A0F0" d="m203.392 248.921 44.449 69.762 41.06-23.795-58.375-92.009-27.134 46.042Zm122.9 17.982-.03-19.065-63.785-99.348-23.665 40.154 61.576 99.587 22.264-12.901a9.854 9.854 0 0 0 3.644-7.185l-.004-1.242Z"/><path fill="#fff" d="m59.001 284.883 31.44 18.116 104.624-167.786-17.757-.469c-15.129-.214-31.426 3.719-38.907 15.93L78.988 242.76 59 273.472v11.411h.001Zm196.449-149.67-46.797.17-105.878 174.718 37.007 21.307 10.064-17.069L255.45 135.213Z"/><path fill="#96BEDC" d="M346.013 134.971c-.391-9.787-5.69-18.746-13.991-23.962L215.68 44.103c-8.211-4.135-18.469-4.14-26.693-.003-.972.49-113.141 65.545-113.141 65.545a29.77 29.77 0 0 0-4.454 2.637c-7.41 5.311-11.927 13.562-12.391 22.629v138.561l19.988-30.71-.175-106.913c.024-.388.072-.774.142-1.156a9.838 9.838 0 0 1 3.971-6.276c.528-.378 114.612-66.413 114.975-66.596 2.682-1.346 6.089-1.36 8.774-.04l114.837 66.056a9.887 9.887 0 0 1 4.571 7.871v132.438c-.139 2.809-1.249 5.411-3.433 7.185l-22.264 12.901-11.487 6.658-41.06 23.794-41.64 24.132c-2.243.81-4.865.765-7.089-.14l-49.266-28.336-10.064 17.068 44.274 25.491c1.464.832 2.769 1.571 3.839 2.173 1.658.93 2.787 1.55 3.186 1.743 3.147 1.528 7.674 2.418 11.754 2.418 3.741 0 7.388-.687 10.84-2.039l120.945-70.042c6.942-5.378 11.026-13.489 11.394-22.276V134.971Z"/></svg>
