<svg xmlns="http://www.w3.org/2000/svg" viewBox="0 0 808 808">
  <path fill="#5deb5a" d="M402.91 204.91c18.68 0 35.48 10.38 43.84 27.09L584.6 507.71c7.65 15.31 6.85 33.13-2.14 47.69-9 14.56-24.58 23.25-41.7 23.25h-275.7c-17.11 0-32.7-8.69-41.69-23.25-9-14.56-9.8-32.38-2.14-47.69L359.07 232c8.36-16.71 25.16-27.09 43.84-27.09m0-33.7c-31.33 0-59.97 17.7-73.98 45.72L191.08 492.64a82.705 82.705 0 0 0 3.62 80.47 82.721 82.721 0 0 0 70.36 39.23h275.71c28.67 0 55.29-14.84 70.36-39.23a82.705 82.705 0 0 0 3.62-80.47L476.89 216.93c-14.01-28.02-42.65-45.72-73.98-45.72Z"/>
</svg>
