<svg viewBox="0 0 22 22" fill="none" xmlns="http://www.w3.org/2000/svg">
<circle cx="11" cy="11" r="11" fill="white"/>
<path d="M8.0626 9.79315L11 6.85575L13.9388 9.79442L15.6479 8.08529L11 3.4375L6.3536 8.0839L8.06266 9.79303L8.0626 9.79315ZM3.4375 11L5.14669 9.29057L6.85575 10.9996L5.14656 12.7088L3.4375 11ZM8.0626 12.207L11 15.1442L13.9387 12.2056L15.6488 13.9139L15.6479 13.9148L11 18.5625L6.3536 13.9161L6.35118 13.9137L8.06279 12.2069L8.0626 12.207ZM15.1442 11.0007L16.8534 9.29154L18.5625 11.0006L16.8534 12.7098L15.1442 11.0007Z" fill="#F3BA2F"/>
<path d="M12.7335 10.9991H12.7343L11.0001 9.26477L9.71828 10.5462L9.57102 10.6935L9.26731 10.9973L9.26489 10.9997L9.26731 11.0021L11.0001 12.7352L12.7344 11.0009L12.7352 10.9999L12.7337 10.9991" fill="#F3BA2F"/>
</svg>
