<svg xmlns="http://www.w3.org/2000/svg" width="99" height="99" fill="none" viewBox="0 0 99 99">
  <path fill="url(#a234234)" d="M77.644 0a21.316 21.316 0 0 0-15.085 6.244 21.434 21.434 0 0 0-6.277 15.105v23.67c-2.2.15-4.45.244-6.782.244s-4.57.093-6.782.226v-24.14a21.45 21.45 0 0 0-6.375-14.924A21.332 21.332 0 0 0 21.359.272 21.332 21.332 0 0 0 6.376 6.425 21.45 21.45 0 0 0 0 21.349v56.574a21.449 21.449 0 0 0 6.376 14.924A21.332 21.332 0 0 0 21.359 99c5.606 0 10.988-2.21 14.984-6.153a21.45 21.45 0 0 0 6.375-14.924v-23.67c2.2-.15 4.45-.243 6.782-.243s4.57-.094 6.782-.227v24.14a21.45 21.45 0 0 0 6.375 14.924A21.332 21.332 0 0 0 77.641 99c5.606 0 10.987-2.21 14.983-6.153A21.45 21.45 0 0 0 99 77.923V21.349a21.434 21.434 0 0 0-6.275-15.103A21.316 21.316 0 0 0 77.644 0ZM21.356 8.747a12.583 12.583 0 0 1 8.902 3.687 12.652 12.652 0 0 1 3.704 8.915v25.066a71.697 71.697 0 0 0-18.15 5.146 32.982 32.982 0 0 0-7.04 4.213V21.35a12.653 12.653 0 0 1 3.697-8.907 12.583 12.583 0 0 1 8.888-3.695Zm12.606 69.176c0 3.352-1.328 6.568-3.692 8.938a12.588 12.588 0 0 1-8.913 3.703c-3.344 0-6.55-1.332-8.914-3.703a12.658 12.658 0 0 1-3.692-8.938v-5.675c0-5.013 3.96-9.762 10.598-12.718a62.018 62.018 0 0 1 14.613-4.285v22.678Zm43.681 12.602a12.583 12.583 0 0 1-8.901-3.687 12.652 12.652 0 0 1-3.705-8.915V52.857a71.697 71.697 0 0 0 18.15-5.146 32.982 32.982 0 0 0 7.04-4.213v34.425a12.653 12.653 0 0 1-3.696 8.907 12.583 12.583 0 0 1-8.888 3.695Zm2.008-50.816a62.018 62.018 0 0 1-14.614 4.285V21.349a12.671 12.671 0 0 1 3.693-8.938 12.604 12.604 0 0 1 8.913-3.703 12.576 12.576 0 0 1 8.914 3.703 12.643 12.643 0 0 1 3.692 8.938v5.675c0 4.991-3.96 9.74-10.598 12.685Z"/>
  <defs>
    <linearGradient id="a234234" x1="6.27" x2="92.401" y1="91.624" y2="5.494" gradientUnits="userSpaceOnUse">
      <stop stop-color="#00AEE9"/>
      <stop offset="1" stop-color="#69FABD"/>
    </linearGradient>
  </defs>
</svg>
