<svg version="1.1" id="Layer_1" xmlns="http://www.w3.org/2000/svg" x="0" y="0" viewBox="0 0 252.3 332.7" xml:space="preserve"><style>.st0{fill:#7c8398}</style><path class="st0" d="M18 188.2c-3.6 0-6.5 2.9-6.5 6.5v55.8c0 3.6 2.9 6.5 6.5 6.5s6.5-2.9 6.5-6.5v-55.8c-.1-3.6-3-6.5-6.5-6.5zM48.1 170c-3.6 0-6.5 2.9-6.5 6.5v79.3c0 3.6 2.9 6.5 6.5 6.5s6.5-2.9 6.5-6.5v-79.3c0-3.6-2.9-6.5-6.5-6.5zM78.3 161.9c-3.6 0-6.5 2.9-6.5 6.5v157.9c0 3.6 2.9 6.5 6.5 6.5s6.5-2.9 6.5-6.5v-158c0-3.5-2.9-6.4-6.5-6.4zM108.5 173.8c-3.6 0-6.5 2.9-6.5 6.5v62.4c0 3.6 2.9 6.5 6.5 6.5s6.5-2.9 6.5-6.5v-62.4c-.1-3.6-3-6.5-6.5-6.5zM138.6 191.5c-3.6 0-6.5 2.9-6.5 6.5v17.3c0 3.6 2.9 6.5 6.5 6.5s6.5-2.9 6.5-6.5V198c0-3.6-2.9-6.5-6.5-6.5zM168.8 201.5c-3.6 0-6.5 2.9-6.5 6.5v86.1c0 3.6 2.9 6.5 6.5 6.5s6.5-2.9 6.5-6.5V208c0-3.6-2.9-6.5-6.5-6.5zM199 202.5c-3.6 0-6.5 2.9-6.5 6.5v78.2c0 3.6 2.9 6.5 6.5 6.5s6.5-2.9 6.5-6.5V209c-.1-3.6-3-6.5-6.5-6.5zM229.1 196.3c-3.6 0-6.5 2.9-6.5 6.5v39.1c0 3.6 2.9 6.5 6.5 6.5s6.5-2.9 6.5-6.5v-39.1c0-3.6-2.9-6.5-6.5-6.5z"/><path class="st0" d="M251.1 162.2c-2-2.9-6.1-3.7-9-1.6-35.2 24.3-77.1 24.3-112.3 0-39.8-27.5-87.3-27.5-127 0-2.9 2-3.7 6.1-1.6 9 2 2.9 6.1 3.7 9 1.6 35.2-24.3 77.1-24.3 112.3 0 19.9 13.8 41.7 20.6 63.5 20.6s43.6-6.9 63.5-20.6c2.9-2 3.7-6 1.6-9z"/><path class="st0" d="M137.2 149.9c31 21.5 66.6 21.5 97.6 0 .2-.1.4-.3.6-.4.5-.3 4.3-2.7 10.5-6.2 1.1-6.6 1.8-13.3 1.8-20.2C247.7 55.1 192.5 0 124.5 0S1.4 55.1 1.4 123.1c0 7.4.8 14.6 2 21.7 42.7-25.4 92-23.7 133.8 5.1z"/></svg>