
<svg viewBox="0 0 24 24" fill="none" xmlns="http://www.w3.org/2000/svg">
<path d="M12 24C18.6274 24 24 18.6274 24 12C24 5.37258 18.6274 0 12 0C5.37258 0 0 5.37258 0 12C0 18.6274 5.37258 24 12 24Z" fill="#FF0420"/>
<path d="M8.50238 15.1894C7.78785 15.1894 7.20244 15.0213 6.74611 14.685C6.29577 14.3428 6.0706 13.8564 6.0706 13.226C6.0706 13.0939 6.08563 12.9317 6.11563 12.7396C6.19372 12.3073 6.30479 11.7879 6.44889 11.1815C6.85718 9.53026 7.91097 8.70466 9.61022 8.70466C10.0726 8.70466 10.4868 8.7827 10.8531 8.9388C11.2194 9.0889 11.5076 9.31709 11.7178 9.62333C11.9279 9.92352 12.033 10.2838 12.033 10.7041C12.033 10.8302 12.018 10.9893 11.9879 11.1815C11.8979 11.7158 11.7898 12.2352 11.6637 12.7396C11.4536 13.5622 11.0903 14.1777 10.5739 14.586C10.0575 14.9882 9.36705 15.1894 8.50238 15.1894ZM8.62847 13.8924C8.96476 13.8924 9.24993 13.7934 9.48412 13.5952C9.72431 13.3971 9.89543 13.0939 9.99748 12.6856C10.1356 12.1212 10.2407 11.6288 10.3127 11.2085C10.3367 11.0824 10.3487 10.9533 10.3487 10.8212C10.3487 10.2748 10.0635 10.0016 9.49315 10.0016C9.15686 10.0016 8.86867 10.1006 8.62847 10.2988C8.39433 10.497 8.22619 10.8002 8.12414 11.2085C8.01604 11.6108 7.90795 12.1032 7.7999 12.6856C7.77585 12.8056 7.76385 12.9317 7.76385 13.0638C7.76385 13.6163 8.05209 13.8924 8.62847 13.8924Z" fill="white"/>
<path d="M12.4466 15.0994C12.3805 15.0994 12.3294 15.0783 12.2934 15.0363C12.2634 14.9882 12.2544 14.9342 12.2664 14.8742L13.5093 9.01987C13.5213 8.95382 13.5543 8.89978 13.6084 8.85773C13.6624 8.81573 13.7195 8.7947 13.7795 8.7947H16.1753C16.8418 8.7947 17.3762 8.9328 17.7784 9.20899C18.1868 9.48523 18.3909 9.8845 18.3909 10.4069C18.3909 10.557 18.3729 10.7131 18.3369 10.8752C18.1868 11.5657 17.8836 12.0761 17.4272 12.4064C16.9769 12.7366 16.3584 12.9017 15.5718 12.9017H14.3559L13.9417 14.8742C13.9296 14.9402 13.8966 14.9942 13.8426 15.0363C13.7885 15.0783 13.7315 15.0994 13.6715 15.0994H12.4466ZM15.6349 11.6588C15.887 11.6588 16.1062 11.5897 16.2924 11.4516C16.4845 11.3136 16.6106 11.1154 16.6706 10.8572C16.6886 10.7551 16.6977 10.6651 16.6977 10.587C16.6977 10.4129 16.6466 10.2808 16.5446 10.1907C16.4425 10.0946 16.2684 10.0466 16.0222 10.0466H14.9414L14.5991 11.6588H15.6349Z" fill="white"/>
</svg>
