<svg width="150" height="150" viewBox="0 0 150 150" fill="none" xmlns="http://www.w3.org/2000/svg">
<rect width="150" height="150" rx="75" fill="white"/>
<path d="M87.7668 69.7595C91.2162 66.31 94.732 62.9269 98.1814 59.4775C104.019 53.7726 109.724 47.9351 115.495 42.2303C119.143 38.6482 124.782 39.5105 127.037 43.8887C127.502 44.8174 127.767 45.8124 127.767 46.8738V103.789C127.767 107.504 124.915 110.489 121.2 110.755H47.3685C47.5012 110.622 47.5012 110.423 47.5675 110.357L53.4051 104.519C54.7318 103.391 55.9258 102.131 56.9872 100.738C57.2525 100.539 57.4515 100.34 57.7168 100.141L65.2791 92.5788C66.0751 91.7828 66.0088 91.7828 66.6058 92.7115C68.1315 95.1659 69.5909 97.4876 71.1166 99.942C71.3156 100.274 71.4483 100.473 71.8463 100.473C73.9027 100.473 75.8264 100.473 77.8828 100.34C79.6075 100.473 81.3322 100.539 83.057 100.473C84.649 100.539 86.241 100.473 87.8331 100.34C88.0321 100.34 88.2311 100.473 88.4301 100.473H117.021C117.75 100.473 117.817 100.141 117.817 99.544V55.3647C117.817 55.033 118.016 54.7677 117.618 54.5686C117.22 54.3696 117.087 54.7677 116.888 54.9667L99.1101 72.7445C95.329 76.393 91.6806 80.1741 87.8994 83.8889C87.8331 83.6899 87.7668 83.4909 87.7668 83.2919V70.4228C87.7004 70.3565 87.7004 70.0248 87.7668 69.7595Z" fill="#1D2939"/>
<path d="M87.7004 100.539C86.1084 100.672 84.5164 100.672 82.9243 100.672C81.1996 100.738 79.4749 100.672 77.7501 100.539V70.2238C77.4185 70.3565 77.0868 70.6218 76.8215 70.9535C72.7087 75.0663 68.6622 79.1127 64.4831 83.2255C58.9772 88.7314 53.3387 94.2372 47.8329 99.8757C47.6339 100.075 47.3022 100.207 47.4349 100.473C47.5676 100.738 47.9656 100.672 48.2309 100.672H55.9921C56.3238 100.672 56.5892 100.539 56.9208 100.871C55.8595 102.197 54.6654 103.458 53.3387 104.652L47.5012 110.489C47.3685 110.622 47.3685 110.688 47.3022 110.887H23.8195C23.4878 110.887 23.0898 111.086 23.0235 110.688C22.8908 110.29 23.3551 110.158 23.5542 109.959L65.4781 68.0347C68.8612 64.6516 72.178 61.3349 75.5611 58.0181C76.9541 56.426 78.9442 55.63 81.0669 55.6964C84.7154 55.7627 87.6341 58.6814 87.7668 62.3299C87.8995 64.917 87.7668 67.305 87.8995 69.8921C87.8995 70.2238 87.7668 70.4891 87.7668 70.6881V83.4909C87.7668 83.6899 87.7668 83.8889 87.8995 84.0879V94.1709C87.7004 96.2273 87.7004 98.4163 87.7004 100.539Z" fill="#3DD4ED"/>
</svg>
