<svg width="150" height="150" viewBox="0 0 150 150" fill="none" xmlns="http://www.w3.org/2000/svg">
<rect width="150" height="150" rx="75" fill="white"/>
<g clip-path="url(#clip0_17_19)">
<path d="M106.268 73.9202C110.624 68.4262 112.989 61.6248 112.978 54.6214C112.978 37.3937 98.9771 24 81.7043 24H43.7285V27.8964H80.8624C96.1278 27.8964 108.503 39.6809 108.503 54.9C108.513 60.8166 106.604 66.5778 103.062 71.325L106.268 73.9202Z" fill="#55A49F"/>
<path d="M102.032 70.6946C106.188 66.4823 108.514 60.8085 108.507 54.9C108.507 48.92 106.124 43.1849 101.883 38.956C97.6424 34.7272 91.8902 32.3509 85.892 32.35H53.7803V36.25H86.7266C89.1474 36.2486 91.5448 36.7227 93.7818 37.6453C96.0187 38.5679 98.0515 39.9209 99.7638 41.627C101.476 43.3331 102.834 45.3588 103.761 47.5885C104.688 49.8181 105.165 52.2079 105.165 54.6214C105.168 57.3012 104.582 59.9491 103.447 62.3785C102.313 64.8079 100.657 66.9596 98.5984 68.6822L102.032 70.6946Z" fill="#4A8C89"/>
<path d="M95.8373 67.7548C101.121 65.4529 105.165 60.4385 105.165 54.6214C105.165 46.627 97.5469 40.1464 89.5282 40.1464H61.5969V42.3714H89.2414C95.8594 42.3714 102.363 47.734 102.363 54.3428C102.363 59.6981 98.1058 64.2396 92.9622 65.7608L95.8373 67.7548Z" fill="#5AABA5"/>
<path d="M32.5588 123.104H38.7025V127H32.5588V123.104Z" fill="#4A8C8A"/>
<path d="M38.7025 115.307H63.2734V118.089H38.7025V115.307Z" fill="#5AABA6"/>
<path d="M38.7025 98.05H64.9499V100.279H38.7025V98.05Z" fill="#4B8F8E"/>
<path d="M69.9759 98.05H86.7303V100.279H69.9759V98.05Z" fill="#7CC6C7"/>
<path d="M43.7285 90.2536H52.6627V92.4822H43.7285V90.2536Z" fill="#5AB5B4"/>
<path d="M57.6886 90.2536H86.7266V92.4822H57.6886V90.2536Z" fill="#428989"/>
<path d="M67.1816 55.1786H86.1678V57.4072H67.1816V55.1786Z" fill="#549391"/>
<path d="M44.8461 40.1464H55.4569V42.3751H44.8461V40.1464Z" fill="#306563"/>
<path d="M47.6367 48.4964H86.7266V50.725H47.6367V48.4964Z" fill="#64B9B9"/>
<path d="M37.5848 55.1786H61.5969V57.4072H37.5848V55.1786Z" fill="#7FD6D5"/>
<path d="M44.2873 122.546V126.443H86.7266C104.007 126.443 118 113.042 118 95.8214C118 87.5524 114.705 79.622 108.84 73.7748C102.975 67.9277 95.0208 64.6429 86.7266 64.6429H59.3651V67.9858H85.892C93.2232 67.9867 100.254 70.8909 105.437 76.0594C110.621 81.228 113.533 88.2376 113.533 95.5465C113.533 110.769 101.157 122.55 85.892 122.55L44.2873 122.546Z" fill="#55A49F"/>
<path d="M50.9861 72.9928V76.8929H91.7526C94.1728 76.8924 96.5694 77.3672 98.8055 78.2903C101.042 79.2133 103.073 80.5665 104.785 82.2724C106.496 83.9784 107.854 86.0038 108.78 88.233C109.707 90.4622 110.183 92.8514 110.183 95.2643C110.183 100.138 108.242 104.811 104.785 108.257C101.329 111.703 96.6408 113.639 91.7526 113.639H67.7405V118.093H90.9033C93.8734 118.093 96.8145 117.51 99.5585 116.376C102.302 115.243 104.796 113.582 106.896 111.488C108.996 109.394 110.661 106.908 111.798 104.172C112.934 101.436 113.519 98.504 113.518 95.5428C113.518 89.5628 111.136 83.8277 106.895 79.5989C102.654 75.37 96.9015 72.9938 90.9033 72.9928H50.9861Z" fill="#4A8C89"/>
<path d="M62.7146 81.3464V83.5714H94.2674C100.885 83.5714 107.389 88.934 107.389 95.5428C107.389 102.141 100.9 107.514 94.2674 107.514H32V110.296H94.5468C102.566 110.296 110.183 103.816 110.183 95.8214C110.183 87.827 102.566 81.3464 94.5468 81.3464H62.7146Z" fill="#5AABA5"/>
</g>
<defs>
<clipPath id="clip0_17_19">
<rect width="86" height="103" fill="white" transform="translate(32 24)"/>
</clipPath>
</defs>
</svg>
