<svg width="150" height="150" viewBox="0 0 150 150" fill="none" xmlns="http://www.w3.org/2000/svg">
<rect width="150" height="150" rx="75" fill="white"/>
<path d="M92.0249 62.1232C88.176 58.3695 83.0059 56.2675 77.6219 56.2675C72.2378 56.2675 67.0678 58.3695 63.2188 62.1232C61.3324 64.0022 59.8373 66.2347 58.8196 68.6921C57.8019 71.1495 57.2818 73.7834 57.289 76.4421C57.2962 79.1007 57.8308 81.7317 58.8618 84.1836C59.8929 86.6355 61.4001 88.8598 63.2968 90.7286C67.1346 94.5279 72.3185 96.6676 77.7266 96.6845C83.1348 96.7015 88.3321 94.5944 92.1938 90.8192C92.3366 90.6768 92.8951 90.0681 93.8821 88.9804L84.2714 79.4625C83.2844 80.6021 82.7649 81.1978 82.7 81.2496C81.3956 82.5433 79.6306 83.2695 77.7907 83.2695C75.9509 83.2695 74.1859 82.5433 72.8815 81.2496C71.5869 79.9819 70.8502 78.2537 70.8331 76.4446C70.8161 74.6356 71.5201 72.8939 72.7906 71.6022C74.1018 70.3423 75.8559 69.6449 77.6767 69.6594C79.4976 69.6739 81.2403 70.3993 82.5311 71.6799L108.22 97.0997C104.672 102.161 99.9543 106.297 94.4663 109.159C88.9782 112.022 82.8803 113.526 76.6868 113.546C70.1806 113.548 63.7821 111.889 58.1005 108.728C52.4189 105.567 47.6434 101.009 44.2286 95.4868C40.8138 89.9649 38.8733 83.6634 38.592 77.1822C38.3107 70.7011 39.6978 64.256 42.6214 58.4606C45.545 52.6652 49.9076 47.7124 55.294 44.0737C60.6804 40.4351 66.9113 38.2316 73.3934 37.6732C79.8755 37.1149 86.393 38.2201 92.3255 40.8837C98.258 43.5473 103.408 47.6807 107.285 52.8902C106.16 54.2025 103.263 57.47 98.5966 62.693L108.116 72.0295L123.805 54.483C120.012 46.0227 114 38.7396 106.402 33.4017C98.8049 28.0638 89.9036 24.8688 80.637 24.1536C71.3705 23.4384 62.0821 25.2296 53.7512 29.3382C45.4203 33.4469 38.3557 39.7207 33.3022 47.4983C28.2486 55.2758 25.3935 64.2689 25.0378 73.5292C24.6822 82.7895 26.8391 91.9739 31.2812 100.114C35.7234 108.254 42.2861 115.048 50.2774 119.78C58.2687 124.512 67.3925 127.006 76.6868 127C89.6742 127 100.415 122.973 110.922 114.051C116.963 108.744 121.768 102.186 125 94.8335L92.0249 62.1232Z" fill="url(#paint0_linear_18_7)"/>
<defs>
<linearGradient id="paint0_linear_18_7" x1="123.484" y1="78.4856" x2="23.5443" y2="78.4856" gradientUnits="userSpaceOnUse">
<stop stop-color="#22E6B8"/>
<stop offset="1" stop-color="#00C1CE"/>
</linearGradient>
</defs>
</svg>
