<svg width="561" height="561" viewBox="0 0 561 561" fill="none" xmlns="http://www.w3.org/2000/svg">
<path d="M220.4 276.1L215.55 271.218C211.878 267.551 205.57 270.148 205.57 275.348V345.071C205.57 348.291 208.212 350.911 211.44 350.911H281.18C286.38 350.911 288.997 344.613 285.3 340.951C283.02 338.671 283.02 334.979 285.3 332.704L359.476 258.3C361.761 256.033 361.761 252.342 359.476 250.052L352.718 243.319C349.046 239.651 351.663 233.352 356.848 233.352H426.546C429.769 233.352 432.406 235.969 432.406 239.192V308.909C432.406 314.109 426.086 316.712 422.406 313.039L417.708 308.343C415.413 305.999 411.722 305.999 409.476 308.343L284.416 433.343C282.146 435.618 278.46 435.618 276.16 433.343L123.158 280.34C120.858 278.04 120.858 274.343 123.158 272.058L334.965 60.2601C337.24 57.9801 337.24 54.26 334.965 51.99L285.16 2.19005C282.88 -0.0799512 279.188 -0.0799512 276.898 2.19005L2.69798 276.4C0.427983 278.68 0.427983 282.4 2.69798 284.67L276.87 558.84C279.15 561.106 282.872 561.106 285.142 558.84L559.3 284.67C561.566 282.39 561.566 278.69 559.3 276.418L398.002 115.118C395.746 112.848 392.035 112.848 389.75 115.118L228.7 276.102C226.4 278.402 222.7 278.402 220.4 276.102V276.1Z" fill="#DE5959"/>
</svg>
