<svg width="150" height="150" viewBox="0 0 150 150" fill="none" xmlns="http://www.w3.org/2000/svg">
<rect width="150" height="150" rx="75" fill="white"/>
<path d="M87 52.3219C87 35.9507 79.398 21.7725 73.2697 16.5449C72.8691 16.2032 72.2243 15.9552 72.2243 16.4817V16.4817C71.7058 49.1978 55.202 58.1361 46.0428 70.025C25.0457 97.6211 44.5738 127.821 64.4476 133.374C75.5942 136.499 61.8554 127.821 60.1272 109.597C58.0534 87.4678 87 70.6325 87 52.3219" fill="#282E5B"/>
<path d="M97.8177 63.0654C97.7491 62.9964 97.6261 62.982 97.4918 63.0222C97.4713 63.0284 97.3262 63.1237 97.3112 63.1389V63.1389C97.308 63.142 97.2972 63.1549 97.2969 63.1593C96.9457 67.2637 92.4385 76.1597 86.8053 84.271C67.642 111.847 78.5677 125.111 84.7242 132.267C88.2794 136.456 84.7242 132.267 93.6555 127.991C94.3492 127.642 110.998 118.741 112.819 98.5826C114.64 78.9478 102.24 66.6433 97.8177 63.0654" fill="#059BDC"/>
</svg>
