<svg width="150" height="150" viewBox="0 0 150 150" fill="none" xmlns="http://www.w3.org/2000/svg">
<rect width="150" height="150" rx="75" fill="white"/>
<path d="M130.2 88.9498L105.785 46.619C100.394 37.8199 87.3936 37.6614 82.241 47.0154L56.5572 91.0901C51.801 99.1757 57.667 109.322 67.2588 109.322H118.626C128.297 109.322 135.511 98.8586 130.2 88.9498Z" fill="#00B897"/>
<path d="M94.9244 92.2791L93.4183 89.6632C91.9914 87.2058 88.8998 81.9739 88.8998 81.9739L68.2101 46.0641C64.088 39.8017 55.6853 38.137 49.4229 42.2591C47.4411 43.5275 45.8557 45.3507 44.8251 47.491L20.806 89.1083C17.0803 95.5292 19.2999 103.773 25.8001 107.499C27.8611 108.688 30.16 109.322 32.5381 109.322H118.389C105.15 109.402 100.949 102.505 94.9244 92.2791Z" fill="#76FCB2"/>
<path d="M94.9244 92.2791L93.4183 89.6632C91.9914 87.2058 88.8998 81.9739 88.8998 81.9739L75.5823 58.5097L56.3987 91.1693C51.6424 99.255 57.5085 109.402 67.1003 109.402H118.389C105.071 109.322 100.949 102.505 94.9244 92.2791Z" fill="url(#paint0_linear_14_18)"/>
<defs>
<linearGradient id="paint0_linear_14_18" x1="49.6351" y1="76.3346" x2="108.985" y2="98.2609" gradientUnits="userSpaceOnUse">
<stop stop-color="#53E57A" stop-opacity="0"/>
<stop offset="1" stop-color="#00A977"/>
</linearGradient>
</defs>
</svg>
