<svg width="150" height="150" viewBox="0 0 150 150" fill="none" xmlns="http://www.w3.org/2000/svg">
<rect width="150" height="150" rx="75" fill="white"/>
<path d="M69.2041 68.2028C73.3422 69.2161 77.6637 69.2161 81.8018 68.2028C82.9581 63.5004 85.3797 59.2043 88.8039 55.7802C92.2281 52.3561 96.5243 49.9346 101.227 48.7782C102.18 44.8802 102.235 40.8165 101.387 36.8941C100.539 32.9718 98.8111 29.2934 96.3333 26.1368C93.8555 22.9802 90.6927 20.428 87.0838 18.673C83.475 16.918 79.5145 16.006 75.5015 16.006C71.4885 16.006 67.528 16.918 63.9191 18.673C60.3102 20.428 57.1474 22.9802 54.6696 26.1368C52.1918 29.2934 50.4637 32.9718 49.616 36.8941C48.7683 40.8165 48.823 44.8802 49.7761 48.7782C54.4796 49.9332 58.7769 52.3542 62.2018 55.7785C65.6267 59.2028 68.0484 63.4996 69.2041 68.2028V68.2028Z" fill="#7ABDF7"/>
<path d="M81.8018 80.7943C77.6637 79.781 73.3422 79.781 69.2041 80.7943C68.0477 85.4967 65.6262 89.7928 62.202 93.2169C58.7777 96.641 54.4815 99.0625 49.7791 100.219C48.8259 104.117 48.7712 108.181 49.6189 112.103C50.4667 116.025 52.1947 119.704 54.6725 122.86C57.1504 126.017 60.3132 128.569 63.922 130.324C67.5309 132.079 71.4914 132.991 75.5044 132.991C79.5174 132.991 83.4779 132.079 87.0868 130.324C90.6956 128.569 93.8584 126.017 96.3362 122.86C98.8141 119.704 100.542 116.025 101.39 112.103C102.238 108.181 102.183 104.117 101.23 100.219C96.5263 99.0639 92.229 96.6429 88.8041 93.2186C85.3792 89.7943 82.9575 85.4974 81.8018 80.7943Z" fill="#0D74F5"/>
<path d="M107.526 48.0161C105.404 48.0158 103.29 48.2707 101.23 48.7753C100.075 53.4775 97.6538 57.7735 94.2299 61.1973C90.806 64.6211 86.5099 67.0418 81.8076 68.1969C80.7943 72.3349 80.7943 76.6563 81.8076 80.7943C86.5099 81.9502 90.806 84.3716 94.2298 87.7958C97.6536 91.2201 100.074 95.5164 101.23 100.219C104.867 101.107 108.652 101.214 112.334 100.533C116.016 99.8514 119.511 98.3969 122.59 96.2654C125.668 94.1338 128.26 91.3738 130.193 88.1672C132.126 84.9607 133.358 81.3806 133.806 77.6632C134.255 73.9458 133.909 70.1756 132.794 66.6014C131.678 63.0271 129.817 59.7301 127.333 56.9279C124.85 54.1257 121.8 51.882 118.386 50.3448C114.972 48.8076 111.27 48.0119 107.526 48.0102V48.0161Z" fill="#4494F7"/>
<path d="M69.2041 80.7943C70.2174 76.6563 70.2174 72.3349 69.2041 68.1969C64.5016 67.0417 60.2051 64.621 56.7808 61.1972C53.3565 57.7735 50.935 53.4775 49.779 48.7753C45.8809 47.8222 41.8171 47.7675 37.8947 48.6152C33.9722 49.4629 30.2937 51.1909 27.1371 53.6687C23.9804 56.1464 21.4282 59.3092 19.6731 62.9179C17.918 66.5267 17.006 70.4871 17.006 74.5C17.006 78.5129 17.918 82.4733 19.6731 86.0821C21.4282 89.6908 23.9804 92.8536 27.1371 95.3313C30.2937 97.8091 33.9722 99.5371 37.8947 100.385C41.8171 101.233 45.8809 101.178 49.779 100.225C50.9339 95.521 53.3548 91.2233 56.7792 87.798C60.2036 84.3727 64.5006 81.9505 69.2041 80.7943V80.7943Z" fill="#005CF4"/>
<path d="M81.8018 68.2028C86.5042 67.0464 90.8005 64.6249 94.2247 61.2008C97.6489 57.7767 100.07 53.4806 101.227 48.7782C96.5243 49.9346 92.2281 52.3561 88.8039 55.7802C85.3797 59.2043 82.9581 63.5004 81.8018 68.2028V68.2028Z" fill="#186EF9"/>
<path d="M81.8018 80.7943C82.9572 85.4971 85.3785 89.7937 88.8028 93.2179C92.2272 96.6422 96.5239 99.0634 101.227 100.219C100.07 95.5165 97.6489 91.2204 94.2247 87.7963C90.8005 84.3721 86.5042 81.9506 81.8018 80.7943V80.7943Z" fill="#0246F2"/>
<path d="M69.2041 68.2028C68.0477 63.5004 65.6262 59.2043 62.202 55.7802C58.7777 52.3561 54.4815 49.9346 49.7791 48.7782C50.9354 53.4806 53.357 57.7767 56.7812 61.2008C60.2054 64.6249 64.5016 67.0464 69.2041 68.2028V68.2028Z" fill="#0046F8"/>
<path d="M69.2041 80.7943C64.5016 81.9506 60.2054 84.3721 56.7812 87.7963C53.357 91.2204 50.9354 95.5165 49.7791 100.219C54.4815 99.0625 58.7777 96.641 62.202 93.2169C65.6262 89.7928 68.0477 85.4966 69.2041 80.7943V80.7943Z" fill="#0729F1"/>
<path d="M69.2041 68.2028C73.3422 69.2161 77.6637 69.2161 81.8018 68.2028C82.9581 63.5004 85.3797 59.2043 88.8039 55.7802C92.2281 52.3561 96.5243 49.9346 101.227 48.7782C102.18 44.8802 102.235 40.8165 101.387 36.8941C100.539 32.9718 98.8111 29.2934 96.3333 26.1368C93.8555 22.9802 90.6927 20.428 87.0838 18.673C83.475 16.918 79.5145 16.006 75.5015 16.006C71.4885 16.006 67.528 16.918 63.9191 18.673C60.3102 20.428 57.1474 22.9802 54.6696 26.1368C52.1918 29.2934 50.4637 32.9718 49.616 36.8941C48.7683 40.8165 48.823 44.8802 49.7761 48.7782C54.4796 49.9332 58.7769 52.3542 62.2018 55.7785C65.6267 59.2028 68.0484 63.4996 69.2041 68.2028V68.2028Z" fill="#7ABDF7"/>
<path d="M81.8018 80.7943C77.6637 79.781 73.3422 79.781 69.2041 80.7943C68.0477 85.4967 65.6262 89.7928 62.202 93.2169C58.7777 96.641 54.4815 99.0625 49.7791 100.219C48.8259 104.117 48.7712 108.181 49.6189 112.103C50.4667 116.025 52.1947 119.704 54.6725 122.86C57.1504 126.017 60.3132 128.569 63.922 130.324C67.5309 132.079 71.4914 132.991 75.5044 132.991C79.5174 132.991 83.4779 132.079 87.0868 130.324C90.6956 128.569 93.8584 126.017 96.3362 122.86C98.8141 119.704 100.542 116.025 101.39 112.103C102.238 108.181 102.183 104.117 101.23 100.219C96.5263 99.0639 92.229 96.6429 88.8041 93.2186C85.3792 89.7943 82.9575 85.4974 81.8018 80.7943Z" fill="#0D74F5"/>
<path d="M107.526 48.0161C105.404 48.0158 103.29 48.2707 101.23 48.7753C100.075 53.4775 97.6538 57.7735 94.2299 61.1973C90.806 64.6211 86.5099 67.0418 81.8076 68.1969C80.7943 72.3349 80.7943 76.6563 81.8076 80.7943C86.5099 81.9502 90.806 84.3716 94.2298 87.7958C97.6536 91.2201 100.074 95.5164 101.23 100.219C104.867 101.107 108.652 101.214 112.334 100.533C116.016 99.8514 119.511 98.3969 122.59 96.2654C125.668 94.1338 128.26 91.3738 130.193 88.1672C132.126 84.9607 133.358 81.3806 133.806 77.6632C134.255 73.9458 133.909 70.1756 132.794 66.6014C131.678 63.0271 129.817 59.7301 127.333 56.9279C124.85 54.1257 121.8 51.882 118.386 50.3448C114.972 48.8076 111.27 48.0119 107.526 48.0102V48.0161Z" fill="#4494F7"/>
<path d="M69.2041 80.7943C70.2174 76.6563 70.2174 72.3349 69.2041 68.1969C64.5016 67.0417 60.2051 64.621 56.7808 61.1972C53.3565 57.7735 50.935 53.4775 49.779 48.7753C45.8809 47.8222 41.8171 47.7675 37.8947 48.6152C33.9722 49.4629 30.2937 51.1909 27.1371 53.6687C23.9804 56.1464 21.4282 59.3092 19.6731 62.9179C17.918 66.5267 17.006 70.4871 17.006 74.5C17.006 78.5129 17.918 82.4733 19.6731 86.0821C21.4282 89.6908 23.9804 92.8536 27.1371 95.3313C30.2937 97.8091 33.9722 99.5371 37.8947 100.385C41.8171 101.233 45.8809 101.178 49.779 100.225C50.9339 95.521 53.3548 91.2233 56.7792 87.798C60.2036 84.3727 64.5006 81.9505 69.2041 80.7943V80.7943Z" fill="#005CF4"/>
<path d="M81.8018 68.2028C86.5042 67.0464 90.8005 64.6249 94.2247 61.2008C97.6489 57.7767 100.07 53.4806 101.227 48.7782C96.5243 49.9346 92.2281 52.3561 88.8039 55.7802C85.3797 59.2043 82.9581 63.5004 81.8018 68.2028V68.2028Z" fill="#186EF9"/>
<path d="M81.8018 80.7943C82.9572 85.4971 85.3785 89.7937 88.8028 93.2179C92.2272 96.6422 96.5239 99.0634 101.227 100.219C100.07 95.5165 97.6489 91.2204 94.2247 87.7963C90.8005 84.3721 86.5042 81.9506 81.8018 80.7943V80.7943Z" fill="#0246F2"/>
<path d="M69.2041 68.2028C68.0477 63.5004 65.6262 59.2043 62.202 55.7802C58.7777 52.3561 54.4815 49.9346 49.7791 48.7782C50.9354 53.4806 53.357 57.7767 56.7812 61.2008C60.2054 64.6249 64.5016 67.0464 69.2041 68.2028V68.2028Z" fill="#0046F8"/>
<path d="M69.2041 80.7943C64.5016 81.9506 60.2054 84.3721 56.7812 87.7963C53.357 91.2204 50.9354 95.5165 49.7791 100.219C54.4815 99.0625 58.7777 96.641 62.202 93.2169C65.6262 89.7928 68.0477 85.4966 69.2041 80.7943V80.7943Z" fill="#0729F1"/>
</svg>
