<svg xmlns="http://www.w3.org/2000/svg" fill="none">
  <path stroke="currentColor" d="M10.046 13.496 4.1 19.443l-.143-.143 6.443-6.443 3.646 3.646.376.376.352-.398 6.96-7.864.07.067L14.4 17.12l-3.648-3.625-.353-.351-.353.352Zm-6.562-2.124-.182-.385-.077-.165-.165-.076-.39-.18.397-.19.16-.077.075-.16.182-.386.192.392.075.154.154.075.392.192-.385.182-.16.075-.076.157-.192.392ZM14.9 9.353l-.173-.366-.077-.165-.165-.076-.39-.18.397-.19.16-.077.075-.16.173-.367.173.366.075.16.16.077.396.191-.39.18-.164.076-.077.165-.173.366ZM8.218 6.35l-.342-.716-.077-.16-.161-.077-.702-.33.707-.342.158-.077.075-.158.342-.715.328.71.076.163.163.078.715.342-.71.328-.167.077-.077.167-.328.71Z"/>
</svg>
