<svg width="15" height="16" viewBox="0 0 15 16" fill="none" xmlns="http://www.w3.org/2000/svg">
<rect width="15" height="15" rx="7.5" fill="#CCFF3B"/>
<path d="M7.888 2.82C8.424 2.82 8.9 2.908 9.316 3.084C9.732 3.252 10.056 3.504 10.288 3.84C10.528 4.176 10.648 4.6 10.648 5.112C10.648 5.688 10.492 6.144 10.18 6.48C9.868 6.816 9.416 7.032 8.824 7.128V7.176C9.552 7.256 10.1 7.492 10.468 7.884C10.844 8.276 11.032 8.836 11.032 9.564C11.032 10.388 10.772 11.02 10.252 11.46C9.74 11.9 9.024 12.12 8.104 12.12C7.64 12.12 7.248 12.084 6.928 12.012C6.616 11.94 6.332 11.84 6.076 11.712V14.88H5.02V5.58C5.02 4.932 5.144 4.408 5.392 4.008C5.64 3.6 5.98 3.3 6.412 3.108C6.844 2.916 7.336 2.82 7.888 2.82ZM7.864 3.696C7.544 3.696 7.248 3.752 6.976 3.864C6.704 3.976 6.484 4.172 6.316 4.452C6.156 4.732 6.076 5.124 6.076 5.628V10.764C6.356 10.908 6.644 11.028 6.94 11.124C7.244 11.212 7.6 11.256 8.008 11.256C8.696 11.256 9.196 11.104 9.508 10.8C9.82 10.488 9.976 10.052 9.976 9.492C9.976 8.86 9.784 8.4 9.4 8.112C9.016 7.816 8.512 7.668 7.888 7.668H7.252V6.78H7.768C8.392 6.78 8.848 6.632 9.136 6.336C9.424 6.04 9.568 5.648 9.568 5.16C9.568 4.664 9.412 4.296 9.1 4.056C8.796 3.816 8.384 3.696 7.864 3.696Z" fill="#0A1213"/>
</svg>
