<svg viewBox="0 0 24 24" fill="none" xmlns="http://www.w3.org/2000/svg">
<path d="M8.50426 10.5637L12 7.068L15.4974 10.5653L17.5314 8.53126L12 3L6.4704 8.5296L8.50433 10.5636L8.50426 10.5637ZM3 12L5.03407 9.96564L7.068 11.9996L5.03393 14.0336L3 12ZM8.50426 13.4365L12 16.932L15.4973 13.4348L17.5324 15.4677L17.5314 15.4688L12 21L6.4704 15.4704L6.46752 15.4675L8.50447 13.4363L8.50426 13.4365ZM16.932 12.0009L18.9661 9.96679L21 12.0007L18.966 14.0348L16.932 12.0009Z" fill="#F3BA2F"/>
<path d="M14.063 11.9988H14.0639L12.0001 9.93481L10.4746 11.4598L10.2994 11.6352L9.93794 11.9967L9.93506 11.9995L9.93794 12.0024L12.0001 14.0649L14.064 12.0009L14.0651 11.9998L14.0632 11.9988" fill="#F3BA2F"/>
</svg>
