<svg viewBox="0 0 24 24" fill="none" xmlns="http://www.w3.org/2000/svg">
<path d="M16.775 11.95C16.6583 11.8333 16.6 11.7 16.6 11.55C16.6 11.4 16.6583 11.2666 16.775 11.15L19.5 8.42495H3.75C3.6 8.42495 3.47083 8.37078 3.3625 8.26245C3.25417 8.15412 3.2 8.01662 3.2 7.84995C3.2 7.68328 3.25417 7.54995 3.3625 7.44995C3.47083 7.34995 3.6 7.29995 3.75 7.29995H19.5L16.725 4.49995C16.625 4.41662 16.575 4.29995 16.575 4.14995C16.575 3.99995 16.6333 3.86662 16.75 3.74995C16.8667 3.63328 17 3.57495 17.15 3.57495C17.3 3.57495 17.4333 3.63328 17.55 3.74995L21.15 7.34995C21.2333 7.43328 21.2917 7.51245 21.325 7.58745C21.3583 7.66245 21.375 7.74995 21.375 7.84995C21.375 7.94995 21.3583 8.04162 21.325 8.12495C21.2917 8.20828 21.2333 8.28329 21.15 8.34995L17.525 11.975C17.4417 12.075 17.325 12.125 17.175 12.125C17.025 12.125 16.8917 12.0666 16.775 11.95ZM6.425 20.25L2.85 16.675C2.76667 16.5916 2.70833 16.5083 2.675 16.425C2.64167 16.3416 2.625 16.2583 2.625 16.175C2.625 16.075 2.64167 15.9833 2.675 15.9C2.70833 15.8166 2.76667 15.7333 2.85 15.65L6.475 12.025C6.575 11.925 6.7 11.875 6.85 11.875C7 11.875 7.13333 11.9333 7.25 12.05C7.36667 12.1666 7.425 12.3 7.425 12.45C7.425 12.6 7.36667 12.7333 7.25 12.85L4.5 15.6H20.25C20.4 15.6 20.5292 15.6541 20.6375 15.7625C20.7458 15.8708 20.8 16.0083 20.8 16.175C20.8 16.3416 20.7458 16.475 20.6375 16.575C20.5292 16.675 20.4 16.725 20.25 16.725H4.5L7.25 19.5C7.35 19.6 7.4 19.7208 7.4 19.8624C7.4 20.0041 7.34167 20.1333 7.225 20.25C7.10833 20.3666 6.975 20.4249 6.825 20.4249C6.675 20.4249 6.54167 20.3666 6.425 20.25Z" fill="currentColor"/>
</svg>
