<svg viewBox="0 0 100 100" fill="none" xmlns="http://www.w3.org/2000/svg">
<path d="M42.625 69.375L74.625 37.375L71.625 34.5L42.625 63.625L28 49L25.125 51.875L42.625 69.375ZM50 95C43.75 95 37.8958 93.8542 32.4375 91.5625C26.9792 89.2708 22.2083 86.0833 18.125 82C14.0417 77.9167 10.8333 73.125 8.5 67.625C6.16667 62.125 5 56.25 5 50C5 43.75 6.14583 37.8958 8.4375 32.4375C10.7292 26.9792 13.9167 22.2083 18 18.125C22.0833 14.0417 26.875 10.8333 32.375 8.5C37.875 6.16667 43.75 5 50 5C56.25 5 62.1042 6.16667 67.5625 8.5C73.0208 10.8333 77.7917 14.0417 81.875 18.125C85.9583 22.2083 89.1667 26.9792 91.5 32.4375C93.8333 37.8958 95 43.75 95 50C95 56.25 93.8333 62.1042 91.5 67.5625C89.1667 73.0208 85.9583 77.7917 81.875 81.875C77.7917 85.9583 73.0208 89.1667 67.5625 91.5C62.1042 93.8333 56.25 95 50 95ZM50 91.125C61.5 91.125 71.2292 87.1458 79.1875 79.1875C87.1458 71.2292 91.125 61.5 91.125 50C91.125 38.5 87.1458 28.7708 79.1875 20.8125C71.2292 12.8542 61.5 8.875 50 8.875C38.5 8.875 28.7708 12.8542 20.8125 20.8125C12.8542 28.7708 8.875 38.5 8.875 50C8.875 61.5 12.8542 71.2292 20.8125 79.1875C28.7708 87.1458 38.5 91.125 50 91.125Z" fill="currentColor"/>
</svg>
