<svg width="18" height="18" viewBox="0 0 18 18" fill="none" xmlns="http://www.w3.org/2000/svg">
<path d="M1.95 17.5C1.55 17.5 1.20833 17.3583 0.925 17.075C0.641667 16.7917 0.5 16.45 0.5 16.05V1.95C0.5 1.55 0.641667 1.20833 0.925 0.925C1.20833 0.641667 1.55 0.5 1.95 0.5H16.05C16.45 0.5 16.7917 0.641667 17.075 0.925C17.3583 1.20833 17.5 1.55 17.5 1.95V16.05C17.5 16.45 17.3583 16.7917 17.075 17.075C16.7917 17.3583 16.45 17.5 16.05 17.5H1.95ZM1.95 16.375H16.05C16.15 16.375 16.2292 16.3458 16.2875 16.2875C16.3458 16.2292 16.375 16.15 16.375 16.05V1.95C16.375 1.85 16.3458 1.77083 16.2875 1.7125C16.2292 1.65417 16.15 1.625 16.05 1.625H1.95C1.85 1.625 1.77083 1.65417 1.7125 1.7125C1.65417 1.77083 1.625 1.85 1.625 1.95V16.05C1.625 16.15 1.65417 16.2292 1.7125 16.2875C1.77083 16.3458 1.85 16.375 1.95 16.375Z" fill="currentColor"/>
</svg>
