<svg viewBox="0 0 120 120" fill="none" xmlns="http://www.w3.org/2000/svg">
<path d="M60.9531 10.6634L56.6393 19.0306L47.3018 20.2159L53.9266 26.9123L52.1748 36.1574L60.5787 31.924L68.8294 36.4433L67.4051 27.1454L74.2636 20.692L64.9675 19.1752L60.9531 10.6634ZM64.6877 30.5251L60.643 28.3099L56.5267 30.3838L57.3845 25.8571L54.1368 22.5751L58.7137 21.9939L60.8271 17.8936L62.7958 22.0641L67.3506 22.8068L63.9903 25.9681L64.6877 30.5251Z" fill="currentColor"/>
<path d="M83.5355 10.498V3.383L60.8298 3.38367H38.1241V10.4986L23.5962 10.498V12.0977C23.5962 24.2579 29.6967 31.1195 40.7836 31.5755C43.1274 38.9911 46.8231 44.0863 51.0813 47.0496L51.0693 47.0664C55.5311 50.1521 56.8087 65.9732 56.6126 76.2538H52.9905C47.9193 76.2538 44.6085 77.2978 44.034 82.142H37.2941V92.6166H84.3667V82.142H77.6275C77.0536 77.2985 73.7416 76.2538 68.6717 76.2538H65.0496C64.8521 65.972 66.1324 50.1504 70.5923 47.0646L70.5815 47.0486C74.8385 44.0841 78.5355 38.9901 80.8793 31.5744C91.9652 31.1197 98.065 24.2571 98.065 12.0967V10.4969L83.5355 10.498ZM26.8389 13.6982H38.1479C38.2484 19.2381 38.8644 24.1079 39.8843 28.3325C29.9408 27.4674 27.1952 20.3176 26.8389 13.6982ZM81.1664 89.4165H40.4932V85.3416H81.1681V89.4165H81.1664ZM74.4424 82.1414H47.2196C47.4981 80.1806 48.6412 79.4534 52.9912 79.4534H68.6723C73.0203 79.4534 74.1647 80.1806 74.4433 82.1414H74.4424ZM61.8477 76.2532H59.8107C59.897 71.261 59.7946 57.6737 56.5341 49.6389C57.9518 50.0253 59.3915 50.2195 60.83 50.2195C62.2677 50.2195 63.7067 50.0266 65.1244 49.6389C61.8639 57.6725 61.7629 71.2612 61.8479 76.2532H61.8477ZM68.7705 44.436L68.7692 44.4347C68.7639 44.438 68.7598 44.4434 68.7545 44.4467C66.248 46.179 63.5353 47.0209 60.8293 47.0209C58.1199 47.0209 55.4052 46.1785 52.8973 44.4428C52.894 44.4408 52.8906 44.4374 52.888 44.4354V44.4368C46.4126 39.9474 41.3239 29.4843 41.3239 12.1002V6.58568H80.3359V12.1002C80.3359 29.4848 75.2479 39.9471 68.7712 44.4368L68.7705 44.436ZM81.7763 28.3324C82.7969 24.1075 83.4136 19.2393 83.5141 13.698H94.8217C94.4654 20.3174 91.7192 27.4685 81.7763 28.3324Z" fill="currentColor"/>
</svg>
