<svg xmlns="http://www.w3.org/2000/svg" fill="none" viewBox="0 0 25 28">
  <path fill="#FE815F" fill-rule="evenodd" d="M24.63 19.6c0 4.64-3.817 8.4-8.525 8.4H0v-5.6h16.105c1.57 0 2.842-1.254 2.842-2.8 0-1.546-1.273-2.8-2.842-2.8H10.42v-5.6h5.684c1.57 0 2.842-1.254 2.842-2.8 0-1.546-1.273-2.8-2.842-2.8H0V0h16.105c4.708 0 8.526 3.76 8.526 8.4A8.3 8.3 0 0 1 22.46 14a8.3 8.3 0 0 1 2.17 5.6Z" clip-rule="evenodd" opacity=".8"/>
  <path fill="#000" fill-rule="evenodd" d="M0 5.6h13.832C10.894 2.2 6.216 0 .947 0 .63 0 .313.008 0 .024V5.6Zm16.73 11.2h-5.362v-5.6h5.362a12.298 12.298 0 0 1 0 5.6ZM0 22.4h13.832C10.894 25.8 6.216 28 .947 28c-.318 0-.634-.008-.947-.024V22.4Z" clip-rule="evenodd" opacity=".12"/>
  <path fill="#FF6238" d="M0 0c7.848 0 14.21 6.268 14.21 14S7.848 28 0 28v-5.6c4.709 0 8.526-3.76 8.526-8.4 0-4.64-3.817-8.4-8.526-8.4V0Z"/>
</svg>
