<svg xmlns="http://www.w3.org/2000/svg" fill="none" viewBox="0 0 100 100">
  <path fill="currentColor" d="M53.589 75.619h-7.375c-.5 0-.933-.153-1.297-.46a1.953 1.953 0 0 1-.683-1.119l-.956-6.316c-.956-.307-1.969-.756-3.039-1.348-1.07-.593-1.991-1.218-2.765-1.875l-6.01 2.697c-.5.175-.99.186-1.467.033a2.022 2.022 0 0 1-1.127-.888l-3.687-6.316c-.273-.439-.342-.888-.205-1.349.136-.46.41-.822.82-1.085l5.462-3.948c-.091-.438-.16-.932-.205-1.48a18.684 18.684 0 0 1-.068-1.546c.006-1.015.097-2.027.273-3.026l-5.463-3.948a1.893 1.893 0 0 1-.82-1.085c-.136-.46-.067-.91.206-1.349l3.687-6.25a2.18 2.18 0 0 1 1.127-.92 1.73 1.73 0 0 1 1.4.065l6.009 2.631a18.89 18.89 0 0 1 2.8-1.842 17.592 17.592 0 0 1 3.004-1.316l1.024-6.381c.091-.439.319-.812.683-1.119.364-.306.797-.46 1.297-.46h7.375c.455 0 .876.154 1.263.46.387.307.626.68.717 1.119l.956 6.382c1.002.35 2.014.789 3.039 1.315a12.479 12.479 0 0 1 2.697 1.842l6.145-2.631c.456-.22.922-.252 1.4-.099.478.154.854.45 1.127.888l3.687 6.25c.274.439.353.9.24 1.382-.114.482-.399.855-.854 1.118l-5.531 3.882c.177 1.021.268 2.056.273 3.092 0 .439-.023.921-.068 1.447-.049.55-.117 1.1-.205 1.645l5.53 3.882c.41.263.672.625.786 1.085.114.46.034.91-.239 1.349l-3.687 6.316c-.254.424-.655.74-1.127.888-.478.153-.945.12-1.4-.099l-6.077-2.631c-.82.657-1.73 1.282-2.731 1.875-1.002.592-2.003 1.02-3.005 1.282l-.956 6.382c-.09.439-.33.811-.717 1.118-.387.308-.808.461-1.263.461Zm-3.756-17.566c2.14 0 3.96-.723 5.463-2.17 1.502-1.448 2.253-3.203 2.253-5.264 0-2.061-.75-3.816-2.253-5.263-1.502-1.448-3.323-2.171-5.463-2.171s-3.96.723-5.462 2.17c-1.503 1.448-2.254 3.203-2.254 5.264 0 2.061.751 3.816 2.254 5.263 1.502 1.448 3.323 2.171 5.462 2.171Zm0-3.026c-1.274 0-2.355-.428-3.243-1.283-.888-.855-1.332-1.897-1.332-3.125s.444-2.27 1.332-3.125c.888-.855 1.969-1.283 3.243-1.283 1.275 0 2.356.428 3.244 1.283.887.855 1.331 1.897 1.331 3.125s-.444 2.27-1.331 3.125c-.888.855-1.97 1.283-3.244 1.283Zm-2.868 17.632h5.804l1.025-7.369a15.856 15.856 0 0 0 4.063-1.579 18.877 18.877 0 0 0 3.585-2.631l7.101 2.96 2.732-4.671-6.283-4.474c.182-.79.33-1.524.444-2.204.114-.68.17-1.37.17-2.072 0-.746-.045-1.447-.136-2.105-.09-.658-.25-1.36-.478-2.106l6.35-4.539-2.73-4.671-7.17 2.96c-.956-1.052-2.117-1.973-3.483-2.763-1.366-.79-2.777-1.272-4.233-1.447l-.888-7.369h-5.873l-.887 7.369a13.36 13.36 0 0 0-4.166 1.447c-1.274.702-2.458 1.623-3.55 2.763l-7.17-2.96-2.732 4.671 6.283 4.474a18.42 18.42 0 0 0-.444 2.072 14.15 14.15 0 0 0 0 4.375c.115.708.263 1.41.444 2.105l-6.283 4.474 2.732 4.671 7.101-2.96a14.645 14.645 0 0 0 3.585 2.664c1.329.691 2.74 1.21 4.2 1.546l.887 7.369Zm36.489-43.872-3.694-7.9-8.09-3.625 8.09-3.578 3.694-7.852 3.694 7.853 8.09 3.577-8.09 3.625-3.694 7.9Zm0-5.205 2.104-4.322 4.443-1.998-4.443-1.951-2.104-4.322-2.104 4.322-4.49 1.951 4.49 1.998 2.104 4.322Zm-.362 74.962-4.494-10.403-10.932-4.838 10.932-4.596 4.494-10.04 4.494 10.04 10.932 4.596-10.932 4.838-4.494 10.403ZM16.426 31.877l-4.494-10.402L1 16.636l10.932-4.596L16.426 2l4.494 10.04 10.932 4.596-10.932 4.839-4.494 10.402Z"/>
</svg>
