<svg width="127" height="122" viewBox="0 0 127 122" fill="none" xmlns="http://www.w3.org/2000/svg">
<path d="M51.8673 108.53C52.8332 108.789 53.7585 108.663 54.643 108.152C55.5275 107.642 56.0992 106.903 56.358 105.937L57.5658 101.43C63.3691 102.525 68.7092 101.914 73.5861 99.597C78.463 97.2803 81.6635 93.2778 83.1877 87.5896C84.5968 82.3306 84.1961 77.7083 81.9857 73.7226C79.7753 69.737 75.2588 65.4497 68.4362 60.8609C62.0928 56.6305 58.0549 53.1329 56.3226 50.3681C54.5902 47.6033 54.1985 44.45 55.1476 40.9083C56.0678 37.4739 58.123 35.0626 61.3133 33.6743C64.5035 32.286 68.2451 32.167 72.5381 33.3173C75.3286 34.065 77.6265 35.2559 79.4317 36.8899C81.237 38.5239 82.6321 40.5082 83.617 42.8426C83.9811 43.6304 84.5565 44.2734 85.3432 44.7718C86.1299 45.2702 86.9564 45.4054 87.8227 45.1774C88.9036 45.0069 89.7005 44.5015 90.2132 43.6611C90.726 42.8207 90.8147 41.953 90.4794 41.0579C89.3163 38.1006 87.6213 35.5184 85.3945 33.3112C83.1676 31.1041 80.5411 29.4226 77.5149 28.2667L78.6796 23.92C78.9384 22.9541 78.8125 22.0288 78.3018 21.1443C77.7911 20.2598 77.0528 19.6881 76.0869 19.4293C75.121 19.1704 74.1957 19.2964 73.3112 19.8071C72.4267 20.3177 71.855 21.0561 71.5962 22.022L70.4315 26.3686C64.6493 25.6245 59.7974 26.4525 55.8759 28.8527C51.9544 31.2529 49.4042 34.6531 48.2251 39.0534C46.8735 44.0977 47.1778 48.4354 49.1382 52.0665C51.0985 55.6976 55.4612 59.9149 62.2262 64.7184C68.8552 69.6004 73.0895 73.4382 74.9292 76.2318C76.7689 79.0253 77.2142 82.193 76.2652 85.7347C75.1724 89.8131 72.6998 92.6014 68.8474 94.0999C64.995 95.5983 61.0296 95.8011 56.9512 94.7083C53.3022 93.7306 50.2195 91.9268 47.7033 89.2971C45.1871 86.6673 43.4873 83.5662 42.6041 79.9936C42.3761 79.1273 41.9565 78.4397 41.3451 77.9308C40.7338 77.4219 40.0237 77.1741 39.2149 77.1875C37.9193 77.3004 36.9615 77.7627 36.3414 78.5743C35.7213 79.386 35.6182 80.3073 36.0321 81.3385C37.2296 85.4554 39.0237 88.9556 41.4144 91.8393C43.805 94.723 46.8565 97.1798 50.5687 99.2098L49.2314 104.2C48.9726 105.166 49.1057 106.065 49.6308 106.896C50.1559 107.726 50.9014 108.271 51.8673 108.53ZM47.5852 125.155C38.9992 122.854 31.3937 119.149 24.7685 114.037C18.1434 108.926 12.8077 102.867 8.76152 95.8584C4.71529 88.8502 2.1353 81.1995 1.02153 72.9064C-0.0922409 64.6134 0.501182 56.1738 2.8018 47.5878C5.07365 39.1091 8.76512 31.5572 13.8762 24.9321C18.9873 18.307 25.047 12.9713 32.0552 8.9251C39.0635 4.87888 46.7213 2.27205 55.0288 1.10462C63.3362 -0.0628147 71.783 0.503777 80.369 2.80439C88.8476 5.07625 96.3924 8.79455 103.003 13.9593C109.614 19.124 114.942 25.2105 118.989 32.2188C123.035 39.2271 125.649 46.8581 126.831 55.1119C128.012 63.3657 127.453 71.7856 125.152 80.3716C122.852 88.9576 119.119 96.5559 113.954 103.167C108.79 109.777 102.703 115.106 95.6948 119.152C88.6866 123.198 81.0627 125.786 72.8233 126.914C64.5839 128.042 56.1712 127.456 47.5852 125.155ZM49.5264 117.911C64.7665 121.994 78.9526 120.245 92.0846 112.663C105.217 105.082 113.824 93.6706 117.908 78.4304C121.992 63.1903 120.242 49.0042 112.661 35.8722C105.079 22.7402 93.668 14.1324 78.4278 10.0488C63.1877 5.96524 49.0016 7.71433 35.8696 15.2961C22.7376 22.8778 14.1298 34.2888 10.0462 49.529C5.96265 64.7691 7.71173 78.9552 15.2935 92.0872C22.8752 105.219 34.2862 113.827 49.5264 117.911Z" fill="#CCFF3C"/>
</svg>
