<svg width="145" height="128" viewBox="0 0 145 128" fill="none" xmlns="http://www.w3.org/2000/svg">
<path d="M64.6684 137.81C51.6821 134.331 40.7587 127.982 31.8982 118.763C23.0378 109.545 16.8765 98.0874 13.4145 84.3913L7.93616 104.837C7.64858 105.91 7.09654 106.682 6.28004 107.154C5.46355 107.625 4.51868 107.717 3.44542 107.429C2.37217 107.142 1.57301 106.583 1.04795 105.752C0.52288 104.921 0.404137 103.969 0.691714 102.896L8.28374 74.5618C8.62883 73.2739 9.3529 72.2888 10.4559 71.6066C11.559 70.9244 12.8081 70.7702 14.2033 71.1441L42.2152 78.6498C43.2884 78.9374 44.0804 79.5235 44.5911 80.408C45.1018 81.2926 45.2133 82.2714 44.9258 83.3447C44.6382 84.4179 44.0521 85.2099 43.1676 85.7206C42.2831 86.2313 41.3042 86.3429 40.2309 86.0553L20.2684 80.7063C23.1307 93.2064 28.6184 103.851 36.7314 112.639C44.8444 121.427 54.8038 127.403 66.6095 130.566C78.7373 133.816 90.6708 133.39 102.41 129.288C114.149 125.187 123.768 118.159 131.267 108.205C132.177 106.954 133.253 106.264 134.495 106.137C135.737 106.01 136.716 106.329 137.431 107.096C138.439 108.056 138.784 109.127 138.468 110.307C138.152 111.488 137.567 112.597 136.714 113.633C128.255 124.595 117.594 132.293 104.731 136.726C91.8675 141.159 78.5133 141.52 64.6684 137.81ZM20.4928 45.7396C19.4771 45.2374 18.8303 44.4314 18.5525 43.3217C18.2747 42.212 18.3332 41.1349 18.7281 40.0904C20.8808 35.4908 23.4034 31.3355 26.2958 27.6243C29.1882 23.9131 32.6585 20.2992 36.7065 16.7827C37.6093 15.9893 38.6064 15.5951 39.6979 15.6C40.7894 15.6048 41.7318 16.0587 42.5252 16.9614C43.3186 17.8642 43.6055 18.8326 43.386 19.8665C43.1665 20.9005 42.5516 21.7998 41.5415 22.5644C38.2026 25.5808 35.225 28.7515 32.6086 32.0765C29.9922 35.4015 27.6652 39.1492 25.6275 43.3194C24.9892 44.4137 24.2278 45.2162 23.3432 45.7269C22.4587 46.2376 21.5085 46.2419 20.4928 45.7396ZM55.6323 9.25798C55.2184 8.22683 55.3162 7.21777 55.9258 6.23079C56.5353 5.24381 57.4094 4.55776 58.5478 4.17263C63.4026 2.36764 68.2406 1.16206 73.0618 0.55588C77.883 -0.0502983 82.8627 -0.067597 88.0009 0.50398C89.239 0.605665 90.2351 1.07387 90.9892 1.9086C91.7433 2.74333 92.0983 3.67241 92.0541 4.69585C91.9812 5.82662 91.4684 6.66699 90.5159 7.21696C89.5633 7.76693 88.4679 7.99108 87.2299 7.88939C83.0575 7.57663 78.763 7.72001 74.3462 8.31951C69.9294 8.91902 65.4441 9.98903 60.8902 11.5296C59.723 12.022 58.6243 12.044 57.5942 11.5954C56.5641 11.1468 55.9101 10.3677 55.6323 9.25798ZM72.0218 75.5936L60.7705 66.7122C59.9196 66.0241 59.6379 65.1434 59.9255 64.0701C60.2131 62.9969 60.8973 62.375 61.9783 62.2045L76.2492 59.8168L85.2916 48.6085C85.9797 47.7576 86.8604 47.476 87.9336 47.7636C89.0069 48.0511 89.6288 48.7354 89.7992 49.8164L92.187 64.0873L103.352 73.2906C104.203 73.9788 104.485 74.8594 104.197 75.9327C103.91 77.0059 103.225 77.6278 102.144 77.7983L87.9165 80.0251L78.7132 91.1902C78.025 92.0411 77.1443 92.3227 76.0711 92.0352C74.9978 91.7476 74.376 91.0633 74.2055 89.9824L72.0218 75.5936ZM135.117 30.7284C134.214 31.5218 133.253 31.7819 132.234 31.5087C131.214 31.2355 130.307 30.6475 129.514 29.7447C126.634 26.3272 123.404 23.2475 119.825 20.5056C116.246 17.7636 112.518 15.4706 108.641 13.6265C107.625 13.1243 106.843 12.3969 106.293 11.4443C105.743 10.4918 105.704 9.56126 106.178 8.65285C106.573 7.60836 107.359 6.92757 108.537 6.61048C109.715 6.29339 110.865 6.40033 111.988 6.93132C116.616 8.97669 120.833 11.4868 124.637 14.4616C128.441 17.4365 132.048 20.9335 135.457 24.9529C136.143 25.8269 136.449 26.8293 136.376 27.96C136.304 29.0908 135.884 30.0136 135.117 30.7284ZM147.308 79.8922C146.177 79.8193 145.344 79.2797 144.808 78.2734C144.273 77.2672 144.041 76.1987 144.114 75.0679C144.377 70.6522 144.182 66.2287 143.529 61.7976C142.876 57.3664 141.736 53.0349 140.109 48.803C139.724 47.6645 139.675 46.5587 139.963 45.4854C140.25 44.4122 140.924 43.6149 141.984 43.0937C143.122 42.7086 144.178 42.8476 145.151 43.5108C146.123 44.174 146.87 45.0356 147.391 46.0955C149.325 51.3298 150.628 56.3379 151.303 61.1198C151.977 65.9017 152.082 70.8761 151.618 76.0431C151.545 77.1739 151.091 78.1163 150.256 78.8704C149.421 79.6245 148.439 79.9651 147.308 79.8922Z" fill="#CCFF3C"/>
</svg>
