<svg width="24" height="24" viewBox="0 0 24 24" fill="none" xmlns="http://www.w3.org/2000/svg">
<path d="M2.775 21.463C2.55833 21.463 2.375 21.388 2.225 21.238C2.075 21.088 2 20.9046 2 20.688C2 20.4713 2.075 20.288 2.225 20.138C2.375 19.988 2.55833 19.913 2.775 19.913H21.225C21.4417 19.913 21.625 19.988 21.775 20.138C21.925 20.288 22 20.4713 22 20.688C22 20.9046 21.925 21.088 21.775 21.238C21.625 21.388 21.4417 21.463 21.225 21.463H2.775ZM5.725 16.613C5.525 16.613 5.35833 16.5463 5.225 16.413C5.09167 16.2796 5.025 16.113 5.025 15.913V14.713C5.025 14.6296 5.04167 14.5463 5.075 14.463C5.10833 14.3796 5.15833 14.3046 5.225 14.238L13.975 5.53796L16.1 7.66296L7.4 16.413C7.33333 16.4796 7.25833 16.5296 7.175 16.563C7.09167 16.5963 7.00833 16.613 6.925 16.613H5.725ZM5.8 15.838H6.8L15 7.63796L14 6.66296L5.8 14.838V15.838ZM17 6.68796L14.85 4.58796L16.125 3.31296C16.3083 3.11296 16.525 3.0088 16.775 3.00046C17.025 2.99213 17.25 3.0963 17.45 3.31296L18.225 4.03796C18.4083 4.23796 18.5042 4.46296 18.5125 4.71296C18.5208 4.96296 18.4417 5.18796 18.275 5.38796L17 6.68796Z" fill="currentColor"/>
</svg>
