<svg xmlns="http://www.w3.org/2000/svg" fill="none" viewBox="0 0 24 24">
  <path fill="currentColor" d="M12 15.4c1.083 0 2.004-.383 2.762-1.15.759-.767 1.138-1.683 1.138-2.75 0-1.083-.383-2.004-1.15-2.762C13.983 7.979 13.066 7.6 12 7.6c-1.084 0-2.004.383-2.763 1.15C8.48 9.517 8.1 10.433 8.1 11.5c0 1.083.383 2.004 1.15 2.762.767.759 1.683 1.138 2.75 1.138Zm0-1.125c-.784 0-1.442-.27-1.975-.813a2.695 2.695 0 0 1-.8-1.962c0-.783.27-1.442.812-1.975a2.695 2.695 0 0 1 1.963-.8c.783 0 1.441.27 1.975.813.533.541.8 1.195.8 1.962 0 .783-.271 1.442-.813 1.975-.541.533-1.195.8-1.962.8Zm0 4.225c-2.3 0-4.384-.642-6.25-1.925-1.867-1.283-3.267-2.975-4.2-5.075.933-2.1 2.333-3.792 4.2-5.075C7.616 5.142 9.7 4.5 12 4.5s4.383.642 6.25 1.925c1.866 1.283 3.267 2.975 4.2 5.075-.933 2.1-2.334 3.792-4.2 5.075C16.383 17.858 14.3 18.5 12 18.5Zm0-1.125a9.894 9.894 0 0 0 5.462-1.6A10.384 10.384 0 0 0 21.25 11.5a10.384 10.384 0 0 0-3.788-4.275A9.895 9.895 0 0 0 12 5.625a9.895 9.895 0 0 0-5.463 1.6A10.56 10.56 0 0 0 2.725 11.5a10.561 10.561 0 0 0 3.812 4.275 9.895 9.895 0 0 0 5.463 1.6Z"/>
</svg>
