<svg viewBox="0 0 16 16" fill="none" xmlns="http://www.w3.org/2000/svg">
<path fill-rule="evenodd" clip-rule="evenodd" d="M8 15C4.13401 15 1 11.866 1 8C1 4.13401 4.13401 1 8 1C11.866 1 15 4.13401 15 8C15 11.866 11.866 15 8 15ZM8.00039 13.5999C11.0932 13.5999 13.6004 11.0927 13.6004 7.9999C13.6004 4.90711 11.0932 2.3999 8.00039 2.3999C4.9076 2.3999 2.40039 4.90711 2.40039 7.9999C2.40039 11.0927 4.9076 13.5999 8.00039 13.5999ZM7.12503 5.36767C7.1257 5.13605 7.21869 4.91425 7.3834 4.7514C7.54811 4.58855 7.77095 4.49808 8.00257 4.50003C8.3569 4.50108 8.67562 4.71571 8.8098 5.04365C8.94399 5.37158 8.86715 5.74807 8.61518 5.99719C8.36322 6.24632 7.98588 6.31889 7.65948 6.181C7.33308 6.04311 7.12206 5.72199 7.12503 5.36767ZM7.22931 8.07168C7.22931 7.64549 7.5748 7.3 8.00099 7.3C8.42717 7.3 8.77267 7.64549 8.77267 8.07168V10.8233C8.77267 11.2495 8.42717 11.595 8.00099 11.595C7.5748 11.595 7.22931 11.2495 7.22931 10.8233V8.07168Z" fill="currentColor"/>
</svg>
