<svg xmlns="http://www.w3.org/2000/svg" width="16" height="16" fill="none" viewBox="0 0 16 16">
  <path fill="currentColor" d="M12.51 5.493c-.053-.106-.133-.16-.24-.16H9.124L12.244.4a.242.242 0 0 0 0-.267.28.28 0 0 0-.24-.133H7.737a.28.28 0 0 0-.24.133l-4 8a.242.242 0 0 0 0 .267c.053.08.16.133.24.133h2.747l-2.987 7.12c-.053.107 0 .24.107.32.026.027.08.027.133.027.08 0 .16-.027.213-.08l8.534-10.133a.286.286 0 0 0 .026-.294Zm-7.84 8.72 2.454-5.866a.26.26 0 0 0-.027-.24C7.044 8.053 6.964 8 6.884 8h-2.72L7.897.533h3.627L8.377 5.467a.242.242 0 0 0 0 .266.28.28 0 0 0 .24.134h3.093l-7.04 8.346Z"/>
  <path fill="currentColor" d="m4.67 14.213 2.454-5.866a.26.26 0 0 0-.027-.24C7.044 8.053 6.964 8 6.884 8h-2.72L7.897.533h3.627L8.377 5.467a.242.242 0 0 0 0 .266.28.28 0 0 0 .24.134h3.093l-7.04 8.346Z"/>
</svg>
