<svg viewBox="0 0 18 18" fill="none" xmlns="http://www.w3.org/2000/svg">
<path d="M15.3369 15.3383H12.67V11.1601C12.67 10.1639 12.652 8.88105 11.2826 8.88105C9.89358 8.88105 9.68089 9.96634 9.68089 11.0869V15.3379H7.01397V6.7481H9.5742V7.92214H9.60873C9.865 7.48399 10.2353 7.12356 10.6802 6.87923C11.1251 6.63491 11.6279 6.51584 12.1351 6.5347C14.8383 6.5347 15.3369 8.31302 15.3369 10.6262V15.3383ZM4.00453 5.57371C3.69837 5.57378 3.39907 5.48305 3.14448 5.31299C2.88989 5.14294 2.69144 4.9012 2.57423 4.61834C2.45702 4.33549 2.42632 4.02422 2.486 3.72392C2.54569 3.42361 2.69308 3.14775 2.90954 2.93122C3.12601 2.7147 3.40181 2.56723 3.70208 2.50747C4.00235 2.44771 4.31359 2.47835 4.59645 2.5955C4.87931 2.71266 5.12107 2.91107 5.29117 3.16564C5.46127 3.42022 5.55206 3.71953 5.55206 4.02571C5.55206 4.4362 5.38903 4.82989 5.09882 5.12019C4.80861 5.41049 4.41499 5.57362 4.00453 5.57371ZM5.33799 15.3379H2.6683V6.7481H5.33833L5.33799 15.3379ZM16.6652 0.00117005H1.32794C1.1554 -0.000927356 0.984148 0.0310303 0.82398 0.0952134C0.663812 0.159396 0.517875 0.254544 0.394526 0.375209C0.271177 0.495874 0.172839 0.639686 0.10514 0.798411C0.0374415 0.957136 0.00171273 1.12766 0 1.30021V16.7008C0.00409812 17.0492 0.146293 17.3817 0.395349 17.6252C0.644405 17.8688 0.979953 18.0036 1.32828 17.9999H16.6652C17.0144 18.0046 17.3512 17.8704 17.6015 17.6268C17.8519 17.3832 17.9952 17.0501 18 16.7008V1.29745C17.995 0.948391 17.8516 0.615615 17.6012 0.372324C17.3509 0.129033 17.0142 -0.00484683 16.6652 0.000134174" fill="currentColor"/>
</svg>
