<svg viewBox="0 0 24 24" fill="none" xmlns="http://www.w3.org/2000/svg">
<path d="M4.95 20.5C4.55 20.5 4.20833 20.3583 3.925 20.075C3.64167 19.7917 3.5 19.45 3.5 19.05V4.95C3.5 4.55 3.64167 4.20833 3.925 3.925C4.20833 3.64167 4.55 3.5 4.95 3.5H10.675C10.825 3.5 10.9542 3.55417 11.0625 3.6625C11.1708 3.77083 11.225 3.90833 11.225 4.075C11.225 4.24167 11.1708 4.375 11.0625 4.475C10.9542 4.575 10.825 4.625 10.675 4.625H4.95C4.86667 4.625 4.79167 4.65833 4.725 4.725C4.65833 4.79167 4.625 4.86667 4.625 4.95V19.05C4.625 19.1333 4.65833 19.2083 4.725 19.275C4.79167 19.3417 4.86667 19.375 4.95 19.375H19.05C19.1333 19.375 19.2083 19.3417 19.275 19.275C19.3417 19.2083 19.375 19.1333 19.375 19.05V13.325C19.375 13.175 19.4292 13.0458 19.5375 12.9375C19.6458 12.8292 19.775 12.775 19.925 12.775C20.0917 12.775 20.2292 12.8292 20.3375 12.9375C20.4458 13.0458 20.5 13.175 20.5 13.325V19.05C20.5 19.45 20.3583 19.7917 20.075 20.075C19.7917 20.3583 19.45 20.5 19.05 20.5H4.95ZM9.225 14.775C9.10833 14.675 9.04583 14.55 9.0375 14.4C9.02917 14.25 9.08333 14.1167 9.2 14L18.575 4.625H13.825C13.6583 4.625 13.5208 4.57083 13.4125 4.4625C13.3042 4.35417 13.25 4.225 13.25 4.075C13.25 3.90833 13.3042 3.77083 13.4125 3.6625C13.5208 3.55417 13.6583 3.5 13.825 3.5H19.775C19.9917 3.5 20.1667 3.56667 20.3 3.7C20.4333 3.83333 20.5 4.00833 20.5 4.225V10.175C20.5 10.3417 20.4458 10.4792 20.3375 10.5875C20.2292 10.6958 20.0917 10.75 19.925 10.75C19.7583 10.75 19.625 10.6958 19.525 10.5875C19.425 10.4792 19.375 10.3417 19.375 10.175V5.45L10 14.825C9.9 14.925 9.77083 14.9708 9.6125 14.9625C9.45417 14.9542 9.325 14.8917 9.225 14.775Z" fill="currentColor"/>
</svg>
