<svg viewBox="0 0 96 52" fill="none" xmlns="http://www.w3.org/2000/svg">
<path d="M43.4512 10.4001C47.3047 10.4001 48.5315 10.4216 49.4601 10.5918C54.2416 11.468 57.9832 15.2096 58.8594 19.9911C59.0296 20.9197 59.051 22.1465 59.051 26C59.051 29.8535 59.0296 31.0803 58.8594 32.0089C57.9832 36.7904 54.2416 40.532 49.4601 41.4082C48.5315 41.5784 47.3047 41.5999 43.4512 41.5999V51.9998C43.6246 51.9998 43.7954 51.9998 43.9637 51.9999C47.0893 52.0009 49.3492 52.0017 51.3347 51.6378C60.3664 49.9827 67.4338 42.9153 69.089 33.8836C69.4528 31.898 69.4521 29.6382 69.4511 26.5126C69.451 26.3443 69.451 26.1734 69.451 26C69.451 25.8266 69.451 25.6558 69.4511 25.4874C69.4521 22.3618 69.4528 20.102 69.089 18.1164C67.4338 9.08472 60.3664 2.01734 51.3347 0.362214C49.3491 -0.00166076 47.0894 -0.000919396 43.9637 0.00010651C43.7954 0.00016168 43.6246 0.000217469 43.4512 0.000217469V10.4001Z" fill="currentColor"/>
<path d="M69.4512 10.4001C73.3047 10.4001 74.5315 10.4216 75.4601 10.5918C80.2416 11.468 83.9832 15.2096 84.8594 19.9911C85.0296 20.9197 85.051 22.1465 85.051 26C85.051 29.8535 85.0296 31.0803 84.8594 32.0089C83.9832 36.7904 80.2416 40.532 75.4601 41.4082C74.5315 41.5784 73.3047 41.5999 69.4512 41.5999V51.9998C69.6246 51.9998 69.7954 51.9998 69.9637 51.9999C73.0893 52.0009 75.3492 52.0017 77.3347 51.6378C86.3664 49.9827 93.4338 42.9153 95.089 33.8836C95.4528 31.898 95.4521 29.6382 95.4511 26.5126C95.451 26.3443 95.451 26.1734 95.451 26C95.451 25.8266 95.451 25.6558 95.4511 25.4874C95.4521 22.3618 95.4528 20.102 95.089 18.1164C93.4338 9.08472 86.3664 2.01734 77.3347 0.362214C75.3491 -0.00166076 73.0894 -0.000919396 69.9637 0.00010651C69.7954 0.00016168 69.6246 0.000217469 69.4512 0.000217469V10.4001Z" fill="currentColor"/>
<path d="M17.4512 10.4001C21.3047 10.4001 22.5315 10.4216 23.4601 10.5918C28.2416 11.468 31.9832 15.2096 32.8594 19.9911C33.0296 20.9197 33.051 22.1465 33.051 26C33.051 29.8535 33.0296 31.0803 32.8594 32.0089C31.9832 36.7904 28.2416 40.532 23.4601 41.4082C22.5315 41.5784 21.3047 41.5999 17.4512 41.5999V51.9998C17.6246 51.9998 17.7954 51.9998 17.9637 51.9999C21.0893 52.0009 23.3492 52.0017 25.3347 51.6378C34.3664 49.9827 41.4338 42.9153 43.089 33.8836C43.4528 31.898 43.4521 29.6382 43.4511 26.5126C43.451 26.3443 43.451 26.1734 43.451 26C43.451 25.8266 43.451 25.6558 43.4511 25.4874C43.4521 22.3618 43.4528 20.102 43.089 18.1164C41.4338 9.08472 34.3664 2.01734 25.3347 0.362214C23.3491 -0.00166076 21.0894 -0.000919396 17.9637 0.00010651C17.7954 0.00016168 17.6246 0.000217469 17.4512 0.000217469V10.4001Z" fill="currentColor"/>
<path fill-rule="evenodd" clip-rule="evenodd" d="M0.550782 10.3999L0.550781 4.54587e-07L10.9507 0L10.9507 10.3999H0.550782ZM0.550782 51.9996L0.550781 41.5997H10.9507L10.9507 51.9996H0.550782Z" fill="currentColor"/>
</svg>
