<svg viewBox="0 0 277 24" fill="none" xmlns="http://www.w3.org/2000/svg">
<path fill-rule="evenodd" clip-rule="evenodd" d="M36.5999 0.00024435L36.5999 4.8002L36.5999 9.60017L36.5999 14.4001L36.5999 19.2001L36.5999 24H41.3998H60.5997L60.5997 19.2001H41.3998V14.4001H60.5997L60.5997 9.60017H41.3998V4.8002H60.5997L60.5997 0.000244141H41.3998L36.5999 0.00024435Z" fill="white"/>
<path fill-rule="evenodd" clip-rule="evenodd" d="M144.599 0.00024435L144.599 4.8002L144.599 9.60017L144.599 14.4001L144.599 19.2001L144.599 24H149.399H168.599L168.599 19.2001H149.399V14.4001H168.599L168.599 9.60017H149.399V4.8002H168.599L168.599 0.000244141H149.399L144.599 0.00024435Z" fill="white"/>
<path fill-rule="evenodd" clip-rule="evenodd" d="M225.598 14.4001L225.598 19.2001L225.598 24H230.398H249.598V19.2001H230.398V14.4001H249.598V9.60017H230.398V4.8002H249.598V0.000244141H230.398L225.598 0.00024435L225.598 4.8002L225.598 9.60017L225.598 14.4001Z" fill="white"/>
<path fill-rule="evenodd" clip-rule="evenodd" d="M100.199 19.2001L100.199 4.8002L90.5994 4.8002L90.5994 0.000245304L100.199 0.00024435L104.999 0.000244141L114.599 0.000244255V4.8002L104.999 4.8002L104.999 19.2001H114.599V24L104.999 24H100.199H90.5994L90.5994 19.2001H100.199Z" fill="white"/>
<path fill-rule="evenodd" clip-rule="evenodd" d="M63.5997 9.60017L63.5997 4.8002L63.5997 0.00024435L68.3996 0.000244141H87.5995L87.5995 4.8002H68.3996L68.3996 9.60017H87.5995L87.5995 14.4001H68.3996L68.3996 24H63.5997V14.4001L63.5997 9.60017Z" fill="white"/>
<path fill-rule="evenodd" clip-rule="evenodd" d="M171.599 19.2001L171.599 24H176.399L195.599 24V19.2001L176.399 19.2001L176.399 0.000244141L171.599 0.00024435L171.599 19.2001Z" fill="white"/>
<path fill-rule="evenodd" clip-rule="evenodd" d="M117.599 9.60018L117.599 0.00024435L122.399 0.000244141L122.399 9.60018L136.799 9.60017V0.00024435L141.599 0.000244141L141.599 9.60017V14.4001L141.599 24H136.799V14.4001L122.399 14.4001L122.399 24H117.599V14.4001L117.599 9.60018Z" fill="white"/>
<rect y="4.80005" width="4.79996" height="4.79996" transform="rotate(-90 0 4.80005)" fill="white"/>
<rect y="24" width="4.79996" height="4.79996" transform="rotate(-90 0 24)" fill="white"/>
<path fill-rule="evenodd" clip-rule="evenodd" d="M24.3732 4.88851C23.9446 4.80997 23.3784 4.80006 21.5998 4.80006H14.3999V19.1999H21.5998C23.3784 19.1999 23.9446 19.19 24.3732 19.1115C26.58 18.7071 28.3069 16.9802 28.7113 14.7734C28.7898 14.3448 28.7998 13.7786 28.7998 12C28.7998 10.2214 28.7898 9.65524 28.7113 9.22665C28.3069 7.0198 26.58 5.29293 24.3732 4.88851ZM21.8364 4.91586e-05C23.279 -0.000424337 24.322 -0.000766515 25.2384 0.167176C29.4069 0.931078 32.6687 4.19295 33.4326 8.36143C33.6006 9.27786 33.6002 10.3208 33.5998 11.7634C33.5997 11.8411 33.5997 11.92 33.5997 12C33.5997 12.08 33.5997 12.1589 33.5998 12.2366C33.6002 13.6792 33.6006 14.7221 33.4326 15.6386C32.6687 19.8071 29.4069 23.0689 25.2384 23.8328C24.322 24.0008 23.279 24.0004 21.8364 24C21.7587 23.9999 21.6799 23.9999 21.5998 23.9999H9.59991V0.00010037H21.5998C21.6799 0.00010037 21.7587 7.46215e-05 21.8364 4.91586e-05Z" fill="white"/>
<path fill-rule="evenodd" clip-rule="evenodd" d="M198.599 0.00024435L198.599 24H203.398L203.398 14.4001H215.399C219.375 14.4001 222.598 11.1766 222.598 7.20019C222.598 3.22378 219.375 0.000253887 215.399 0.000253887H203.398V0.000244141L198.599 0.00024435ZM203.399 9.60017V4.80021H215.399C216.724 4.80021 217.798 5.87472 217.798 7.20019C217.798 8.52567 216.724 9.60017 215.399 9.60017H203.399Z" fill="white"/>
<path fill-rule="evenodd" clip-rule="evenodd" d="M252.598 0.00024435L252.598 24H257.398L257.398 14.4001L269.398 14.4001C270.723 14.4001 271.798 15.4746 271.798 16.8001V24H276.598V16.8001C276.598 14.9561 275.905 13.274 274.765 12.0002C275.905 10.7264 276.598 9.04427 276.598 7.20019C276.598 3.22378 273.375 0.000253887 269.398 0.000253887H257.398V0.000244141L252.598 0.00024435ZM257.398 4.80021V9.60017H269.398C270.724 9.60017 271.798 8.52567 271.798 7.20019C271.798 5.87472 270.724 4.80021 269.398 4.80021H257.398Z" fill="white"/>
</svg>
