<svg width="172" height="15" viewBox="0 0 172 15" fill="none" xmlns="http://www.w3.org/2000/svg">
<path fill-rule="evenodd" clip-rule="evenodd" d="M21.75 9.00005L21.75 12L21.75 15H24.75H36.7499V12H24.75L24.75 9.00005H36.7499V6.00007H24.75L24.75 3.0001H36.7499V0.000122201L24.75 0.00012207L21.75 0.000122201L21.75 0.00012238L21.75 3.0001L21.75 6.00007L21.75 9.00005Z" fill="currentColor"/>
<path fill-rule="evenodd" clip-rule="evenodd" d="M89.2493 9.00005L89.2493 12L89.2493 15H92.2492H104.249V12H92.2492L92.2492 9.00005H104.249V6.00007H92.2492L92.2492 3.0001H104.249V0.000122201L92.2492 0.00012207L89.2493 0.000122201L89.2493 0.00012238L89.2493 3.0001L89.2493 6.00007L89.2493 9.00005Z" fill="currentColor"/>
<path fill-rule="evenodd" clip-rule="evenodd" d="M139.874 9.00005L139.874 12L139.874 15H142.874H154.874V12H142.874L142.874 9.00005H154.874V6.00007H142.874L142.874 3.0001H154.874V0.000122201L142.874 0.00012207L139.874 0.000122201L139.874 0.00012238L139.874 3.0001L139.874 6.00007L139.874 9.00005Z" fill="currentColor"/>
<path fill-rule="evenodd" clip-rule="evenodd" d="M61.4995 12L61.4995 3.0001L55.4995 3.0001L55.4995 0.000122917L61.4995 0.000122201L64.4994 0.00012207L70.4994 0.000122201V3.0001L64.4994 3.0001L64.4994 12H70.4994V15H64.4994H61.4995H55.4995L55.4995 12H61.4995Z" fill="currentColor"/>
<path fill-rule="evenodd" clip-rule="evenodd" d="M38.6248 6.00007L38.6248 3.0001L38.6248 0.00012238L38.6248 0.000122201L41.6247 0.00012207L53.6246 0.000122201V3.0001H41.6247V6.00007H53.6246V9.00005H41.6247L41.6247 15H38.6248V9.00005L38.6248 6.00007Z" fill="currentColor"/>
<path fill-rule="evenodd" clip-rule="evenodd" d="M106.124 12L106.124 15H109.124H121.124V12H109.124L109.124 0.00012207L106.124 0.000122201L106.124 12Z" fill="currentColor"/>
<path fill-rule="evenodd" clip-rule="evenodd" d="M72.3745 6.00007L72.3745 0.000122201L75.3745 0.00012207L75.3745 6.00007L84.3744 6.00007V0.000122201L87.3744 0.00012207V6.00007V9.00005V15H84.3744V9.00005L75.3745 9.00005L75.3745 15H72.3745V9.00005L72.3745 6.00007Z" fill="currentColor"/>
<rect y="3.00024" width="2.99997" height="2.99997" transform="rotate(-90 0 3.00024)" fill="currentColor"/>
<rect y="15" width="2.99997" height="2.99997" transform="rotate(-90 0 15)" fill="currentColor"/>
<path fill-rule="evenodd" clip-rule="evenodd" d="M14.1083 3.05532C13.8404 3.00623 13.4865 3.00004 12.3749 3.00004H7.87497V12H12.3749C13.4865 12 13.8404 11.9938 14.1083 11.9447C15.4876 11.6919 16.5669 10.6126 16.8196 9.23335C16.8687 8.96548 16.8749 8.6116 16.8749 7.5C16.8749 6.3884 16.8687 6.03452 16.8196 5.76665C16.5669 4.38738 15.4876 3.30808 14.1083 3.05532ZM12.5228 3.07241e-05C13.4244 -0.00026521 14.0763 -0.000479072 14.649 0.104485C17.2543 0.581924 19.293 2.62059 19.7705 5.22589C19.8754 5.79866 19.8752 6.45052 19.8749 7.35215C19.8749 7.4007 19.8749 7.44998 19.8749 7.5C19.8749 7.55003 19.8749 7.5993 19.8749 7.64785C19.8752 8.54949 19.8754 9.20134 19.7705 9.77411C19.293 12.3794 17.2543 14.4181 14.649 14.8955C14.0763 15.0005 13.4244 15.0003 12.5228 15C12.4742 15 12.425 14.9999 12.3749 14.9999H4.875V6.27315e-05H12.3749C12.425 6.27315e-05 12.4742 4.66384e-05 12.5228 3.07241e-05Z" fill="currentColor"/>
<path fill-rule="evenodd" clip-rule="evenodd" d="M122.999 9.00005V15H125.999L125.999 9.00005H133.499C135.984 9.00005 137.999 6.98534 137.999 4.50008C137.999 2.01482 135.984 0.000122201 133.499 0.000122201L125.999 0.00012207L122.999 0.000122201L122.999 9.00005ZM125.999 3.0001V6.00007H133.499C134.327 6.00007 134.999 5.32851 134.999 4.50008C134.999 3.67166 134.327 3.0001 133.499 3.0001H125.999Z" fill="currentColor"/>
<path fill-rule="evenodd" clip-rule="evenodd" d="M156.749 0.000122201L156.749 9.00005V15H159.749L159.749 9.00005H167.249C168.077 9.00005 168.749 9.67161 168.749 10.5V15H171.749V10.5C171.749 9.34751 171.315 8.29619 170.603 7.50006C171.315 6.70393 171.749 5.65261 171.749 4.50008C171.749 2.01482 169.734 0.000122201 167.249 0.000122201L159.749 0.00012207L156.749 0.000122201ZM159.749 6.00007H167.249C168.077 6.00007 168.749 5.32851 168.749 4.50008C168.749 3.67166 168.077 3.0001 167.249 3.0001H159.749V6.00007Z" fill="currentColor"/>
</svg>
