<svg width="20" height="15" viewBox="0 0 20 15" fill="none" xmlns="http://www.w3.org/2000/svg">
<rect y="3.00024" width="2.99997" height="2.99997" transform="rotate(-90 0 3.00024)" fill="currentColor"/>
<rect y="15" width="2.99997" height="2.99997" transform="rotate(-90 0 15)" fill="currentColor"/>
<path fill-rule="evenodd" clip-rule="evenodd" d="M14.1083 3.05532C13.8404 3.00623 13.4865 3.00004 12.3749 3.00004H7.87497V12H12.3749C13.4865 12 13.8404 11.9938 14.1083 11.9447C15.4876 11.6919 16.5669 10.6126 16.8196 9.23335C16.8687 8.96548 16.8749 8.6116 16.8749 7.5C16.8749 6.3884 16.8687 6.03452 16.8196 5.76665C16.5669 4.38738 15.4876 3.30808 14.1083 3.05532ZM12.5228 3.07241e-05C13.4244 -0.00026521 14.0763 -0.000479072 14.649 0.104485C17.2543 0.581924 19.293 2.62059 19.7705 5.22589C19.8754 5.79866 19.8752 6.45052 19.8749 7.35215C19.8749 7.4007 19.8749 7.44998 19.8749 7.5C19.8749 7.55003 19.8749 7.5993 19.8749 7.64785C19.8752 8.54949 19.8754 9.20134 19.7705 9.77411C19.293 12.3794 17.2543 14.4181 14.649 14.8955C14.0763 15.0005 13.4244 15.0003 12.5228 15C12.4742 15 12.425 14.9999 12.3749 14.9999H4.875V6.27315e-05H12.3749C12.425 6.27315e-05 12.4742 4.66384e-05 12.5228 3.07241e-05Z" fill="currentColor"/>
</svg>
