<svg width="34" height="24" viewBox="0 0 34 24" fill="none" xmlns="http://www.w3.org/2000/svg">
<rect y="4.80029" width="4.79996" height="4.79996" transform="rotate(-90 0 4.80029)" fill="white"/>
<rect y="24" width="4.79996" height="4.79996" transform="rotate(-90 0 24)" fill="white"/>
<path fill-rule="evenodd" clip-rule="evenodd" d="M24.3732 4.88851C23.9446 4.80997 23.3784 4.80006 21.5998 4.80006H14.3999V19.1999H21.5998C23.3784 19.1999 23.9446 19.19 24.3732 19.1115C26.58 18.7071 28.3069 16.9802 28.7113 14.7734C28.7898 14.3448 28.7998 13.7786 28.7998 12C28.7998 10.2214 28.7898 9.65524 28.7113 9.22665C28.3069 7.0198 26.58 5.29293 24.3732 4.88851ZM21.8364 4.91586e-05C23.279 -0.000424337 24.322 -0.000766515 25.2384 0.167176C29.4069 0.931078 32.6687 4.19295 33.4326 8.36143C33.6006 9.27786 33.6002 10.3208 33.5998 11.7634C33.5997 11.8411 33.5997 11.92 33.5997 12C33.5997 12.08 33.5997 12.1589 33.5998 12.2366C33.6002 13.6792 33.6006 14.7221 33.4326 15.6386C32.6687 19.8071 29.4069 23.0689 25.2384 23.8328C24.322 24.0008 23.279 24.0004 21.8364 24C21.7587 23.9999 21.6799 23.9999 21.5998 23.9999H9.59991V0.00010037H21.5998C21.6799 0.00010037 21.7587 7.46215e-05 21.8364 4.91586e-05Z" fill="white"/>
</svg>
