<svg viewBox="0 0 24 24" fill="none" xmlns="http://www.w3.org/2000/svg">
<path d="M19 13.3629L19.4897 13.4639L19.7593 12.1564L18.6971 12.9651L19 13.3629ZM10.6371 5L11.035 5.30288L11.8436 4.24071L10.5362 4.5103L10.6371 5ZM18.6971 12.9651C17.7785 13.6644 16.6326 14.0794 15.3883 14.0794V15.0794C16.8589 15.0794 18.2162 14.588 19.3029 13.7607L18.6971 12.9651ZM15.3883 14.0794C12.3686 14.0794 9.92057 11.6314 9.92057 8.61167H8.92057C8.92057 12.1837 11.8163 15.0794 15.3883 15.0794V14.0794ZM9.92057 8.61167C9.92057 7.36741 10.3356 6.22152 11.035 5.30288L10.2393 4.69712C9.41198 5.78381 8.92057 7.14107 8.92057 8.61167H9.92057ZM5.5 11.9271C5.5 8.75472 7.74792 6.10625 10.7381 5.4897L10.5362 4.5103C7.09064 5.22074 4.5 8.27081 4.5 11.9271H5.5ZM12.0729 18.5C8.44279 18.5 5.5 15.5572 5.5 11.9271H4.5C4.5 16.1095 7.89051 19.5 12.0729 19.5V18.5ZM18.5103 13.2619C17.8937 16.2521 15.2453 18.5 12.0729 18.5V19.5C15.7292 19.5 18.7792 16.9094 19.4897 13.4639L18.5103 13.2619Z" fill="currentColor"/>
</svg>
