
<svg xmlns="http://www.w3.org/2000/svg" width="18" height="14" viewBox="0 0 320 245" fill="none"><path d="M281.126 208.891L280.983 208.82C280.554 209.463 280.054 210.106 279.625 210.75C280.125 210.106 280.697 209.534 281.126 208.891Z" fill="currentColor"></path><path d="M320 92.6498C318.714 41.2492 276.766 0 225.172 0C199.803 0 176.865 10.0085 159.786 26.2365C142.849 10.0085 119.982 0 94.828 0C43.2336 0 1.28629 41.7496 0 93.7936V94.1511V94.5085C0 134.113 14.3636 169.286 27.5123 193.449C34.1581 205.745 40.8754 215.754 45.9491 222.76C48.4502 226.263 50.6655 229.051 52.2376 231.053C53.0237 232.053 53.6668 232.84 54.167 233.412C54.3814 233.698 54.5958 233.912 54.7387 234.127C54.8102 234.198 54.8816 234.27 54.9531 234.341L55.0246 234.413L55.096 234.484C66.1009 247.281 85.2523 248.567 97.9008 237.415C110.478 226.263 111.764 206.889 100.831 194.093C100.831 194.093 100.831 194.093 100.831 194.021C100.831 193.95 100.759 193.878 100.616 193.807C100.402 193.521 100.045 193.092 99.473 192.449C98.4725 191.162 96.9004 189.16 94.971 186.443C91.1121 181.082 85.8955 173.289 80.7503 163.71C70.1742 144.265 60.8843 119.744 60.7414 94.866C61.3845 76.2788 76.4627 61.4091 94.8995 61.4091C113.479 61.4091 128.629 76.4218 129.058 95.2234C129.201 100.013 130.415 104.517 132.416 108.52C136.704 120.03 147.78 128.251 160.786 128.251C177.508 128.251 191.085 114.668 191.085 97.8685V93.7936C191.728 75.421 206.807 60.7657 225.243 60.7657C243.68 60.7657 258.758 75.4924 259.402 93.7936C259.33 113.811 252.899 133.47 245.681 149.055C242.108 156.704 238.607 162.924 236.034 167.213C234.748 169.358 233.676 170.93 233.033 171.931C232.675 172.432 232.461 172.789 232.318 172.932C232.247 173.004 232.247 173.075 232.175 173.075C232.104 173.218 231.889 173.504 231.889 173.504C237.463 166.498 245.967 162.066 255.614 162.066C272.336 162.066 285.913 175.649 285.913 192.377C285.913 198.454 284.127 204.03 281.054 208.82C281.197 208.891 281.197 208.891 281.197 208.891V208.82L281.268 208.748C281.34 208.677 281.34 208.605 281.411 208.534C281.554 208.391 281.697 208.176 281.84 207.89C282.197 207.39 282.626 206.746 283.198 205.888C284.341 204.244 285.842 201.885 287.628 198.954C291.201 193.092 295.918 184.799 300.634 174.576C309.924 154.559 319.929 125.678 319.929 93.3647V93.0073L320 92.6498Z" fill="currentColor"></path><path d="M255.543 162.066C245.967 162.066 237.392 166.569 231.818 173.504C227.673 178.651 225.243 185.228 225.243 192.377C225.243 209.105 238.821 222.688 255.543 222.688C265.404 222.688 274.051 217.97 279.625 210.75C280.125 210.106 280.554 209.463 280.983 208.82C284.055 204.101 285.842 198.454 285.842 192.377C285.842 175.649 272.336 162.066 255.543 162.066Z" fill="#B7E803"></path></svg>
