<svg width="72" height="56" viewBox="0 0 72 56" fill="none" xmlns="http://www.w3.org/2000/svg">
<path d="M36 19.61C33.55 19.61 31.5208 19.2607 29.9125 18.5621C28.3042 17.8636 27.5 17.0486 27.5 16.1171C27.5 15.1691 28.3042 14.3499 29.9125 13.6597C31.5208 12.9694 33.55 12.6243 36 12.6243C38.45 12.6243 40.4792 12.9694 42.0875 13.6597C43.6958 14.3499 44.5 15.1691 44.5 16.1171C44.5 17.0486 43.6958 17.8636 42.0875 18.5621C40.4792 19.2607 38.45 19.61 36 19.61ZM36 23.6018C33.6667 23.6018 31.6667 23.2733 30 22.6163C28.3333 21.9593 27.5 21.1651 27.5 20.2337V19.61C27.7667 19.9593 28.1833 20.2878 28.75 20.5955C29.3167 20.9032 29.9833 21.1693 30.75 21.3938C31.5167 21.6184 32.35 21.793 33.25 21.9178C34.15 22.0425 35.0667 22.1049 36 22.1049C36.9333 22.1049 37.85 22.0425 38.75 21.9178C39.65 21.793 40.4833 21.6184 41.25 21.3938C42.0167 21.1693 42.6833 20.9073 43.25 20.6079C43.8167 20.3086 44.2333 19.9759 44.5 19.61V20.2337C44.5 21.1651 43.6667 21.9593 42 22.6163C40.3333 23.2733 38.3333 23.6018 36 23.6018ZM36 27.5937C33.6667 27.5937 31.6667 27.2652 30 26.6082C28.3333 25.9512 27.5 25.157 27.5 24.2255V23.6018C27.7667 23.9511 28.1833 24.2796 28.75 24.5873C29.3167 24.895 29.9833 25.1611 30.75 25.3857C31.5167 25.6102 32.35 25.7849 33.25 25.9096C34.15 26.0343 35.0667 26.0967 36 26.0967C36.9333 26.0967 37.85 26.0343 38.75 25.9096C39.65 25.7849 40.4833 25.6102 41.25 25.3857C42.0167 25.1611 42.6833 24.8992 43.25 24.5998C43.8167 24.3004 44.2333 23.9677 44.5 23.6018V24.2255C44.5 25.157 43.6667 25.9512 42 26.6082C40.3333 27.2652 38.3333 27.5937 36 27.5937Z" fill="#CCFF3C"/>
<path d="M12 19.61C9.55 19.61 7.52083 19.2607 5.9125 18.5621C4.30417 17.8636 3.5 17.0486 3.5 16.1171C3.5 15.1691 4.30417 14.3499 5.9125 13.6597C7.52083 12.9694 9.55 12.6243 12 12.6243C14.45 12.6243 16.4792 12.9694 18.0875 13.6597C19.6958 14.3499 20.5 15.1691 20.5 16.1171C20.5 17.0486 19.6958 17.8636 18.0875 18.5621C16.4792 19.2607 14.45 19.61 12 19.61ZM12 23.6018C9.66667 23.6018 7.66667 23.2733 6 22.6163C4.33333 21.9593 3.5 21.1651 3.5 20.2337V19.61C3.76667 19.9593 4.18333 20.2878 4.75 20.5955C5.31667 20.9032 5.98333 21.1693 6.75 21.3938C7.51667 21.6184 8.35 21.793 9.25 21.9178C10.15 22.0425 11.0667 22.1049 12 22.1049C12.9333 22.1049 13.85 22.0425 14.75 21.9178C15.65 21.793 16.4833 21.6184 17.25 21.3938C18.0167 21.1693 18.6833 20.9073 19.25 20.6079C19.8167 20.3086 20.2333 19.9759 20.5 19.61V20.2337C20.5 21.1651 19.6667 21.9593 18 22.6163C16.3333 23.2733 14.3333 23.6018 12 23.6018ZM12 27.5937C9.66667 27.5937 7.66667 27.2652 6 26.6082C4.33333 25.9512 3.5 25.157 3.5 24.2255V23.6018C3.76667 23.9511 4.18333 24.2796 4.75 24.5873C5.31667 24.895 5.98333 25.1611 6.75 25.3857C7.51667 25.6102 8.35 25.7849 9.25 25.9096C10.15 26.0343 11.0667 26.0967 12 26.0967C12.9333 26.0967 13.85 26.0343 14.75 25.9096C15.65 25.7849 16.4833 25.6102 17.25 25.3857C18.0167 25.1611 18.6833 24.8992 19.25 24.5998C19.8167 24.3004 20.2333 23.9677 20.5 23.6018V24.2255C20.5 25.157 19.6667 25.9512 18 26.6082C16.3333 27.2652 14.3333 27.5937 12 27.5937Z" fill="url(#paint0_linear_4272_674453)"/>
<g clip-path="url(#clip0_4272_674453)">
<path fill-rule="evenodd" clip-rule="evenodd" d="M19.0786 26.125C20.0262 25.5776 20.5 24.952 20.5 24.2483V23.6233C20.2333 23.99 19.8167 24.3233 19.25 24.6233C19.0706 24.7183 18.8812 24.8095 18.6817 24.897C18.7996 25.3126 18.9322 25.7222 19.0786 26.125ZM16.7847 25.5391C16.9186 26.0024 17.0689 26.4587 17.2348 26.9075C15.7315 27.3847 13.9865 27.6233 12 27.6233C9.66667 27.6233 7.66667 27.2941 6 26.6358C4.33333 25.9775 3.5 25.1816 3.5 24.2483V23.6233C3.76667 23.9733 4.18333 24.3025 4.75 24.6108C5.31667 24.9191 5.98333 25.1858 6.75 25.4108C7.51667 25.6358 8.35 25.8108 9.25 25.9358C10.15 26.0608 11.0667 26.1233 12 26.1233C12.9333 26.1233 13.85 26.0608 14.75 25.9358C15.471 25.8357 16.1492 25.7034 16.7847 25.5391ZM18.1846 22.5609C19.7282 21.9174 20.5 21.1465 20.5 20.2483V19.6233C20.2333 19.99 19.8167 20.3233 19.25 20.6233C18.8871 20.8154 18.4831 20.9922 18.0381 21.1536C18.0688 21.6279 18.1179 22.0973 18.1846 22.5609ZM16.074 21.7057C16.1165 22.2014 16.1771 22.692 16.2552 23.1767C14.9875 23.4744 13.5691 23.6233 12 23.6233C9.66667 23.6233 7.66667 23.2941 6 22.6358C4.33333 21.9775 3.5 21.1816 3.5 20.2483V19.6233C3.76667 19.9733 4.18333 20.3025 4.75 20.6108C5.31667 20.9191 5.98333 21.1858 6.75 21.4108C7.51667 21.6358 8.35 21.8108 9.25 21.9358C10.15 22.0608 11.0667 22.1233 12 22.1233C12.9333 22.1233 13.85 22.0608 14.75 21.9358C15.2086 21.8721 15.65 21.7954 16.074 21.7057ZM18.0525 18.5884C18.1711 17.0299 18.4881 15.5267 18.9785 14.1043C19.9928 14.6959 20.5 15.3688 20.5 16.1233C20.5 17.0566 19.6958 17.8733 18.0875 18.5733C18.0758 18.5784 18.0642 18.5834 18.0525 18.5884ZM16.0135 19.2326C14.8322 19.4931 13.4944 19.6233 12 19.6233C9.55 19.6233 7.52083 19.2733 5.9125 18.5733C4.30417 17.8733 3.5 17.0566 3.5 16.1233C3.5 15.1733 4.30417 14.3525 5.9125 13.6608C7.52083 12.9691 9.55 12.6233 12 12.6233C13.9902 12.6233 15.7027 12.8515 17.1376 13.3079C16.479 15.1716 16.0888 17.1619 16.0135 19.2326Z" fill="#CCFF3C"/>
</g>
<path d="M60 19.61C62.45 19.61 64.4792 19.2607 66.0875 18.5621C67.6958 17.8636 68.5 17.0486 68.5 16.1171C68.5 15.1691 67.6958 14.3499 66.0875 13.6597C64.4792 12.9694 62.45 12.6243 60 12.6243C57.55 12.6243 55.5208 12.9694 53.9125 13.6597C52.3042 14.3499 51.5 15.1691 51.5 16.1171C51.5 17.0486 52.3042 17.8636 53.9125 18.5621C55.5208 19.2607 57.55 19.61 60 19.61ZM60 23.6018C62.3333 23.6018 64.3333 23.2733 66 22.6163C67.6667 21.9593 68.5 21.1651 68.5 20.2337V19.61C68.2333 19.9593 67.8167 20.2878 67.25 20.5955C66.6833 20.9032 66.0167 21.1693 65.25 21.3938C64.4833 21.6184 63.65 21.793 62.75 21.9178C61.85 22.0425 60.9333 22.1049 60 22.1049C59.0667 22.1049 58.15 22.0425 57.25 21.9178C56.35 21.793 55.5167 21.6184 54.75 21.3938C53.9833 21.1693 53.3167 20.9073 52.75 20.6079C52.1833 20.3086 51.7667 19.9759 51.5 19.61V20.2337C51.5 21.1651 52.3333 21.9593 54 22.6163C55.6667 23.2733 57.6667 23.6018 60 23.6018ZM60 27.5937C62.3333 27.5937 64.3333 27.2652 66 26.6082C67.6667 25.9512 68.5 25.157 68.5 24.2255V23.6018C68.2333 23.9511 67.8167 24.2796 67.25 24.5873C66.6833 24.895 66.0167 25.1611 65.25 25.3857C64.4833 25.6102 63.65 25.7849 62.75 25.9096C61.85 26.0343 60.9333 26.0967 60 26.0967C59.0667 26.0967 58.15 26.0343 57.25 25.9096C56.35 25.7849 55.5167 25.6102 54.75 25.3857C53.9833 25.1611 53.3167 24.8992 52.75 24.5998C52.1833 24.3004 51.7667 23.9677 51.5 23.6018V24.2255C51.5 25.157 52.3333 25.9512 54 26.6082C55.6667 27.2652 57.6667 27.5937 60 27.5937Z" fill="url(#paint1_linear_4272_674453)"/>
<g clip-path="url(#clip1_4272_674453)">
<path fill-rule="evenodd" clip-rule="evenodd" d="M52.9214 26.125C51.9738 25.5776 51.5 24.952 51.5 24.2483V23.6233C51.7667 23.99 52.1833 24.3233 52.75 24.6233C52.9294 24.7183 53.1188 24.8095 53.3183 24.897C53.2004 25.3126 53.0678 25.7222 52.9214 26.125ZM55.2153 25.5391C55.0814 26.0024 54.9311 26.4587 54.7652 26.9075C56.2685 27.3847 58.0135 27.6233 60 27.6233C62.3333 27.6233 64.3333 27.2941 66 26.6358C67.6667 25.9775 68.5 25.1816 68.5 24.2483V23.6233C68.2333 23.9733 67.8167 24.3025 67.25 24.6108C66.6833 24.9191 66.0167 25.1858 65.25 25.4108C64.4833 25.6358 63.65 25.8108 62.75 25.9358C61.85 26.0608 60.9333 26.1233 60 26.1233C59.0667 26.1233 58.15 26.0608 57.25 25.9358C56.529 25.8357 55.8508 25.7034 55.2153 25.5391ZM53.8154 22.5609C52.2718 21.9174 51.5 21.1465 51.5 20.2483V19.6233C51.7667 19.99 52.1833 20.3233 52.75 20.6233C53.1129 20.8154 53.5169 20.9922 53.9619 21.1536C53.9312 21.6279 53.8821 22.0973 53.8154 22.5609ZM55.926 21.7057C55.8835 22.2014 55.8229 22.692 55.7448 23.1767C57.0125 23.4744 58.4309 23.6233 60 23.6233C62.3333 23.6233 64.3333 23.2941 66 22.6358C67.6667 21.9775 68.5 21.1816 68.5 20.2483V19.6233C68.2333 19.9733 67.8167 20.3025 67.25 20.6108C66.6833 20.9191 66.0167 21.1858 65.25 21.4108C64.4833 21.6358 63.65 21.8108 62.75 21.9358C61.85 22.0608 60.9333 22.1233 60 22.1233C59.0667 22.1233 58.15 22.0608 57.25 21.9358C56.7914 21.8721 56.35 21.7954 55.926 21.7057ZM53.9475 18.5884C53.8289 17.0299 53.5119 15.5267 53.0215 14.1043C52.0072 14.6959 51.5 15.3688 51.5 16.1233C51.5 17.0566 52.3042 17.8733 53.9125 18.5733C53.9242 18.5784 53.9358 18.5834 53.9475 18.5884ZM55.9865 19.2326C57.1678 19.4931 58.5056 19.6233 60 19.6233C62.45 19.6233 64.4792 19.2733 66.0875 18.5733C67.6958 17.8733 68.5 17.0566 68.5 16.1233C68.5 15.1733 67.6958 14.3525 66.0875 13.6608C64.4792 12.9691 62.45 12.6233 60 12.6233C58.0098 12.6233 56.2973 12.8515 54.8624 13.3079C55.521 15.1716 55.9112 17.1619 55.9865 19.2326Z" fill="#CCFF3C"/>
</g>
<g filter="url(#filter0_d_4272_674453)">
<path fill-rule="evenodd" clip-rule="evenodd" d="M54 19.9592C54 29.8739 45.945 37.9184 36 37.9184C26.055 37.9184 18 29.8739 18 19.9592C18 10.0445 26.055 2 36 2C45.945 2 54 10.0445 54 19.9592ZM49.4164 34.7615C45.8683 37.9663 41.1626 39.9184 36 39.9184C24.9543 39.9184 16 30.9823 16 19.9592C16 8.93603 24.9543 0 36 0C47.0457 0 56 8.93603 56 19.9592C56 25.1115 54.0438 29.8078 50.8321 33.3488L63.8055 46.2957C64.1964 46.6858 64.1964 47.3183 63.8055 47.7084C63.4146 48.0986 62.7808 48.0986 62.3898 47.7084L49.4164 34.7615Z" fill="#4463EE"/>
</g>
<defs>
<filter id="filter0_d_4272_674453" x="12" y="0" width="56.0996" height="56.001" filterUnits="userSpaceOnUse" color-interpolation-filters="sRGB">
<feFlood flood-opacity="0" result="BackgroundImageFix"/>
<feColorMatrix in="SourceAlpha" type="matrix" values="0 0 0 0 0 0 0 0 0 0 0 0 0 0 0 0 0 0 127 0" result="hardAlpha"/>
<feOffset dy="4"/>
<feGaussianBlur stdDeviation="2"/>
<feComposite in2="hardAlpha" operator="out"/>
<feColorMatrix type="matrix" values="0 0 0 0 0 0 0 0 0 0 0 0 0 0 0 0 0 0 0.25 0"/>
<feBlend mode="normal" in2="BackgroundImageFix" result="effect1_dropShadow_4272_674453"/>
<feBlend mode="normal" in="SourceGraphic" in2="effect1_dropShadow_4272_674453" result="shape"/>
</filter>
<linearGradient id="paint0_linear_4272_674453" x1="21" y1="19.9594" x2="-25.5" y2="19.4583" gradientUnits="userSpaceOnUse">
<stop stop-color="currentColor"/>
<stop offset="1" stop-color="currentColor" stop-opacity="0"/>
</linearGradient>
<linearGradient id="paint1_linear_4272_674453" x1="51" y1="19.9594" x2="97.5" y2="19.4583" gradientUnits="userSpaceOnUse">
<stop stop-color="currentColor"/>
<stop offset="1" stop-color="currentColor" stop-opacity="0"/>
</linearGradient>
<clipPath id="clip0_4272_674453">
<rect width="3" height="14.9694" fill="currentColor" transform="translate(18 12.9734)"/>
</clipPath>
<clipPath id="clip1_4272_674453">
<rect width="3" height="14.9694" fill="currentColor" transform="matrix(-1 0 0 1 54 12.9734)"/>
</clipPath>
</defs>
</svg>
