<svg xmlns="http://www.w3.org/2000/svg" width="50" height="48" fill="none" viewBox="0 0 50 48">
  <path fill="currentColor" d="M5.773 45.084a4.743 4.743 0 0 1-4.739-4.74V5.775a4.743 4.743 0 0 1 4.74-4.74h27.452a4.743 4.743 0 0 1 4.739 4.74v16.395c0 .29.233.512.511.512h.011a.518.518 0 0 0 .512-.512V5.773A5.775 5.775 0 0 0 33.226 0H5.773A5.775 5.775 0 0 0 0 5.773v34.572a5.775 5.775 0 0 0 5.773 5.773H28.32a.522.522 0 1 0 0-1.046H5.773v.011Z"/>
  <path fill="currentColor" d="M26.006 28.42H9.833c-.19 0-.4.234-.4.567 0 .334.21.568.4.568h16.173c.19 0 .39-.234.39-.568.01-.333-.2-.567-.39-.567ZM24.75 37.888H9.755c-.155 0-.345.255-.345.59 0 .333.19.589.345.589H24.75c.155 0 .345-.256.345-.59 0-.322-.19-.59-.345-.59ZM10.01 20.023H29a.522.522 0 1 0 0-1.046H10.01a.522.522 0 1 0 0 1.046ZM10.01 10.524h18.988a.522.522 0 1 0 0-1.046H10.01a.522.522 0 1 0 0 1.046ZM28.098 36.364c0-5.562 4.383-10.123 9.867-10.412v-1.046c-6.074.29-10.913 5.317-10.913 11.457a11.45 11.45 0 0 0 4.026 8.721h1.737c-2.848-1.868-4.717-5.072-4.717-8.72Z"/>
  <path fill="currentColor" d="M38.999 24.907v1.045c5.528.256 9.944 4.828 9.944 10.423 0 5.75-4.683 10.434-10.433 10.434a10.27 10.27 0 0 1-3.883-.757c-.289.056-.59.078-.9.078H32.48a11.425 11.425 0 0 0 6.04 1.724c6.329 0 11.479-5.15 11.479-11.48 0-6.173-4.894-11.223-11.001-11.468Z"/>
  <path fill="currentColor" d="M34.638 46.041a10.275 10.275 0 0 1-1.835-.957h-1.735c.444.378.923.723 1.423 1.035h1.246c.311 0 .612-.022.901-.078ZM37.964 24.906v1.046c.19-.011.368-.012.557-.012.155 0 .322 0 .478.011v-1.046c-.156-.01-.323-.01-.478-.01-.19 0-.368 0-.557.011ZM37.998 30.889v6.385a.51.51 0 0 0 .2.411l4.561 3.649a.496.496 0 0 0 .323.111.526.526 0 0 0 .334-.934l-4.36-3.493v-6.14a.522.522 0 0 0-.524-.523.541.541 0 0 0-.534.534Z"/>
</svg>
