<svg viewBox="0 0 16 16" fill="none" xmlns="http://www.w3.org/2000/svg">
<rect x="0.5" y="0.5" width="15" height="15" rx="3.5" stroke="currentColor"/>
<path d="M7.39419 9.336H8.35419V9.144C8.35419 8.508 8.59419 8.292 9.12219 7.884L9.62619 7.488C10.2022 7.044 10.5382 6.444 10.5382 5.652C10.5382 4.344 9.53019 3.48 8.03019 3.48C6.29019 3.48 5.46219 4.62 5.46219 5.904H6.49419C6.49419 5.04 6.93819 4.38 8.03019 4.38C9.00219 4.38 9.48219 4.944 9.48219 5.676C9.47019 6.228 9.25419 6.6 8.85819 6.912L8.47419 7.212C7.79019 7.752 7.39419 8.124 7.39419 9.144V9.336ZM7.22619 12H8.52219V10.68H7.22619V12Z" fill="currentColor"/>
</svg>
