<svg viewBox="0 0 18 17" fill="none" xmlns="http://www.w3.org/2000/svg">
<path d="M8.09194 0.968664C8.44936 0.193792 9.55064 0.193793 9.90806 0.968665L11.5869 4.60843C11.7326 4.92423 12.0319 5.14168 12.3772 5.18262L16.3576 5.65457C17.205 5.75504 17.5454 6.80243 16.9189 7.38179L13.976 10.1032C13.7207 10.3394 13.6064 10.6912 13.6742 11.0323L14.4553 14.9637C14.6216 15.8007 13.7307 16.448 12.9861 16.0312L9.48844 14.0734C9.18497 13.9035 8.81503 13.9035 8.51156 14.0734L5.01393 16.0312C4.26932 16.448 3.37836 15.8007 3.54467 14.9637L4.32584 11.0323C4.39362 10.6912 4.2793 10.3394 4.02396 10.1032L1.08114 7.38179C0.454641 6.80242 0.794958 5.75504 1.64235 5.65457L5.62277 5.18262C5.96813 5.14168 6.26742 4.92423 6.41308 4.60843L8.09194 0.968664Z" fill="currentColor"/>
</svg>
