<svg viewBox="0 0 24 24" fill="none" xmlns="http://www.w3.org/2000/svg">
<path d="M12 16C14.2091 16 16 14.2091 16 12C16 9.79086 14.2091 8 12 8C9.79086 8 8 9.79086 8 12C8 14.2091 9.79086 16 12 16Z" stroke="currentColor" stroke-width="1.2"/>
<path d="M17.2364 6.76364L18.3818 5.61818M12 3V4.63636V3ZM12 19.3636V21V19.3636ZM5.61818 5.61818L6.76364 6.76364L5.61818 5.61818ZM17.2364 17.2364L18.3818 18.3818L17.2364 17.2364ZM3 12H4.63636H3ZM19.3636 12H21H19.3636ZM5.61818 18.3818L6.76364 17.2364L5.61818 18.3818Z" stroke="currentColor" stroke-width="1.2"/>
</svg>
