<svg xmlns="http://www.w3.org/2000/svg" fill="none">
  <path fill="currentColor" d="M8.108 12c.17 0 .317-.054.44-.163a.53.53 0 0 0 .187-.418.538.538 0 0 0-.186-.408.627.627 0 0 0-.441-.172.618.618 0 0 0-.45.172.551.551 0 0 0-.177.409c0 .169.059.308.176.417a.637.637 0 0 0 .45.163Zm-.53-2.522h.863c.013-.326.082-.601.206-.825.124-.224.342-.48.656-.77.405-.364.689-.69.852-.98.164-.29.245-.6.245-.926 0-.604-.212-1.085-.637-1.442C9.34 4.178 8.793 4 8.127 4c-.613 0-1.136.14-1.567.417a2.6 2.6 0 0 0-.96 1.07l.823.327c.183-.314.408-.56.676-.735.268-.175.604-.263 1.009-.263.47 0 .826.112 1.068.336.241.224.362.505.362.843 0 .254-.069.487-.206.699-.137.212-.362.45-.676.716-.457.412-.75.762-.881 1.053-.13.29-.196.628-.196 1.015Z"/>
</svg>
