<svg width="133" height="129" viewBox="0 0 133 129" fill="none" xmlns="http://www.w3.org/2000/svg">
<path d="M138 81.7861C131.235 70.5411 122.996 60.8277 113.283 52.646C103.569 44.4643 92.327 38.6624 79.5553 35.2402C76.0135 34.2912 72.5484 33.5928 69.16 33.145C65.7716 32.6972 62.8641 32.4933 60.4378 32.5333L53.795 21.2634C58.0038 21.0108 62.5163 21.1271 67.3326 21.6124C72.1489 22.0977 77.1865 23.0449 82.4454 24.454C96.827 28.3076 109.547 34.8216 120.604 43.9962C131.662 53.1708 140.659 63.9211 147.594 76.2471L138 81.7861ZM104.115 101.349C102.151 97.9473 100.284 95.1466 98.5157 92.9472C96.7469 90.7478 94.3609 88.383 91.3579 85.8529L80.6335 67.2776C87.7092 69.6336 93.8673 73.268 99.1077 78.1806C104.348 83.0932 109.025 89.034 113.14 96.003L104.115 101.349ZM105.316 147.741L62.1075 72.6663C55.5165 71.9356 49.0548 72.3322 42.7223 73.8563C36.3898 75.3804 30.6773 77.7032 25.5847 80.8249L20.0457 71.231C25.353 68.1669 30.9189 65.7472 36.7435 63.972C42.5681 62.1969 48.8765 61.299 55.6688 61.2785L39.8768 33.9259C34.1212 34.7993 28.2397 36.358 22.232 38.6017C16.2243 40.8455 10.703 43.4209 5.66791 46.3279L0.128906 36.7341C5.46489 33.5626 11.0562 30.8334 16.9029 28.5465C22.7496 26.2596 28.3504 24.5682 33.7054 23.4724L22.5842 4.44573L29.3203 0.556641L112.052 143.852L105.316 147.741ZM54.1047 130.223L39.3733 104.707C42.7754 102.743 46.3609 101.49 50.1299 100.947C53.8989 100.404 57.7689 100.664 61.7399 101.728C65.7109 102.792 69.1927 104.502 72.1852 106.856C75.1777 109.211 77.6561 112.089 79.6202 115.492L54.1047 130.223Z" fill="#CCFF3C"/>
</svg>
