<svg width="299" height="49" viewBox="0 0 299 49" fill="none" xmlns="http://www.w3.org/2000/svg">
<g clip-path="url(#clip0_3199_146307)">
<g clip-path="url(#clip1_3199_146307)">
<mask id="mask0_3199_146307" style="mask-type:alpha" maskUnits="userSpaceOnUse" x="10" y="13" width="46" height="50">
<path d="M10.3617 25.1766C10.337 27.709 11.5098 33.1733 16.191 33.829C16.5918 38.8195 16.1737 40.8459 15.2075 44.1564V62.5721H55.6636C55.6636 62.5721 53.0409 53.9655 51.1827 50.7688C49.3246 47.5721 47.2759 47.3259 42.33 45.8228C37.384 44.3197 31.5646 43.1172 31.5646 43.1172C32.3848 41.3692 31.9877 39.8253 33.6269 38.6636C33.6269 38.6636 36.0999 38.9643 38.5951 38.4174C41.0904 37.8706 42.0566 36.0496 41.6557 34.6282C41.2549 33.208 38.7955 33.808 38.4318 32.7886C38.4318 32.7886 39.6937 31.0257 37.384 30.37L36.4277 28.8669C36.4277 28.8669 37.0017 28.3065 36.7963 27.8018C36.591 27.2958 35.485 27.1869 36.1135 25.7939C36.7419 24.401 37.6994 23.4236 37.2281 22.4859C36.4957 21.3676 35.266 21.3948 33.3955 21.2711C31.4743 21.1387 30.6813 20.7379 30.9275 19.1902C31.1737 17.6426 30.372 17.1045 29.3155 16.0851C28.259 15.0645 26.9205 13.8125 26.9205 13.8125L14.8166 17.337L10.3617 25.1766Z" fill="#C4C4C4" stroke="#1D1D1C" stroke-width="0.185567" stroke-miterlimit="10"/>
</mask>
<g mask="url(#mask0_3199_146307)">
<path d="M57.4121 11.752H4.51562V65.3598H57.4121V11.752Z" fill="#FFBDA3"/>
<path d="M11.8929 22.918C12.3296 25.8685 14.4203 28.6916 18.9494 30.0945L18.6512 33.2095C16.5568 34.2116 14.0059 33.7019 14.0059 33.7019L6.86523 26.4883L11.8929 22.918Z" fill="#F9A177"/>
<path d="M21.0377 32.7911C22.4579 34.8126 22.6038 35.4868 23.0047 36.6707C23.4055 37.8546 24.1614 38.5474 33.629 38.6649L33.0179 42.7227C33.0179 42.7227 27.9729 41.274 24.8579 40.0319C22.8773 39.2179 21.7564 37.1767 21.1824 35.9742C20.6084 34.7717 20.1309 32.5449 20.1309 32.5449L21.0377 32.7911Z" fill="#F9A177"/>
<path d="M36.4554 21.3418C36.537 23.0354 33.8327 26.7381 31.9609 26.6156C31.9609 26.6156 32.8356 27.4358 33.9007 27.1896C34.9659 26.9434 35.4446 26.4115 37.0022 27.0115L39.9527 22.5764L36.4554 21.3418Z" fill="#F9A177"/>
<path d="M20.0772 29.7171C18.9985 29.2383 17.4409 30.1266 17.2764 31.4651C17.1119 32.8037 18.8612 33.9517 20.4051 33.5002C21.949 33.0499 21.662 31.287 21.662 31.287L20.0772 29.7171Z" fill="#FFBDA3"/>
<path d="M27.0625 38.5282C29.4625 37.8997 32.0864 37.6808 33.6291 37.927C35.173 38.1731 40.5829 37.9542 41.7297 34.9492L43.0955 35.068V42.4771L27.4064 39.8766L27.0625 38.5282Z" fill="#F9A177"/>
<path d="M36.3898 34.2088C35.4892 34.7804 36.7659 35.8059 37.6443 35.1502C38.5226 34.4946 38.9779 33.6571 38.9779 33.2649C38.9779 33.2649 38.6043 33.2105 38.3816 32.8418C37.8261 33.3824 37.0517 34.0096 36.3898 34.2088Z" fill="#F9A177"/>
<path d="M19.9428 30.6539C19.9428 30.284 19.0224 30.1949 19.0744 31.2267C19.1263 32.2584 19.7758 32.2968 20.4315 31.9776C21.0872 31.6584 20.9919 31.2267 20.4451 31.1302C20.1247 31.0696 19.9428 31.025 19.9428 30.6539Z" fill="#F9A177"/>
<path d="M36.4268 28.8711C35.2515 29.9499 33.4627 31.3305 28.3262 30.2913C28.3262 30.2913 31.3175 33.5424 33.9142 33.5833C35.7662 33.5833 37.0293 32.0257 37.4796 31.5482C37.9299 31.0707 37.6082 30.7255 37.3843 30.3729C37.1604 30.0204 36.4268 28.8711 36.4268 28.8711Z" fill="white"/>
<path d="M34.9354 26.2225C34.2834 26.6505 33.843 26.1222 34.4801 25.6398C35.1173 25.1573 35.2274 24.8196 35.3548 24.4744C35.4822 24.1293 35.8373 24.2468 35.7556 24.7206C35.6727 25.1932 35.4909 25.8587 34.9354 26.2225Z" fill="#C17145"/>
<path d="M29.3787 19.1191L29.2513 21.3781L23.9787 21.9967L21.7012 24.6379L23.3948 21.1864L28.7144 19.9839L29.3787 19.1191Z" fill="#C17145"/>
<path d="M23.9688 25.2122C24.1964 25.6044 26.0904 25.8617 26.8834 25.3272C27.6751 24.7928 27.1964 24.5008 28.1242 23.7041C28.6784 23.2118 28.4953 22.78 28.332 22.6699L25.3729 23.6806L23.9688 25.2122Z" fill="white"/>
<path d="M25.3208 23.7054C24.2557 24.512 24.9658 25.9322 25.9629 25.7404C26.96 25.5487 27.247 24.6481 26.9464 24.0877C26.647 23.5273 25.8268 23.4864 25.3208 23.7054Z" fill="#577791" stroke="#010202" stroke-width="0.185567" stroke-miterlimit="10"/>
<path d="M25.3399 25.1529C25.9276 25.1801 25.7086 24.4972 25.3399 24.47C24.8624 24.4354 24.7523 25.1257 25.3399 25.1529Z" fill="#F8FBF7"/>
<path d="M23.7059 24.976C23.2407 25.3756 23.7331 25.597 24.2341 25.1541C24.7352 24.7112 24.9814 24.2832 25.5405 23.9739C26.0997 23.6646 27.7129 23.3813 28.3871 22.8902C28.6506 22.6811 28.3958 22.3075 27.9776 22.576C27.0214 23.1191 25.7286 23.2242 25.1174 23.5818C24.5075 23.9405 24.3517 24.4205 23.7059 24.976Z" fill="#010202"/>
</g>
<path d="M10.3617 25.1766C10.337 27.709 11.5098 33.1733 16.191 33.829C16.5918 38.8195 16.1737 40.8459 15.2075 44.1564V62.5721H55.6636C55.6636 62.5721 53.0409 53.9655 51.1827 50.7688C49.3246 47.5721 47.2759 47.3259 42.33 45.8228C37.384 44.3197 31.5646 43.1172 31.5646 43.1172C32.3848 41.3692 31.9877 39.8253 33.6269 38.6636C33.6269 38.6636 36.0999 38.9643 38.5951 38.4174C41.0904 37.8706 42.0566 36.0496 41.6557 34.6282C41.2549 33.208 38.7955 33.808 38.4318 32.7886C38.4318 32.7886 39.6937 31.0257 37.384 30.37L36.4277 28.8669C36.4277 28.8669 37.0017 28.3065 36.7963 27.8018C36.591 27.2958 35.485 27.1869 36.1135 25.7939C36.7419 24.401 37.6994 23.4236 37.2281 22.4859C36.4957 21.3676 35.266 21.3948 33.3955 21.2711C31.4743 21.1387 30.6813 20.7379 30.9275 19.1902C31.1737 17.6426 30.372 17.1045 29.3155 16.0851C28.259 15.0645 26.9205 13.8125 26.9205 13.8125L14.8166 17.337L10.3617 25.1766Z" stroke="#1D1D1C" stroke-width="0.274286" stroke-miterlimit="10"/>
<path d="M23.1772 50.3022C22.2024 49.6738 16.3558 47.3802 15.2077 44.155C15.971 41.9962 16.3051 39.5777 16.3422 36.9785C11.6374 37.4152 9.14217 39.856 8.30464 41.9876C7.46712 44.1191 6.59248 44.8379 3.77805 45.3303C0.963613 45.8226 -0.894531 45.9859 -0.894531 45.9859V51.2041L23.1772 50.3022Z" fill="#FF6FB4"/>
<path d="M35.2456 49.7105C35.2456 49.7105 35.2456 46.4903 31.5664 43.1167C32.4138 41.3266 31.8534 40.7649 33.0138 39.2148C34.2893 39.92 34.799 42.852 37.8287 44.1163C41.6934 45.7282 43.3054 45.3571 43.7977 45.9856C44.2901 46.614 43.3561 46.8194 43.3425 47.3922C43.3289 47.9662 44.5586 47.8289 44.5994 48.4165C44.6402 49.0041 42.3132 49.7093 42.3132 49.7093H35.2456V49.7105Z" fill="#FF6FB4"/>
<mask id="mask1_3199_146307" style="mask-type:alpha" maskUnits="userSpaceOnUse" x="8" y="0" width="21" height="26">
<path d="M10.3078 25.3702C8.55976 25.3046 6.8377 19.1958 12.6299 13.7302C18.422 8.26462 21.1004 5.97101 22.2744 3.48441L22.575 3.94833C23.4361 3.04647 23.7095 2.1174 24.1053 0.150391C24.1053 0.150391 25.0208 1.74874 25.2113 3.04647L25.8398 1.62627C28.2125 6.12565 28.9684 11.7087 27.1783 15.3013C26.2084 17.1817 24.0224 15.4102 19.9103 16.6399C13.0678 19.004 11.5103 25.4531 10.3078 25.3702Z" fill="#C4C4C4" stroke="#010202" stroke-width="0.185567" stroke-miterlimit="10" stroke-linecap="round" stroke-linejoin="round"/>
</mask>
<g mask="url(#mask1_3199_146307)">
<path d="M4.57031 -1.23633L5.22598 28.4903H33.0177V-0.981483L4.57031 -1.23633Z" fill="#FFD577"/>
<path d="M9.85348 17.42C10.4856 18.2686 9.3376 20.6723 10.3632 21.0818C11.3887 21.4913 14.0213 13.6171 20.1364 16.7C12.7867 19.1185 11.8081 25.3845 10.3087 25.4934C9.06543 25.5862 7.50296 21.9156 9.85348 17.42Z" fill="#F8BE3D"/>
</g>
<path d="M10.3078 25.3702C8.55976 25.3046 6.8377 19.1958 12.6299 13.7302C18.422 8.26462 21.1004 5.97101 22.2744 3.48441L22.575 3.94833C23.4361 3.04647 23.7095 2.1174 24.1053 0.150391C24.1053 0.150391 25.0208 1.74874 25.2113 3.04647L25.8398 1.62627C28.2125 6.12565 28.9684 11.7087 27.1783 15.3013C26.2084 17.1817 24.0224 15.4102 19.9103 16.6399C13.0678 19.004 11.5103 25.4531 10.3078 25.3702Z" stroke="#010202" stroke-width="0.274286" stroke-miterlimit="10" stroke-linecap="round" stroke-linejoin="round"/>
<path d="M36.4307 28.8691C35.4336 29.8526 33.7115 31.2877 28.3301 30.2893C28.3301 30.2893 30.2847 32.5124 32.5932 33.3203C34.9016 34.1281 36.2427 32.7487 36.8352 32.2254C37.4278 31.7021 37.9944 31.3248 37.3882 30.3722" stroke="#010202" stroke-width="0.274286" stroke-miterlimit="10" stroke-linecap="round" stroke-linejoin="round"/>
<path d="M8.85127 47.9735C8.85127 47.9735 6.79271 46.1982 7.96797 42.759C9.14323 39.3198 12.257 37.4357 16.3432 36.9805C16.3432 39.0477 16.2653 40.8601 15.2088 44.157" stroke="#010202" stroke-width="0.274286" stroke-miterlimit="10" stroke-linecap="round"/>
<path d="M21.1829 49.2662C17.9046 47.5998 14.7524 45.6291 14.6621 41.6777" stroke="#010202" stroke-width="0.274286" stroke-miterlimit="10" stroke-linecap="round"/>
<path d="M7.85505 43.123C6.83072 44.5024 6.01051 45.4315 -0.892578 45.987" stroke="#010202" stroke-width="0.274286" stroke-miterlimit="10" stroke-linecap="round"/>
<path d="M31.5664 43.1191C33.7524 45.1233 34.8274 47.381 35.1553 48.8024" stroke="#010202" stroke-width="0.274286" stroke-miterlimit="10" stroke-linecap="round"/>
<path d="M44.2669 48.8007C44.7543 48.4914 44.69 48.2156 44.0937 47.9533C43.4962 47.691 43.0298 47.6131 43.6446 46.8758C44.2595 46.1384 43.9292 45.8774 42.5473 45.5236C41.1667 45.171 37.4479 44.5154 35.8125 42.7784C34.177 41.0415 34.2178 40.0036 33.0154 39.2168C31.9638 40.3017 32.3325 42.4073 30.6797 44.9347" stroke="#010202" stroke-width="0.274286" stroke-miterlimit="10" stroke-linecap="round"/>
<path d="M33.6302 38.6656C30.5287 38.4565 28.198 38.5703 25.4195 38.1943C22.6422 37.8182 22.97 36.1431 22.532 35.1955C22.0953 34.2479 21.1836 32.9551 21.1836 32.9551" stroke="#010202" stroke-width="0.274286" stroke-miterlimit="10" stroke-linecap="round"/>
<path d="M19.9813 29.7119C18.7232 29.2925 17.2497 30.3045 17.2757 31.4649C17.3017 32.6265 18.2135 33.6001 19.7611 33.5964C21.3087 33.5927 21.524 32.1799 21.6056 31.8892" stroke="#010202" stroke-width="0.274286" stroke-miterlimit="10" stroke-linecap="round"/>
<path d="M16.1945 33.8294C16.1401 33.1738 15.7207 32.6641 15.7207 32.6641" stroke="#010202" stroke-width="0.274286" stroke-miterlimit="10" stroke-linecap="round"/>
<path d="M27.9237 29.7129C28.8886 30.1954 27.8321 31.644 27.9237 32.2267" stroke="#010202" stroke-width="0.274286" stroke-miterlimit="10" stroke-linecap="round"/>
<path d="M38.4336 32.7891C37.0579 34.1957 35.7676 34.401 35.7676 34.401" stroke="#010202" stroke-width="0.274286" stroke-miterlimit="10" stroke-linecap="round"/>
<path d="M26.8662 44.138C25.8827 42.7896 25.5177 41.1442 25.7911 39.2168" stroke="#010202" stroke-width="0.274286" stroke-miterlimit="10" stroke-linecap="round"/>
</g>
<path fill-rule="evenodd" clip-rule="evenodd" d="M98.2051 33.256C95.6851 33.256 93.7111 35.524 92.0731 38.044V47.746H87.7891V22H92.0731V31.954H93.0811C94.4671 30.4 96.4831 29.35 98.8351 29.35C103.035 29.35 106.059 31.912 106.059 36.658V47.746H101.775V37.582C101.775 35.104 100.977 33.256 98.2051 33.256ZM73.6239 47.7462L71.3139 32.8362H70.4739L68.1639 47.7462H62.1579L58.3359 23.8062H62.7039L65.0979 41.8661H66.0219L68.4579 26.1582H73.4979L75.9339 41.8661H76.8579L79.2519 23.8062H83.4519L79.6299 47.7462H73.6239ZM111.118 32.9619L113.176 36.4059C115.402 34.3899 118.132 33.1299 120.946 33.1299C123.97 33.1299 124.894 34.1379 124.894 35.6919V35.8599L116.578 37.9599C112.714 38.9259 110.74 40.8159 110.74 43.5039C110.74 46.6539 113.092 48.3339 116.704 48.3339C119.56 48.3339 121.954 46.9899 123.886 45.6879H125.188C125.86 47.3259 127.414 48.3339 129.094 48.3339C130.984 48.3339 132.202 47.6619 134.218 45.8559L132.328 43.0839L132.084 43.2717C131 44.1045 130.525 44.4699 129.976 44.4699C129.136 44.4699 128.968 43.9239 128.968 43.1259V35.8599C128.968 32.2059 126.742 29.3499 121.408 29.3499C117.67 29.3499 113.974 30.4419 111.118 32.9619ZM124.894 41.2779C122.542 43.1259 119.77 44.8059 117.292 44.8059C115.99 44.8059 115.192 44.3019 115.192 43.1259C115.192 41.9919 116.284 41.3619 117.418 41.0679L123.928 39.4719L124.894 40.0599V41.2779ZM139.495 40.0599V34.5999L138.445 33.5499H134.245V29.9379H139.495V23.8059H143.821V29.9379H152.641V33.5499H144.829L143.779 34.5999V39.4719C143.779 42.5379 144.913 44.4699 147.853 44.4699C150.457 44.4699 151.969 43.0839 153.775 40.6899L156.337 43.6299C154.279 46.5279 151.171 48.3339 147.811 48.3339C142.939 48.3339 139.495 45.8139 139.495 40.0599ZM171.534 27.7539H179.262V23.8059H156.918V27.7539H164.646L165.906 29.0139V47.7459H170.274V29.0139L171.534 27.7539ZM188.889 48.3339C183.051 48.3339 178.641 44.2179 178.641 38.8419C178.641 33.4659 183.051 29.3499 188.889 29.3499C194.727 29.3499 199.137 33.4659 199.137 38.8419C199.137 44.2179 194.727 48.3339 188.889 48.3339ZM188.889 44.4699C192.417 44.4699 194.727 42.1179 194.727 38.8419C194.727 35.5659 192.417 33.2139 188.889 33.2139C185.361 33.2139 183.051 35.5659 183.051 38.8419C183.051 42.1179 185.361 44.4699 188.889 44.4699ZM209.235 47.7459V37.4139H222.087V33.4659H209.235V29.0139L210.495 27.7539H223.935V23.8059H204.993V47.7459H209.235ZM229.17 36.4059L227.112 32.9619C229.968 30.4419 233.664 29.3499 237.402 29.3499C242.736 29.3499 244.962 32.2059 244.962 35.8599V43.1259C244.962 43.9239 245.13 44.4699 245.97 44.4699C246.519 44.4699 246.994 44.1045 248.078 43.2717L248.322 43.0839L250.212 45.8559C248.196 47.6619 246.978 48.3339 245.088 48.3339C243.408 48.3339 241.854 47.3259 241.182 45.6879H239.88C237.948 46.9899 235.554 48.3339 232.698 48.3339C229.086 48.3339 226.734 46.6539 226.734 43.5039C226.734 40.8159 228.708 38.9259 232.572 37.9599L240.888 35.8599V35.6919C240.888 34.1379 239.964 33.1299 236.94 33.1299C234.126 33.1299 231.396 34.3899 229.17 36.4059ZM233.286 44.8059C235.764 44.8059 238.536 43.1259 240.888 41.2779V40.0599L239.922 39.4719L233.412 41.0679C232.278 41.3619 231.186 41.9919 231.186 43.1259C231.186 44.3019 231.984 44.8059 233.286 44.8059ZM273.247 35.6919C272.281 31.9539 270.223 29.3499 266.401 29.3499C263.629 29.3499 261.235 30.9039 259.135 33.2139H258.169V29.9379H253.885V47.7459H258.169V39.0939C261.235 35.4819 263.419 33.3819 265.603 33.3819C267.913 33.3819 268.753 35.2299 269.341 37.4139L273.247 35.6919ZM298.214 34.2219V47.7459H294.056V35.6919C294.056 34.5579 293.93 33.4239 292.754 33.4239C291.567 33.4239 290.641 35.0269 289.519 36.9685C289.45 37.0878 289.381 37.2083 289.31 37.3299V47.7459H285.152V35.6919C285.152 34.5579 285.026 33.4239 283.85 33.4239C282.663 33.4239 281.737 35.0269 280.615 36.9685C280.546 37.0878 280.477 37.2083 280.406 37.3299V47.7459H276.248V29.9379H280.406V31.9539H281.12C282.17 30.6099 283.43 29.3499 285.446 29.3499C287.21 29.3499 288.344 30.4419 288.932 31.9539H289.73C290.78 30.6099 292.124 29.3499 294.14 29.3499C296.702 29.3499 298.214 31.4919 298.214 34.2219Z" fill="url(#paint0_linear_3199_146307)"/>
</g>
<defs>
<linearGradient id="paint0_linear_3199_146307" x1="206.22" y1="22" x2="69.0237" y2="60.1716" gradientUnits="userSpaceOnUse">
<stop stop-color="#0F9A68"/>
<stop offset="1" stop-color="#007580"/>
</linearGradient>
<clipPath id="clip0_3199_146307">
<rect width="299" height="49" fill="white"/>
</clipPath>
<clipPath id="clip1_3199_146307">
<rect width="48" height="48" fill="white"/>
</clipPath>
</defs>
</svg>
