<svg xmlns="http://www.w3.org/2000/svg" fill="none">
  <path fill="currentColor" fill-rule="evenodd" d="M21.647 3.732c.788.219 1.407.864 1.618 1.684.382 1.485.382 4.584.382 4.584s0 3.1-.382 4.585c-.21.82-.83 1.465-1.618 1.684-1.426.398-7.147.398-7.147.398s-5.72 0-7.147-.398c-.787-.22-1.407-.865-1.618-1.684C5.353 13.099 5.353 10 5.353 10s0-3.099.382-4.584c.21-.82.83-1.465 1.618-1.684 1.426-.399 7.147-.399 7.147-.399s5.72 0 7.147.399ZM17.41 10l-4.781 2.814V7.186L17.41 10Z" clip-rule="evenodd"/>
</svg>
