<svg width="32" height="32" viewBox="0 0 32 32" fill="none" xmlns="http://www.w3.org/2000/svg">
<path d="M9.7853 13.4467L15.9999 7.232L22.2175 13.4493L25.8335 9.83334L15.9999 0L6.16958 9.8304L9.78543 13.4464L9.7853 13.4467ZM0 16L3.61611 12.3834L7.23197 15.9992L3.61586 19.6154L0 16ZM9.7853 18.5537L15.9999 24.768L22.2174 18.5508L25.8353 22.1649L25.8335 22.1668L15.9999 32L6.16958 22.1696L6.16446 22.1645L9.78569 18.5533L9.7853 18.5537ZM24.7679 16.0015L28.384 12.3854L31.9999 16.0013L28.3839 19.6174L24.7679 16.0015Z" fill="#F3BA2F"/>
<path d="M19.6674 15.9981H19.6689L16 12.3288L13.2881 15.04L12.9765 15.3517L12.334 15.9944L12.3288 15.9994L12.334 16.0046L16 19.6712L19.6692 16.0019L19.671 15.9999L19.6676 15.9981" fill="#F3BA2F"/>
</svg>
