<svg width="32" height="32" viewBox="0 0 32 32" fill="none" xmlns="http://www.w3.org/2000/svg">
<path d="M15.7408 2C11.8641 2 8.72665 5.13741 8.72665 9.01418V11.643C7.36528 11.8895 6 12.2181 6 12.6445V26.3638C6 26.3638 6 26.7433 6.42641 26.9232C7.97164 27.5491 14.0509 29.7007 15.4474 30.1936C15.6274 30.2601 15.6782 30.2601 15.7252 30.2601C15.7917 30.2601 15.823 30.2601 16.0029 30.1936C17.3995 29.7007 23.4944 27.5491 25.0396 26.9232C25.4347 26.7589 25.4504 26.3795 25.4504 26.3795V12.6445C25.4504 12.2181 24.1046 11.8738 22.7394 11.643V9.01418C22.7589 5.13741 19.602 2 15.7408 2ZM15.7408 5.35257C18.0254 5.35257 19.4064 6.7335 19.4064 9.01809V11.3027C16.844 11.1227 14.6572 11.1227 12.0792 11.3027V9.01809C12.0792 6.72958 13.4601 5.35257 15.7408 5.35257V5.35257ZM15.7252 14.667C18.9134 14.667 21.5892 14.9134 21.5892 15.3555V23.9149C21.5892 24.0479 21.5736 24.0636 21.4562 24.1105C21.3428 24.1614 16.0186 26.0821 16.0186 26.0821C16.0186 26.0821 15.8034 26.1487 15.7408 26.1487C15.6743 26.1487 15.4631 26.0665 15.4631 26.0665C15.4631 26.0665 10.1389 24.1457 10.0254 24.0949C9.91198 24.044 9.89242 24.0284 9.89242 23.8993V15.3399C9.86112 14.8978 12.5369 14.667 15.7252 14.667V14.667Z" fill="currentColor"/>
</svg>
