<svg viewBox="0 0 40 40" fill="none" xmlns="http://www.w3.org/2000/svg">
<path d="M10.5511 13.832C15.7696 8.72266 24.2305 8.72266 29.449 13.832L30.077 14.4469C30.3379 14.7024 30.3379 15.1166 30.077 15.3721L27.9286 17.4756C27.7981 17.6033 27.5866 17.6033 27.4561 17.4756L26.5918 16.6294C22.9513 13.065 17.0488 13.065 13.4082 16.6294L12.4826 17.5356C12.3522 17.6633 12.1406 17.6633 12.0102 17.5356L9.86172 15.4321C9.60079 15.1766 9.60079 14.7624 9.86172 14.5069L10.5511 13.832ZM33.8922 18.1823L35.8043 20.0545C36.0652 20.3099 36.0652 20.7241 35.8043 20.9796L27.1824 29.4213C26.9215 29.6768 26.4984 29.6768 26.2375 29.4213C26.2375 29.4213 26.2375 29.4213 26.2375 29.4213L20.1182 23.43C20.0529 23.3661 19.9472 23.3661 19.8819 23.43C19.8819 23.43 19.8819 23.43 19.8819 23.43L13.7628 29.4213C13.5018 29.6768 13.0788 29.6768 12.8179 29.4213C12.8179 29.4213 12.8179 29.4213 12.8179 29.4213L4.19569 20.9795C3.93477 20.724 3.93477 20.3098 4.19569 20.0543L6.10783 18.1822C6.36875 17.9267 6.7918 17.9267 7.05272 18.1822L13.1721 24.1736C13.2374 24.2375 13.3431 24.2375 13.4084 24.1736C13.4084 24.1736 13.4084 24.1736 13.4084 24.1736L19.5275 18.1822C19.7884 17.9267 20.2114 17.9267 20.4723 18.1822C20.4724 18.1822 20.4724 18.1822 20.4724 18.1822L26.5918 24.1736C26.657 24.2375 26.7628 24.2375 26.828 24.1736L32.9473 18.1823C33.2082 17.9268 33.6313 17.9268 33.8922 18.1823Z" fill="#3B99FC"/>
</svg>
