<svg width="18" height="18" viewBox="0 0 18 18" fill="none" xmlns="http://www.w3.org/2000/svg"><path d="M18.0001 4.9152V17.4727C18.0001 17.7638 17.7639 18 17.4728 18H2.63086C2.33977 18 2.10352 17.7638 2.10352 17.4727V0.527344C2.10352 0.23625 2.33977 0 2.63086 0H13.0216C13.1602 0 13.293 0.0544922 13.3918 0.151875L17.843 4.53937C17.9435 4.63852 18.0001 4.77387 18.0001 4.9152Z" fill="#F4F1F1"></path><path d="M17.8439 4.53937L13.3928 0.151875C13.294 0.0544922 13.1611 0 13.0226 0H10.0527V18H17.4737C17.7648 18 18.001 17.7638 18.001 17.4727V4.9152C18.001 4.77387 17.9444 4.63852 17.8439 4.53937Z" fill="#ECEAE7"></path><path fill-rule="evenodd" clip-rule="evenodd" d="M10 9L15 14H5L10 9Z" fill="#5A81EA"></path><path fill-rule="evenodd" clip-rule="evenodd" d="M10 9L15 4H5L10 9Z" fill="#E14B51"></path><path d="M18 4.9152V5.44254H14.0758C13.2036 5.44254 12.4941 4.73273 12.4941 3.86051V0H13.0215C13.16 0 13.2929 0.0544922 13.3917 0.151875L17.8428 4.53937C17.9434 4.63852 18 4.77387 18 4.9152Z" fill="#C5B9B7"></path><path d="M8 11.0052V14.9971C8 16.1027 7.10044 17.0023 5.9948 17.0023H2.0052C0.899563 17.0023 0 16.1027 0 14.9971V11.0052C0 9.89956 0.899563 9 2.0052 9H5.9948C7.10044 9 8 9.89956 8 11.0052Z" fill="#686868"></path><path d="M3.03599 14.8069C2.93869 14.8069 2.84138 14.7698 2.76716 14.6955L1.34183 13.2702C1.19335 13.1217 1.19335 12.881 1.34183 12.7325L2.76716 11.3072C2.91562 11.1587 3.15637 11.1587 3.30485 11.3072C3.45333 11.4556 3.45333 11.6964 3.30485 11.8448L2.14837 13.0013L3.30485 14.1578C3.45333 14.3063 3.45333 14.547 3.30485 14.6955C3.23058 14.7697 3.13328 14.8069 3.03599 14.8069Z" fill="white"></path><path d="M4.96027 14.8068C4.86296 14.8068 4.76566 14.7697 4.69144 14.6955C4.54296 14.547 4.54296 14.3063 4.69144 14.1578L5.84792 13.0013L4.69144 11.8448C4.54296 11.6964 4.54296 11.4556 4.69144 11.3072C4.8399 11.1587 5.08064 11.1587 5.22912 11.3072L6.65446 12.7325C6.80294 12.881 6.80294 13.1217 6.65446 13.2702L5.22912 14.6955C5.15486 14.7697 5.05755 14.8068 4.96027 14.8068Z" fill="white"></path></svg>
