<svg viewBox="0 0 75 75" fill="none" xmlns="http://www.w3.org/2000/svg">
<path d="M62.1781 0.731018H28.2594V46.4896H74.0552V12.5709C74.0552 6.07387 68.7087 0.731018 62.2153 0.731018C62.2042 0.731018 62.1893 0.731018 62.1781 0.731018V0.731018Z" fill="currentColor"/>
<path d="M17.6854 0.731018H11.8399C5.34657 0.731018 0 6.07759 0 12.5709V18.4164H17.6854V0.731018Z" fill="currentColor"/>
<path d="M0 28.9904H17.6854V46.6758H0V28.9904Z" fill="currentColor"/>
<path d="M56.5188 74.7862H62.3643C68.8613 74.7862 74.2042 69.4397 74.2042 62.9463C74.2042 62.9352 74.2042 62.9203 74.2042 62.9091V57.2498H56.5188V74.7862Z" fill="currentColor"/>
<path d="M28.2594 57.2498H45.9448V74.9352H28.2594V57.2498Z" fill="currentColor"/>
<path d="M0 57.2498V63.0953C0 69.5886 5.34657 74.9352 11.8399 74.9352H17.6854V57.2498H0Z" fill="currentColor"/>
</svg>
