<svg viewBox="0 0 32 32" fill="none" xmlns="http://www.w3.org/2000/svg">
<path d="M28.5823 3.25488L17.8418 11.224L19.8368 6.52232L28.5823 3.25488Z" fill="#E2761B"/>
<path fill-rule="evenodd" clip-rule="evenodd" d="M28.6309 3.22837C28.6437 3.25197 28.6372 3.28142 28.6156 3.29742L17.8751 11.2665C17.8556 11.281 17.8288 11.2806 17.8096 11.2656C17.7905 11.2505 17.7838 11.2246 17.7933 11.2022L19.7883 6.5005C19.7941 6.48688 19.8052 6.47623 19.8191 6.47106L28.5646 3.20361C28.5898 3.19421 28.618 3.20477 28.6309 3.22837ZM19.8785 6.56396L17.97 11.0618L28.245 3.43816L19.8785 6.56396Z" fill="#E2761B"/>
<path d="M3.81348 3.25488L14.4569 11.2995L12.559 6.52232L3.81348 3.25488Z" fill="#E4761B"/>
<path fill-rule="evenodd" clip-rule="evenodd" d="M3.76643 3.22816C3.77932 3.20469 3.80748 3.19424 3.83256 3.20361L12.5781 6.47105C12.5924 6.47639 12.6037 6.4875 12.6093 6.50166L14.5072 11.2788C14.5162 11.3013 14.509 11.327 14.4898 11.3416C14.4706 11.3563 14.4439 11.3563 14.4246 11.3417L3.78118 3.29714C3.75982 3.28099 3.75354 3.25162 3.76643 3.22816ZM4.14111 3.43401L14.3358 11.1395L12.5179 6.5637L4.14111 3.43401Z" fill="#E4761B"/>
<path d="M24.7219 21.7266L21.8643 26.1047L27.9786 27.787L29.7255 21.8236L24.7219 21.7266Z" fill="#E4761B"/>
<path fill-rule="evenodd" clip-rule="evenodd" d="M24.678 21.6963C24.6881 21.6808 24.7056 21.6715 24.7242 21.6719L29.7278 21.7689C29.7446 21.7693 29.7602 21.7774 29.7702 21.7909C29.7801 21.8045 29.7832 21.8219 29.7785 21.838L28.0315 27.8014C28.0232 27.8296 27.9938 27.846 27.9655 27.8382L21.8511 26.1559C21.8345 26.1514 21.8211 26.1391 21.815 26.123C21.8089 26.1069 21.8109 26.0889 21.8203 26.0745L24.678 21.6963ZM24.7519 21.7803L21.951 26.0716L27.9429 27.7201L29.6551 21.8754L24.7519 21.7803Z" fill="#E4761B"/>
<path d="M2.68164 21.8236L4.41781 27.787L10.5321 26.1047L7.68525 21.7266L2.68164 21.8236Z" fill="#E4761B"/>
<path fill-rule="evenodd" clip-rule="evenodd" d="M7.68343 21.6719C7.70205 21.6715 7.71953 21.6808 7.72968 21.6964L10.5766 26.0746C10.5859 26.089 10.5879 26.107 10.5818 26.1231C10.5757 26.1392 10.5622 26.1514 10.5457 26.1559L4.43134 27.8382C4.40293 27.846 4.3735 27.8296 4.36527 27.8013L2.6291 21.8379C2.62441 21.8218 2.62749 21.8044 2.63743 21.7909C2.64738 21.7774 2.66305 21.7693 2.67983 21.7689L7.68343 21.6719ZM2.75233 21.8754L4.45395 27.7201L10.446 26.0715L7.65559 21.7803L2.75233 21.8754Z" fill="#E4761B"/>
<path d="M10.198 14.3296L8.49414 16.9069L14.5545 17.1764L14.3497 10.6523L10.198 14.3296Z" fill="#E4761B"/>
<path fill-rule="evenodd" clip-rule="evenodd" d="M14.3702 10.6021C14.3894 10.6103 14.4021 10.629 14.4028 10.6499L14.6077 17.174C14.6081 17.189 14.6023 17.2035 14.5916 17.214C14.581 17.2246 14.5664 17.2302 14.5514 17.2295L8.49098 16.9599C8.47158 16.9591 8.45414 16.9479 8.44533 16.9306C8.43651 16.9133 8.43768 16.8925 8.44839 16.8763L10.1522 14.2991C10.1548 14.2951 10.1579 14.2916 10.1614 14.2884L14.3131 10.6112C14.3288 10.5973 14.351 10.5938 14.3702 10.6021ZM10.2382 14.3645L8.59082 16.8564L14.4981 17.1192L14.2986 10.7681L10.2382 14.3645Z" fill="#E4761B"/>
<path d="M22.1984 14.3289L17.982 10.5762L17.8418 17.1758L23.9022 16.9062L22.1984 14.3289Z" fill="#E4761B"/>
<path fill-rule="evenodd" clip-rule="evenodd" d="M17.9606 10.527C17.9799 10.5185 18.0023 10.5221 18.018 10.5361L22.2344 14.2888C22.2379 14.2919 22.241 14.2955 22.2436 14.2993L23.9474 16.8766C23.9581 16.8928 23.9593 16.9135 23.9505 16.9308C23.9416 16.9481 23.9242 16.9594 23.9048 16.9602L17.8444 17.2298C17.8295 17.2305 17.815 17.225 17.8043 17.2145C17.7937 17.2041 17.7878 17.1897 17.7881 17.1748L17.9283 10.5752C17.9287 10.5542 17.9414 10.5354 17.9606 10.527ZM18.0336 10.6943L17.8971 17.1195L23.805 16.8567L22.1575 14.3647L18.0336 10.6943Z" fill="#E4761B"/>
<path d="M10.5312 26.1052L14.1869 24.3259L11.0381 21.8672L10.5312 26.1052Z" fill="#E4761B"/>
<path fill-rule="evenodd" clip-rule="evenodd" d="M11.0166 21.8166C11.0346 21.8092 11.0552 21.8119 11.0705 21.8239L14.2193 24.2826C14.234 24.294 14.2417 24.3122 14.2398 24.3307C14.2378 24.3492 14.2265 24.3654 14.2097 24.3736L10.5541 26.1529C10.5363 26.1615 10.5153 26.1598 10.4992 26.1483C10.4831 26.1369 10.4746 26.1176 10.4769 26.098L10.9838 21.86C10.9861 21.8407 10.9986 21.8241 11.0166 21.8166ZM11.0795 21.9678L10.5958 26.0127L14.0849 24.3144L11.0795 21.9678Z" fill="#E4761B"/>
<path d="M18.21 24.3259L21.8656 26.1052L21.3588 21.8672L18.21 24.3259Z" fill="#E4761B"/>
<path fill-rule="evenodd" clip-rule="evenodd" d="M21.3787 21.8166C21.3967 21.8241 21.4092 21.8407 21.4115 21.86L21.9184 26.098C21.9207 26.1176 21.9122 26.1369 21.8961 26.1483C21.88 26.1598 21.859 26.1615 21.8412 26.1529L18.1856 24.3736C18.1689 24.3654 18.1575 24.3492 18.1556 24.3307C18.1536 24.3122 18.1613 24.294 18.176 24.2826L21.3248 21.8239C21.3402 21.8119 21.3608 21.8092 21.3787 21.8166ZM18.3105 24.3144L21.7996 26.0127L21.3158 21.9678L18.3105 24.3144Z" fill="#E4761B"/>
<path d="M21.8646 26.1045L18.209 24.3252L18.5001 26.7084L18.4678 27.7113L21.8646 26.1045Z" fill="#D7C1B3"/>
<path fill-rule="evenodd" clip-rule="evenodd" d="M18.1779 24.2805C18.194 24.2691 18.215 24.2673 18.2328 24.2759L21.8884 26.0552C21.9071 26.0643 21.9189 26.0833 21.9188 26.104C21.9186 26.1248 21.9066 26.1436 21.8879 26.1525L18.4911 27.7592C18.4741 27.7673 18.4541 27.7659 18.4384 27.7556C18.4227 27.7453 18.4135 27.7275 18.4141 27.7087L18.4463 26.71L18.1557 24.331C18.1533 24.3114 18.1618 24.292 18.1779 24.2805ZM18.2747 24.4163L18.5539 26.7011C18.5542 26.7038 18.5543 26.7066 18.5542 26.7093L18.5247 27.624L21.7402 26.103L18.2747 24.4163Z" fill="#D7C1B3"/>
<path d="M10.5303 26.1045L13.9271 27.7113L13.9056 26.7084L14.1859 24.3252L10.5303 26.1045Z" fill="#D7C1B3"/>
<path fill-rule="evenodd" clip-rule="evenodd" d="M14.2183 24.2805C14.2344 24.2919 14.243 24.3111 14.2407 24.3307L13.9607 26.7102L13.9822 27.7093C13.9826 27.728 13.9733 27.7456 13.9576 27.7557C13.942 27.7659 13.9221 27.7672 13.9052 27.7592L10.5084 26.1525C10.4897 26.1436 10.4777 26.1248 10.4775 26.104C10.4774 26.0833 10.4892 26.0643 10.5079 26.0552L14.1635 24.2759C14.1812 24.2673 14.2023 24.2691 14.2183 24.2805ZM10.6561 26.103L13.8725 27.6245L13.8528 26.7088C13.8528 26.7063 13.8529 26.7038 13.8532 26.7013L14.122 24.4161L10.6561 26.103Z" fill="#D7C1B3"/>
<path d="M13.9941 20.2914L10.9531 19.3963L13.0991 18.415L13.9941 20.2914Z" fill="#233447"/>
<path fill-rule="evenodd" clip-rule="evenodd" d="M13.0759 18.3672C13.1026 18.355 13.1343 18.3665 13.147 18.393L14.042 20.2694C14.0512 20.2886 14.0482 20.3114 14.0344 20.3276C14.0206 20.3438 13.9985 20.3503 13.9781 20.3443L10.9371 19.4493C10.9155 19.4429 10.9002 19.4238 10.8986 19.4014C10.897 19.3789 10.9095 19.3579 10.9299 19.3485L13.0759 18.3672ZM11.106 19.3866L13.8927 20.2067L13.0725 18.4873L11.106 19.3866Z" fill="#233447"/>
<path d="M18.4023 20.2914L19.2974 18.415L21.4541 19.3963L18.4023 20.2914Z" fill="#233447"/>
<path fill-rule="evenodd" clip-rule="evenodd" d="M19.2489 18.393C19.2616 18.3665 19.2932 18.355 19.3199 18.3672L21.4767 19.3485C21.4972 19.3578 21.5097 19.3789 21.5081 19.4014C21.5065 19.4238 21.4911 19.4429 21.4695 19.4493L18.4177 20.3443C18.3973 20.3503 18.3753 20.3437 18.3615 20.3275C18.3477 20.3114 18.3447 20.2886 18.3539 20.2694L19.2489 18.393ZM19.3235 18.4872L18.5032 20.2069L21.3001 19.3866L19.3235 18.4872Z" fill="#233447"/>
<path d="M10.5324 26.1047L11.0608 21.7266L7.68555 21.8236L10.5324 26.1047Z" fill="#CD6116"/>
<path fill-rule="evenodd" clip-rule="evenodd" d="M11.0999 21.6904C11.1105 21.702 11.1155 21.7176 11.1136 21.7332L10.5852 26.1114C10.5825 26.1338 10.5661 26.1522 10.5441 26.1574C10.5222 26.1626 10.4993 26.1536 10.4868 26.1348L7.63988 21.8537C7.62903 21.8374 7.62789 21.8164 7.63689 21.799C7.6459 21.7816 7.66364 21.7705 7.68323 21.7699L11.0585 21.6729C11.0742 21.6724 11.0893 21.6788 11.0999 21.6904ZM7.78351 21.8749L10.4956 25.9534L10.999 21.7825L7.78351 21.8749Z" fill="#CD6116"/>
<path d="M21.3359 21.7266L21.8643 26.1047L24.722 21.8236L21.3359 21.7266Z" fill="#CD6116"/>
<path fill-rule="evenodd" clip-rule="evenodd" d="M21.2973 21.6904C21.3079 21.6788 21.323 21.6724 21.3387 21.6729L24.7247 21.7699C24.7443 21.7705 24.7621 21.7817 24.7711 21.7991C24.7801 21.8165 24.7789 21.8374 24.768 21.8538L21.9104 26.1349C21.8978 26.1536 21.875 26.1626 21.853 26.1574C21.8311 26.1521 21.8147 26.1338 21.812 26.1114L21.2836 21.7332C21.2817 21.7176 21.2867 21.702 21.2973 21.6904ZM21.3982 21.7825L21.9016 25.9538L24.6242 21.8749L21.3982 21.7825Z" fill="#CD6116"/>
<path d="M23.9032 16.9072L17.8428 17.1768L18.4035 20.2933L19.2986 18.4169L21.4553 19.3982L23.9032 16.9072Z" fill="#CD6116"/>
<path fill-rule="evenodd" clip-rule="evenodd" d="M23.9526 16.8845C23.9616 16.9047 23.9574 16.9284 23.9418 16.9442L21.494 19.4353C21.4781 19.4514 21.4538 19.4559 21.4332 19.4466L19.3246 18.4872L18.4524 20.3157C18.4423 20.3369 18.4198 20.3491 18.3966 20.346C18.3733 20.3428 18.3548 20.3251 18.3507 20.3021L17.7899 17.1856C17.7872 17.1703 17.7912 17.1545 17.8009 17.1424C17.8106 17.1302 17.825 17.1229 17.8406 17.1222L23.901 16.8526C23.9231 16.8516 23.9436 16.8643 23.9526 16.8845ZM17.907 17.2272L18.4271 20.1182L19.2501 18.393C19.2628 18.3664 19.2943 18.3549 19.3211 18.3671L21.4435 19.3328L23.7689 16.9664L17.907 17.2272Z" fill="#CD6116"/>
<path d="M10.9528 19.3982L13.0988 18.4169L13.9938 20.2933L14.5545 17.1768L8.49414 16.9072L10.9528 19.3982Z" fill="#CD6116"/>
<path fill-rule="evenodd" clip-rule="evenodd" d="M8.4441 16.8846C8.45311 16.8643 8.47361 16.8516 8.49577 16.8526L14.5562 17.1222C14.5717 17.1229 14.5862 17.1302 14.5959 17.1424C14.6056 17.1545 14.6096 17.1703 14.6068 17.1856L14.0461 20.3021C14.0419 20.3251 14.0234 20.3428 14.0002 20.346C13.977 20.3491 13.9544 20.3369 13.9444 20.3157L13.0722 18.4873L10.9745 19.4465C10.9539 19.4559 10.9296 19.4515 10.9137 19.4354L8.455 16.9443C8.43942 16.9285 8.43509 16.9048 8.4441 16.8846ZM8.62833 16.9664L10.9639 19.3328L13.0756 18.3671C13.1023 18.3549 13.134 18.3664 13.1466 18.393L13.9696 20.1182L14.4898 17.2272L8.62833 16.9664Z" fill="#CD6116"/>
<path d="M8.49316 16.9053L11.0381 21.8657L10.9518 19.3963L8.49316 16.9053Z" fill="#E4751F"/>
<path fill-rule="evenodd" clip-rule="evenodd" d="M8.46177 16.8618C8.48333 16.8462 8.51305 16.8487 8.53175 16.8676L10.9904 19.3586C10.9999 19.3683 11.0055 19.3811 11.0059 19.3946L11.0922 21.8641C11.0931 21.8893 11.0763 21.9118 11.0519 21.9181C11.0274 21.9245 11.0019 21.913 10.9903 21.8906L8.4454 16.9301C8.43325 16.9064 8.4402 16.8774 8.46177 16.8618ZM8.70158 17.1932L10.976 21.6264L10.8989 19.4194L8.70158 17.1932Z" fill="#E4751F"/>
<path d="M21.4555 19.3963L21.3584 21.8657L23.9033 16.9053L21.4555 19.3963Z" fill="#E4751F"/>
<path fill-rule="evenodd" clip-rule="evenodd" d="M23.9341 16.8608C23.9557 16.8764 23.9627 16.9054 23.9505 16.9291L21.4056 21.8896C21.3941 21.9121 21.3684 21.9235 21.3439 21.9171C21.3195 21.9107 21.3028 21.8881 21.3038 21.8629L21.4008 19.3934C21.4013 19.38 21.4068 19.3673 21.4162 19.3577L23.8641 16.8667C23.8828 16.8477 23.9125 16.8452 23.9341 16.8608ZM21.5077 19.4185L21.4211 21.6232L23.6932 17.1945L21.5077 19.4185Z" fill="#E4751F"/>
<path d="M14.5529 17.1748L13.9922 20.2913L14.7039 23.9685L14.8549 19.1266L14.5529 17.1748Z" fill="#E4751F"/>
<path fill-rule="evenodd" clip-rule="evenodd" d="M14.5548 17.1201C14.5811 17.1204 14.6034 17.1398 14.6074 17.1658L14.9093 19.1176C14.9099 19.1209 14.9101 19.1242 14.91 19.1276L14.759 23.9694C14.7581 23.9969 14.7368 24.0193 14.7094 24.0215C14.682 24.0237 14.6574 24.0049 14.6522 23.978L13.9404 20.3008C13.9392 20.2942 13.9391 20.2875 13.9403 20.281L14.5011 17.1645C14.5057 17.1386 14.5284 17.1198 14.5548 17.1201ZM14.0482 20.2901L14.6662 23.4833L14.802 19.1292L14.5501 17.5008L14.0482 20.2901Z" fill="#E4751F"/>
<path d="M17.8429 17.1748L17.5518 19.1159L17.6919 23.9685L18.4037 20.2913L17.8429 17.1748Z" fill="#E4751F"/>
<path fill-rule="evenodd" clip-rule="evenodd" d="M17.8414 17.1201C17.8677 17.1197 17.8905 17.1385 17.8952 17.1645L18.456 20.281C18.4571 20.2875 18.4571 20.2942 18.4558 20.3008L17.7441 23.978C17.7389 24.005 17.7142 24.0237 17.6868 24.0215C17.6594 24.0192 17.6381 23.9968 17.6373 23.9693L17.4971 19.1166C17.497 19.1135 17.4972 19.1103 17.4977 19.1071L17.7888 17.166C17.7927 17.1399 17.815 17.1205 17.8414 17.1201ZM17.847 17.5053L17.605 19.1183L17.731 23.4783L18.348 20.2901L17.847 17.5053Z" fill="#E4751F"/>
<path d="M18.4041 20.2925L17.6924 23.9697L18.21 24.3256L21.3588 21.8669L21.4559 19.3975L18.4041 20.2925Z" fill="#F6851B"/>
<path fill-rule="evenodd" clip-rule="evenodd" d="M21.4883 19.3542C21.5019 19.3649 21.5097 19.3815 21.509 19.3988L21.4119 21.8683C21.4113 21.8841 21.4037 21.8989 21.3912 21.9086L18.2424 24.3673C18.2239 24.3818 18.1981 24.3826 18.1787 24.3692L17.6611 24.0134C17.6434 24.0012 17.6346 23.9798 17.6387 23.9587L18.3504 20.2815C18.3542 20.2617 18.3688 20.2457 18.3882 20.24L21.4399 19.345C21.4566 19.3401 21.4746 19.3435 21.4883 19.3542ZM18.45 20.3342L17.7513 23.9445L18.2072 24.258L21.3052 21.839L21.3983 19.4695L18.45 20.3342Z" fill="#F6851B"/>
<path d="M10.9531 19.3975L11.0394 21.8669L14.1882 24.3256L14.7058 23.9697L13.9941 20.2925L10.9531 19.3975Z" fill="#F6851B"/>
<path fill-rule="evenodd" clip-rule="evenodd" d="M10.9193 19.3541C10.933 19.3435 10.951 19.3401 10.9676 19.345L14.0086 20.24C14.0279 20.2457 14.0424 20.2617 14.0463 20.2815L14.758 23.9587C14.7621 23.9798 14.7533 24.0012 14.7356 24.0134L14.218 24.3692C14.1986 24.3826 14.1728 24.3818 14.1543 24.3673L11.0054 21.9086C10.9929 21.8988 10.9853 21.884 10.9847 21.868L10.8985 19.3986C10.8979 19.3813 10.9056 19.3647 10.9193 19.3541ZM11.0089 19.4695L11.0916 21.8391L14.1895 24.258L14.6454 23.9445L13.9466 20.3342L11.0089 19.4695Z" fill="#F6851B"/>
<path d="M18.467 27.7113L18.4994 26.7084L18.2298 26.4711H14.1644L13.9056 26.7084L13.9271 27.7113L10.5303 26.1045L11.7165 27.075L14.132 28.7465H18.2621L20.6777 27.075L21.8639 26.1045L18.467 27.7113Z" fill="#C0AD9E"/>
<path fill-rule="evenodd" clip-rule="evenodd" d="M10.4859 26.0759C10.5004 26.0529 10.5299 26.0443 10.5545 26.056L13.8725 27.6254L13.8528 26.7098C13.8525 26.6942 13.8589 26.6793 13.8703 26.6688L14.1291 26.4316C14.1391 26.4225 14.1521 26.4174 14.1655 26.4174H18.231C18.2441 26.4174 18.2568 26.4222 18.2666 26.4309L18.5362 26.6681C18.5483 26.6788 18.555 26.6942 18.5545 26.7103L18.525 27.625L21.842 26.056C21.8666 26.0443 21.8961 26.0529 21.9106 26.0759C21.9252 26.0989 21.9203 26.1292 21.8992 26.1464L20.713 27.117C20.7119 27.1179 20.7107 27.1187 20.7095 27.1196L18.294 28.791C18.285 28.7973 18.2743 28.8006 18.2633 28.8006H14.1332C14.1222 28.8006 14.1115 28.7973 14.1025 28.791L11.687 27.1196C11.6858 27.1187 11.6846 27.1179 11.6835 27.117L10.4973 26.1464C10.4762 26.1292 10.4713 26.0989 10.4859 26.0759ZM10.9061 26.3416L11.7501 27.0321L14.15 28.6928H18.2465L20.6464 27.0321L21.4904 26.3416L18.4913 27.7602C18.4743 27.7682 18.4543 27.7669 18.4386 27.7566C18.4229 27.7462 18.4137 27.7285 18.4143 27.7097L18.4459 26.7323L18.2106 26.5253H14.1865L13.9612 26.7318L13.9822 27.7103C13.9826 27.729 13.9733 27.7465 13.9576 27.7567C13.942 27.7669 13.9221 27.7682 13.9052 27.7602L10.9061 26.3416Z" fill="#C0AD9E"/>
<path d="M18.2099 24.3256L17.6923 23.9697H14.7052L14.1876 24.3256L13.9072 26.7088L14.166 26.4715H18.2315L18.5011 26.7088L18.2099 24.3256Z" fill="#161616"/>
<path fill-rule="evenodd" clip-rule="evenodd" d="M14.6739 23.9245C14.6829 23.9183 14.6935 23.915 14.7044 23.915H17.6915C17.7024 23.915 17.7131 23.9183 17.7221 23.9245L18.2397 24.2804C18.2524 24.2891 18.2608 24.3029 18.2626 24.3183L18.5538 26.7015C18.5565 26.7237 18.5452 26.7453 18.5254 26.7557C18.5056 26.7661 18.4815 26.7633 18.4647 26.7485L18.2103 26.5247H14.1862L13.9429 26.7477C13.9263 26.763 13.902 26.7663 13.8819 26.756C13.8618 26.7457 13.8503 26.7241 13.8529 26.7017L14.1333 24.3185C14.1351 24.3031 14.1435 24.2892 14.1563 24.2804L14.6739 23.9245ZM14.7212 24.0229L14.2375 24.3554L13.977 26.5702L14.1288 26.431C14.1388 26.4219 14.1518 26.4168 14.1653 26.4168H18.2307C18.2438 26.4168 18.2565 26.4216 18.2663 26.4303L18.4296 26.574L18.1586 24.3555L17.6748 24.0229H14.7212Z" fill="#161616"/>
<path d="M29.0367 11.7416L29.9426 7.34188L28.5838 3.25488L18.21 10.9544L22.1999 14.3297L27.8397 15.9796L29.0799 14.5238L28.5407 14.1356L29.4034 13.3484L28.7456 12.8307L29.6083 12.1729L29.0367 11.7416Z" fill="#763D16"/>
<path fill-rule="evenodd" clip-rule="evenodd" d="M28.5993 3.2027C28.6158 3.2079 28.6288 3.2207 28.6342 3.2371L29.9929 7.3241C29.9959 7.33309 29.9965 7.34271 29.9946 7.35198L29.0956 11.7183L29.64 12.1291C29.6534 12.1393 29.6614 12.1552 29.6614 12.172C29.6615 12.1889 29.6536 12.2048 29.6402 12.2151L28.8328 12.8307L29.4359 13.3052C29.4484 13.315 29.4559 13.3298 29.4565 13.3456C29.4571 13.3615 29.4506 13.3767 29.4389 13.3874L28.6253 14.1299L29.1106 14.4793C29.1228 14.4881 29.1308 14.5016 29.1326 14.5165C29.1344 14.5315 29.1299 14.5465 29.1201 14.558L27.88 16.0138C27.8662 16.0299 27.8442 16.0365 27.8238 16.0306L22.184 14.3807C22.1768 14.3785 22.1701 14.3749 22.1643 14.3701L18.1744 10.9948C18.1618 10.9842 18.1548 10.9684 18.1553 10.9519C18.1558 10.9355 18.1638 10.9201 18.1771 10.9103L28.5509 3.21082C28.5648 3.20051 28.5828 3.19749 28.5993 3.2027ZM18.2959 10.9564L22.2252 14.2804L27.8206 15.9172L29.0001 14.5326L28.5084 14.1786C28.4952 14.1691 28.487 14.1541 28.4861 14.1379C28.4851 14.1217 28.4916 14.1059 28.5036 14.095L29.3193 13.3506L28.7115 12.8724C28.6984 12.862 28.6908 12.8462 28.6909 12.8296C28.691 12.8129 28.6988 12.7972 28.7121 12.7871L29.5183 12.1724L29.0035 11.7839C28.9869 11.7713 28.9789 11.7503 28.9831 11.73L29.8861 7.3444L28.5554 3.3418L18.2959 10.9564Z" fill="#763D16"/>
<path d="M2.45508 7.34188L3.37169 11.7416L2.78937 12.1729L3.65206 12.8307L2.99426 13.3484L3.85695 14.1356L3.31777 14.5238L4.55789 15.9796L10.1977 14.3297L14.1877 10.9544L3.81382 3.25488L2.45508 7.34188Z" fill="#763D16"/>
<path fill-rule="evenodd" clip-rule="evenodd" d="M3.79682 3.2027C3.81331 3.19749 3.8313 3.20051 3.84518 3.21082L14.219 10.9103C14.2323 10.9201 14.2403 10.9355 14.2408 10.9519C14.2413 10.9684 14.2343 10.9842 14.2217 10.9948L10.2318 14.3701C10.226 14.3749 10.2193 14.3785 10.2121 14.3807L4.57226 16.0306C4.55186 16.0365 4.52986 16.0299 4.51607 16.0138L3.27595 14.558C3.26619 14.5465 3.26166 14.5315 3.26347 14.5165C3.26529 14.5016 3.27327 14.4881 3.28549 14.4793L3.77077 14.1299L2.95715 13.3874C2.94544 13.3767 2.93903 13.3615 2.93961 13.3456C2.94019 13.3298 2.9477 13.315 2.96015 13.3052L3.56325 12.8307L2.75591 12.2151C2.74243 12.2048 2.73457 12.1888 2.73468 12.1718C2.7348 12.1549 2.74289 12.1389 2.75651 12.1289L3.31109 11.718L2.40152 7.35211C2.39958 7.34279 2.40014 7.33313 2.40314 7.3241L3.76188 3.2371C3.76734 3.2207 3.78033 3.2079 3.79682 3.2027ZM3.84072 3.3418L2.51006 7.34434L3.4237 11.7298C3.42799 11.7504 3.41991 11.7716 3.40301 11.7842L2.87834 12.1728L3.68399 12.7871C3.69725 12.7972 3.70508 12.8129 3.70521 12.8296C3.70534 12.8462 3.69774 12.862 3.68463 12.8724L3.07682 13.3506L3.89252 14.095C3.90452 14.1059 3.91095 14.1217 3.91001 14.1379C3.90907 14.1541 3.90087 14.1691 3.88769 14.1786L3.39598 14.5326L4.57551 15.9172L10.1709 14.2804L14.1002 10.9564L3.84072 3.3418Z" fill="#763D16"/>
<path d="M27.8394 15.98L22.1995 14.3301L23.9033 16.9074L21.3584 21.8678L24.7229 21.8247H29.7265L27.8394 15.98Z" fill="#F6851B"/>
<path fill-rule="evenodd" clip-rule="evenodd" d="M22.1554 14.2973C22.1688 14.2791 22.1922 14.2712 22.2139 14.2776L27.8537 15.9275C27.8709 15.9325 27.8844 15.9456 27.8899 15.9626L29.777 21.8074C29.7823 21.8238 29.7795 21.8417 29.7693 21.8557C29.7592 21.8696 29.743 21.8779 29.7257 21.8779H24.7221L21.3583 21.921C21.3394 21.9212 21.3218 21.9115 21.3118 21.8955C21.3018 21.8794 21.301 21.8593 21.3097 21.8425L23.8402 16.91L22.1538 14.359C22.1413 14.3402 22.1419 14.3155 22.1554 14.2973ZM22.3249 14.4224L23.9475 16.8769C23.9583 16.8931 23.9594 16.9139 23.9505 16.9312L21.4465 21.812L24.7221 21.77L29.6517 21.77L27.7961 16.0229L22.3249 14.4224Z" fill="#F6851B"/>
<path d="M10.1969 14.3301L4.55702 15.98L2.68066 21.8247H7.68427L11.038 21.8678L8.49304 16.9074L10.1969 14.3301Z" fill="#F6851B"/>
<path fill-rule="evenodd" clip-rule="evenodd" d="M10.2414 14.2973C10.2549 14.3155 10.2555 14.3402 10.243 14.359L8.55659 16.91L11.0871 21.8425C11.0958 21.8593 11.095 21.8794 11.085 21.8955C11.075 21.9115 11.0574 21.9212 11.0385 21.921L7.68545 21.8779H2.68185C2.66462 21.8779 2.64843 21.8696 2.63828 21.8557C2.62813 21.8418 2.62525 21.8239 2.63051 21.8075L4.50686 15.9627C4.51233 15.9457 4.52589 15.9325 4.54306 15.9275L10.1829 14.2776C10.2046 14.2712 10.228 14.2791 10.2414 14.2973ZM4.60079 16.0229L2.75579 21.77H7.68615L10.9503 21.812L8.44625 16.9312C8.43736 16.9139 8.43851 16.8931 8.44925 16.8769L10.0719 14.4224L4.60079 16.0229Z" fill="#F6851B"/>
<path d="M17.8426 17.1747L18.2092 10.9526L19.8375 6.52051H12.5586L14.1869 10.9526L14.5536 17.1747L14.6938 19.1374L14.7045 23.9684H17.6916L17.7024 19.1374L17.8426 17.1747Z" fill="#F6851B"/>
<path fill-rule="evenodd" clip-rule="evenodd" d="M12.5146 6.48986C12.5247 6.47541 12.5412 6.4668 12.5588 6.4668H19.8378C19.8554 6.4668 19.8719 6.47541 19.882 6.48986C19.8921 6.5043 19.8944 6.52277 19.8884 6.53931L18.2628 10.9639L17.8966 17.1781L17.8966 17.1788L17.7565 19.1395L17.7457 23.9688C17.7457 23.9985 17.7215 24.0226 17.6918 24.0226H14.7047C14.675 24.0226 14.6509 23.9985 14.6508 23.9688L14.64 19.1396L14.5 17.1788L14.4999 17.1781L14.1338 10.9639L12.5082 6.53931C12.5021 6.52277 12.5045 6.5043 12.5146 6.48986ZM12.6361 6.57463L14.2377 10.9342C14.2396 10.9391 14.2406 10.9443 14.241 10.9496L14.6076 17.1711L14.6076 17.1718L14.7477 19.1337C14.7478 19.135 14.7479 19.1362 14.7479 19.1374L14.7585 23.9147H17.638L17.6487 19.1374C17.6487 19.1362 17.6487 19.135 17.6488 19.1337L17.789 17.1718L17.789 17.1711L18.1556 10.9496C18.1559 10.9443 18.157 10.9391 18.1588 10.9342L19.7605 6.57463H12.6361Z" fill="#F6851B"/>
</svg>
