<svg viewBox="0 0 40 40" fill="none" xmlns="http://www.w3.org/2000/svg">
<path d="M9.31641 22.3962L10.0915 22.0641L19.5823 17.9355L29.8483 22.3962L25.9887 30.3686L16.5611 31.6973L9.47459 24.0413L9.31641 22.3962Z" fill="#133444"/>
<path d="M27.7123 17.4927C26.0198 15.4522 23.6154 14.1235 20.9896 13.7755C20.9264 13.7755 20.8789 13.7597 20.8156 13.7597C19.9931 13.6647 19.1706 13.6647 18.348 13.7597C18.2847 13.7597 18.2373 13.7755 18.174 13.7755C15.5482 14.1235 13.1439 15.4522 11.4513 17.4927L11.0242 18.2045L10.3124 19.3909L9.79043 20.2609C9.79043 20.2925 9.77461 20.3083 9.75879 20.3242V20.34L10.8977 21.0202L18.174 25.3227L19.5818 26.1452V15.8635L18.174 16.4962V14.9618L19.5818 14.3291L20.9896 14.9618L28.1394 18.2045L27.7123 17.4927Z" fill="#C42370"/>
<path d="M30.1644 24.959C30.1486 28.3283 28.6301 31.5077 26.0201 33.6431C25.0235 34.4499 23.9004 35.0826 22.6825 35.4939C21.6859 35.826 20.6419 36 19.5979 36C13.7452 36 9.01562 30.7959 9.01562 24.959C9.01562 24.089 9.12635 23.2348 9.33199 22.3965L19.5979 28.4706L29.8639 22.3965C30.0537 23.2348 30.1644 24.089 30.1644 24.959Z" fill="#1C4D6B"/>
<path d="M18.3488 13.7439L19.5826 14.3134L18.1748 14.9461V13.6807L18.3488 13.7439Z" fill="black"/>
<path d="M18.1748 16.4962L19.5826 15.8477V26.1294L18.1748 25.3069V16.4962Z" fill="black"/>
<path d="M19.582 15.8477V26.1294L29.4209 20.3242L19.582 15.8477Z" fill="#1D4259"/>
<path d="M19.582 4V15.8478L29.4209 20.3243L19.582 4Z" fill="#4B6B9A"/>
<path d="M19.5818 15.8475V26.1293L18.174 25.3068L9.75879 20.3241C9.75879 20.2924 9.77461 20.2766 9.79043 20.2608L11.0242 18.2202L18.174 14.9775V16.5277L19.5818 15.8475Z" fill="#343535"/>
<path d="M19.582 15.8477V26.1294L18.1742 25.3069L9.75898 20.3242H9.74316L9.75898 20.3084L18.1742 16.4962L19.582 15.8477Z" fill="#3E5578"/>
<path d="M19.582 4V15.8478L9.74316 20.3243L19.582 4Z" fill="#6DB2D8"/>
<path d="M15.5957 35.1621C15.7381 35.2254 15.8962 35.2887 16.0386 35.3519C15.8962 35.2887 15.7539 35.2254 15.5957 35.1621Z" fill="#335F8A"/>
<path d="M16.0391 35.3359C16.1814 35.3992 16.3396 35.4467 16.4978 35.4941C16.3396 35.4467 16.1972 35.3992 16.0391 35.3359Z" fill="#335F8A"/>
<path d="M16.8936 35.6201C17.0201 35.6518 17.1308 35.6834 17.2416 35.715L16.8936 35.6201Z" fill="#335F8A"/>
<path d="M9.31636 22.3965L19.5823 28.4706C19.4399 29.3881 19.2027 30.2897 18.8389 31.1597C18.0163 33.1528 16.3554 35.2408 13.1443 33.6431C10.5344 31.5077 9.01582 28.3124 9 24.9432C9 24.089 9.11073 23.2348 9.31636 22.3965Z" fill="#6DB2D8"/>
<path d="M25.9888 33.6592C25.9255 33.7067 25.9888 33.6592 25.7832 33.8332L25.6883 33.8965L25.5459 33.9914L25.3719 34.118C25.5459 33.9914 25.2296 34.2129 25.1663 34.2603C25.103 34.292 25.0556 34.3236 24.9923 34.371L24.8816 34.4501C24.8499 34.466 24.8025 34.4976 24.7708 34.5292C24.7708 34.5292 24.7234 34.5767 24.7076 34.5767C24.7708 34.5292 24.6285 34.6083 24.5652 34.6558C24.4861 34.6874 24.4228 34.719 24.3596 34.7665L24.1381 34.8772L24.0432 34.9247C23.9799 34.9563 24.0116 34.9247 23.9483 34.9721C23.885 35.0196 23.8059 35.0354 23.7268 35.0829C23.6477 35.1303 23.7268 35.0829 23.4579 35.2094C23.7268 35.0829 23.4579 35.2094 23.3156 35.2727C23.4579 35.2094 23.0625 35.3676 22.8885 35.4309C22.8252 35.4467 22.4772 35.5574 22.4139 35.5732C22.3507 35.589 22.2716 35.6207 22.2083 35.6365C22.0818 35.6681 21.971 35.6998 21.8603 35.7314C21.8128 35.7472 21.7654 35.7472 21.7338 35.763L21.6547 35.7789L21.4648 35.8263C21.4016 35.8421 21.3541 35.8421 21.2908 35.8579C21.2276 35.8738 21.1801 35.8738 21.1327 35.8896C21.0852 35.9054 21.0061 35.9054 20.9587 35.9212C20.927 35.9212 20.8954 35.9212 20.8796 35.937L20.753 35.9529H20.6898C20.6423 35.9529 20.5949 35.9687 20.5474 35.9687C20.4999 35.9687 20.4209 35.9845 20.3576 35.9845H18.7441C18.6809 35.9845 18.6176 35.9687 18.5543 35.9687C18.5069 35.9687 18.4594 35.9687 18.412 35.9529H18.3487C18.3012 35.9529 18.2538 35.937 18.2221 35.937C18.1905 35.937 18.1589 35.937 18.143 35.9212C18.0798 35.9212 18.0323 35.9054 17.969 35.8896C17.9216 35.8896 17.8583 35.8738 17.8109 35.8579C17.7634 35.8421 17.7001 35.8421 17.6369 35.8263L17.4471 35.7789L17.368 35.763C17.3205 35.763 17.2731 35.7472 17.2414 35.7314C17.1149 35.6998 17.0041 35.6681 16.8934 35.6365L16.6878 35.5732C16.6245 35.5574 16.5612 35.5416 16.498 35.5099C16.3398 35.4625 16.1974 35.3992 16.0392 35.3518C15.8811 35.3043 15.7387 35.2252 15.5963 35.1619C15.5331 35.1303 15.454 35.0987 15.3749 35.067C15.2958 35.0354 15.2167 35.0038 15.1534 34.9563C15.0743 34.9247 15.0111 34.893 14.9478 34.8456C14.8845 34.814 14.8054 34.7665 14.7422 34.7349C14.6789 34.7032 14.6314 34.6716 14.584 34.64C14.4258 34.545 14.3309 34.4818 14.4258 34.545L14.3309 34.4818L14.1569 34.371L14.0936 34.3394L13.9354 34.2287C13.8722 34.1812 13.8089 34.1496 13.7456 34.1021C13.6823 34.0547 13.6033 34.0072 13.54 33.9598C13.4767 33.9123 13.4134 33.849 13.366 33.8174L13.3027 33.77C13.2394 33.7383 13.192 33.6909 13.1445 33.6434C16.3556 35.241 18.0007 33.1214 18.8232 31.1442C19.1712 30.2742 19.4243 29.3725 19.5667 28.4551C19.709 29.3883 19.9463 30.3058 20.3101 31.1758C21.1643 33.1372 22.7777 35.241 25.9888 33.6592Z" fill="#529BBA"/>
<path d="M21.9238 35.715C22.0504 35.6834 22.1611 35.6518 22.2718 35.6201L21.9238 35.715Z" fill="#335F8A"/>
<path d="M22.667 35.4941C22.8252 35.4467 22.9675 35.3992 23.1257 35.3359C22.9675 35.3992 22.8252 35.4467 22.667 35.4941Z" fill="#335F8A"/>
<path d="M23.0938 35.3511C23.2361 35.2879 23.4259 35.2246 23.5683 35.1455C23.4101 35.2246 23.2361 35.2879 23.0938 35.3511Z" fill="#335F8A"/>
<path d="M30.1643 24.959C30.1485 28.3283 28.63 31.5077 26.02 33.6431C22.8089 35.2408 21.148 33.137 20.3255 31.1597C19.9775 30.2897 19.7244 29.3881 19.582 28.4706L29.848 22.3965C30.0536 23.2348 30.1643 24.089 30.1643 24.959Z" fill="#4B6B9A"/>
</svg>
